<?xml version="1.0" encoding="UTF-8"?>
<svg id="_レイヤー_2" data-name="レイヤー 2" xmlns="http://www.w3.org/2000/svg" viewBox="0 0 297.32 2162.54">
  <defs>
    <style>
      .cls-1 {
        fill: #fff;
      }

      .cls-2 {
        opacity: .5;
      }
    </style>
  </defs>
  <g id="_固定" data-name="固定">
    <g id="_レイヤー_5" data-name="レイヤー 5">
      <g class="cls-2">
        <path class="cls-1" d="M284.25,1.87c8.26,20.42,11.32,42.43,9.35,64.35-1.98,22.1-8.76,43.61-17.95,63.72-9.86,21.59-22.48,41.85-36.36,61.07s-29.8,38.25-46.05,56.21c-15.6,17.24-31.48,34.22-46.59,51.9s-29.6,35.9-42.5,55.24c-12.21,18.29-23,37.64-30.81,58.24-7.47,19.71-12.01,40.62-12.01,61.75,0,21.29,4.75,42.19,13.22,61.68,8.64,19.89,20.85,38.02,34.35,54.91s29.64,33.91,45.41,49.97,32.73,32.65,47.91,50.09c15.55,17.86,29.94,36.94,41.2,57.82,10.52,19.51,18.3,40.9,19.85,63.15,1.31,18.74-2.02,37.56-9.57,54.75-6.3,14.35-15.2,27.4-25.39,39.26-10.88,12.66-23.14,24.06-35.83,34.87s-26.88,21.87-40.5,32.57c-13.72,10.78-27.4,21.64-40.43,33.27s-24.42,23.04-34.75,36.25-19.13,27.92-24.83,43.86c-7.39,20.66-9.37,42.92-6.95,64.66,2.5,22.39,9.33,44.07,18.7,64.5s22.14,41.02,36.3,59.46,30.84,36.97,47.37,54.47,33.88,35.06,50.39,53c16.24,17.65,31.93,35.89,45.73,55.53,13.08,18.61,24.13,38.78,32.1,60.1,7.7,20.59,12.62,42.39,12.9,64.44.27,21.53-4.09,43.07-13.81,62.36-8.89,17.64-21.83,32.81-36.55,45.86-15.05,13.34-31.85,24.56-48.92,35.12-17.7,10.94-35.82,21.19-53.49,32.18s-35.07,22.91-50.66,36.91c-16.42,14.74-30.98,31.55-43.23,49.91-11.91,17.85-21.59,37.19-28.65,57.45-6.99,20.07-11.36,41.07-12.74,62.28-1.36,20.88.29,41.91,4.71,62.36s11.67,40.48,21.19,59.21,21.84,36.97,35.9,53.15,29.66,30.22,46.88,42.51c1.64,1.17,3.2-1.54,1.58-2.7-17.9-12.77-34.2-27.77-48.42-44.55-13.79-16.28-25.58-34.26-34.95-53.42-9.22-18.85-16.04-38.87-20.07-59.47s-5.13-41.58-3.27-62.43c1.88-21.04,6.77-41.8,14.19-61.57,7.59-20.24,17.9-39.46,30.39-57.1,12.7-17.96,27.72-34.26,44.51-48.47,15.92-13.48,33.48-24.87,51.27-35.7s35.63-20.93,53.08-32c16.86-10.7,33.35-22.25,47.89-36,14.49-13.7,26.92-29.74,34.97-48.07,8.65-19.7,12.14-41.25,11.22-62.69-.96-22.16-6.34-44-14.48-64.59-8.35-21.12-19.57-41.01-32.79-59.46-14.03-19.57-29.82-37.8-46.16-55.45-16.51-17.84-33.6-35.13-50.27-52.83-16.47-17.49-32.63-35.38-47.1-54.58s-26.22-38.56-35.64-59.83-15.48-42.16-17.34-64.43c-1.83-21.88.97-44.01,9.23-64.42,6.1-15.06,15.03-28.9,25.33-41.41,10.68-12.97,22.82-24.66,35.46-35.7,13.18-11.5,26.95-22.3,40.7-33.1,13.59-10.67,27.2-21.33,40.24-32.67s24.45-22.33,34.94-35.12,18.58-25.55,24.47-40.22c7.16-17.8,9.91-37.15,7.97-56.25-2.27-22.34-10.41-43.65-21.25-63.18-11.48-20.69-25.96-39.62-41.53-57.37-15.27-17.41-31.87-33.57-48.06-50.1-15.69-16.02-31.17-32.32-45.11-49.9-13.35-16.84-25.36-35.05-33.68-54.94-8.21-19.63-12.47-40.7-11.93-62s5.6-41.65,13.4-61.1c8.28-20.65,19.6-40,32.18-58.3s27.75-37.13,42.92-54.64c15.25-17.61,31.27-34.52,46.78-51.91s31.56-36.84,45.52-56.66c13.55-19.24,25.79-39.54,35.15-61.17,8.8-20.32,15.06-41.88,16.54-64.05,1.4-21.02-1.83-42.14-9.74-61.68-.74-1.84-3.77-1.04-3.01.83h0Z"/>
      </g>
    </g>
  </g>
</svg>