<?xml version="1.0" encoding="UTF-8"?>
<svg id="_レイヤー_2" data-name="レイヤー 2" xmlns="http://www.w3.org/2000/svg" viewBox="0 0 932.11 2523.41">
  <defs>
    <style>
      .cls-1 {
        opacity: .2;
      }
    </style>
  </defs>
  <g id="_固定" data-name="固定">
    <g class="cls-1">
      <path d="M15.77.91c-3.42,12.87-6.29,25.89-8.58,39.01s-4.02,26.15-5.21,39.33C.78,92.5.13,105.79.02,119.1s.31,26.49,1.26,39.7,2.43,26.5,4.41,39.66c1.99,13.17,4.49,26.27,7.5,39.25s6.49,25.72,10.47,38.38,8.5,25.26,13.48,37.62c4.97,12.34,10.41,24.48,16.33,36.39s12.26,23.49,19.08,34.84,14.16,22.53,21.92,33.33,15.87,21.16,24.45,31.22,17.72,19.9,27.21,29.25c10.42,10.27,21.29,20.06,32.52,29.44s22.82,18.33,34.67,26.91,24.06,16.86,36.4,24.81,24.86,15.59,37.5,23.03,25.63,14.8,38.58,21.97c12.98,7.19,26.03,14.26,39.09,21.3s26.04,13.98,39.03,21.01,26.04,14.17,38.96,21.43,24.6,13.99,36.71,21.31,23.08,14.27,34.38,21.79,22.52,15.39,33.47,23.53c10.89,8.1,21.55,16.51,31.93,25.27s20.39,17.79,30.07,27.24,18.73,18.99,27.46,29.07c8.7,10.03,16.94,20.46,24.61,31.3s14.65,21.88,21.02,33.39,12.03,23.3,16.9,35.46c4.97,12.38,9.12,25.09,12.39,38.03,3.52,13.95,6,28.16,7.43,42.47s1.83,28.6,1.31,42.91-1.98,28.71-4.27,42.91-5.43,28.32-9.27,42.21-8.53,27.98-13.78,41.62-11.21,27.16-17.69,40.34c-6.51,13.26-13.58,26.24-21.14,38.93s-15.54,25-23.99,37.04c-8.66,12.35-17.8,24.36-27.25,36.12s-19.68,23.8-29.95,35.33c-10.22,11.48-20.7,22.74-31.35,33.82s-21.62,22.13-32.63,33-22.16,21.67-33.34,32.4c-11.14,10.69-22.31,21.34-33.47,32.01s-22.39,21.47-33.49,32.3-21.98,21.64-32.78,32.65-20.6,21.31-30.59,32.25c-9.78,10.71-19.34,21.62-28.64,32.75s-18.23,22.37-26.9,33.91-17.07,23.42-25.04,35.52-15.44,24.32-22.48,36.89-13.43,25.11-19.33,38.06c-5.89,12.92-11.21,26.1-15.86,39.51-4.63,13.35-8.6,26.94-11.8,40.7s-5.68,27.96-7.31,42.13c-1.57,13.69-2.31,27.48-2.26,41.26s.89,27.31,2.47,40.88,3.9,27.15,6.92,40.52,6.72,26.57,11.06,39.56,9.4,25.95,15.02,38.55,11.88,25.07,18.68,37.15,14.12,23.81,21.96,35.2,16.27,22.53,25.13,33.22,18.12,20.91,27.87,30.72,20.23,19.45,30.97,28.49,22.56,18.16,34.39,26.51,23.88,16.15,36.28,23.5,25.22,14.29,38.22,20.71,26.1,12.3,39.46,17.76,27.15,10.55,40.97,15.14,27.86,8.74,41.98,12.45,28.26,6.95,42.53,9.79,28.76,5.28,43.24,7.29c14.35,2,28.76,3.6,43.2,4.81,15.78,1.32,31.58,2.18,47.37,3.38s31.63,2.73,47.26,5.41c15.38,2.64,30.6,6.4,45.19,11.98,12.61,4.83,24.51,11.22,35.36,19.27s19.93,16.95,27.71,27.37,13.61,21.47,17.1,33.65c3.19,11.15,4.15,22.91,2.48,34.4-.24,1.62,2.24,2.32,2.48.68,1.81-12.45.77-25.11-2.88-37.14s-9.72-23.3-17.29-33.34-17.26-19.58-27.7-27.4c-10.65-7.98-22.32-14.36-34.69-19.24-14.6-5.77-29.87-9.67-45.3-12.41-15.54-2.76-31.27-4.36-47-5.6s-31.53-2.1-47.29-3.37c-14.6-1.17-29.16-2.73-43.67-4.71s-28.91-4.38-43.25-7.19-28.47-6.03-42.55-9.69-28.15-7.78-42.01-12.35c-13.77-4.53-27.39-9.51-40.82-14.96s-26.78-11.42-39.83-17.84-25.65-13.22-38.07-20.55-24.66-15.21-36.5-23.54-23.42-17.24-34.55-26.59c-10.69-8.99-20.99-18.43-30.83-28.34-9.79-9.86-19.14-20.17-28.01-30.87s-17.3-21.87-25.18-33.36-15.14-23.17-21.9-35.24-13-24.51-18.61-37.18-10.55-25.45-14.87-38.52-8-26.35-10.97-39.78-5.24-26.99-6.75-40.65-2.24-27.24-2.21-40.9.88-27.62,2.55-41.34,4.3-28.15,7.63-41.98,7.42-27.42,12.17-40.8c4.77-13.43,10.22-26.62,16.24-39.54,6.02-12.91,12.59-25.56,19.64-37.93s14.74-24.77,22.74-36.76c8.01-12,16.41-23.73,25.13-35.22,8.8-11.6,17.94-22.94,27.33-34.06s18.97-21.93,28.79-32.58c10.07-10.93,20.37-21.65,30.81-32.23s21.91-21.93,33.02-32.74c11.06-10.76,22.21-21.45,33.37-32.11,11.21-10.72,22.44-21.42,33.62-32.17s22.28-21.54,33.28-32.45c10.93-10.84,21.74-21.8,32.37-32.94s21.14-22.53,31.35-34.11,20.06-23.29,29.61-35.33c9.33-11.76,18.34-23.76,26.87-36.11s16.3-24.53,23.74-37.24,14.36-25.66,20.74-38.9,12.2-26.74,17.39-40.49,9.64-27.45,13.41-41.49,6.78-28.15,8.96-42.46,3.52-28.46,3.93-42.79-.1-28.52-1.63-42.7-4.09-28.56-7.7-42.52c-3.33-12.87-7.53-25.5-12.54-37.81s-10.61-23.91-16.96-35.33-13.47-22.62-21.1-33.35-15.82-21.09-24.45-31.05-18-19.86-27.59-29.21c-9.68-9.45-19.73-18.52-30.07-27.24-10.34-8.73-20.97-17.12-31.82-25.2s-22.1-15.99-33.45-23.56-22.65-14.73-34.2-21.73c-12.13-7.35-24.43-14.43-36.79-21.39s-25.92-14.38-38.95-21.44c-12.99-7.04-26.02-14.01-39.03-21.02-13.07-7.04-26.12-14.1-39.1-21.29-12.89-7.13-25.71-14.39-38.41-21.85-12.71-7.47-25.3-15.14-37.71-23.11s-24.53-16.17-36.43-24.77-23.44-17.5-34.67-26.87-22.21-19.26-32.68-29.57c-9.44-9.3-18.48-19.02-27.08-29.1s-16.86-20.64-24.61-31.47-15.04-21.95-21.87-33.36-13.15-23-19.02-34.87-11.36-24.13-16.3-36.52-9.36-24.82-13.31-37.48-7.44-25.6-10.41-38.59-5.43-26.09-7.38-39.27-3.35-26.32-4.24-39.56-1.26-26.59-1.09-39.9.88-26.47,2.13-39.64,3.08-26.46,5.46-39.56C12.41,25.5,15.09,13.48,18.25,1.6c.43-1.6-2.05-2.28-2.48-.68h0Z"/>
    </g>
  </g>
</svg>