<?xml version="1.0" encoding="UTF-8"?>
<svg id="_レイヤー_2" data-name="レイヤー 2" xmlns="http://www.w3.org/2000/svg" viewBox="0 0 233.46 2159.75">
  <defs>
    <style>
      .cls-1 {
        fill: #fff;
      }

      .cls-2 {
        opacity: .5;
      }
    </style>
  </defs>
  <g id="_固定" data-name="固定">
    <g id="_レイヤー_5" data-name="レイヤー 5">
      <g class="cls-2">
        <path class="cls-1" d="M209.82,2.34c10.15,17.84,15.22,38.07,15.95,58.52.75,20.82-2.74,41.64-8.99,61.47s-16.13,39.8-27.54,58.04-25.34,36.63-39.24,54.02c-13.94,17.44-28.27,34.57-41.82,52.32s-25.85,35.71-36.29,55.13-18.63,39.42-23.26,60.66c-4.25,19.45-5.15,39.46-2.2,59.16,2.32,15.41,6.96,30.37,13.17,44.64,6.27,14.4,14.14,28.05,22.83,41.11,9,13.53,18.88,26.46,29.05,39.13,10.35,12.9,21.03,25.54,31.56,38.29s20.79,25.45,30.47,38.72,18.35,26.48,25.91,40.69c7.36,13.83,13.42,28.37,17.44,43.53,4.83,18.2,6.49,37.1,5.06,55.88-1.58,20.79-6.89,41.14-14.32,60.57-7.7,20.13-17.68,39.32-28.61,57.87-11.13,18.87-23.3,37.1-35.64,55.18-12.29,18.01-24.75,35.88-36,54.58s-21.85,38.78-30.27,59.36c-8.13,19.87-14.34,40.59-17.15,61.91s-2,41.55,3.21,61.64c4.8,18.54,13.43,35.76,24.55,51.3,10.67,14.92,23.29,28.3,36.37,41.12s27.14,25.56,40.31,38.76,25.53,26.91,35.75,42.37c10.95,16.57,18.97,34.9,23.9,54.14,4.97,19.43,6.81,39.55,6.21,59.58s-3.76,40.93-8.73,60.84c-5.06,20.27-11.99,40.07-20.4,59.2s-18.68,37.99-29.71,56.07c-11.53,18.89-23.96,37.22-36.68,55.33s-25.84,36.19-38.63,54.37-25.23,36.47-36.81,55.37c-11.3,18.43-21.85,37.41-30.72,57.14-7.71,17.17-14.01,34.98-18.73,53.2-4.73,18.27-7.9,36.97-9.19,55.8-1.26,18.42-.66,36.98,2.21,55.23,2.8,17.81,7.87,35.28,15.51,51.63,7.38,15.79,17.21,30.37,29.15,43.07,1.38,1.47,3.58-.74,2.21-2.21-12.37-13.15-22.38-28.37-29.77-44.83-7.38-16.44-12.08-34.03-14.6-51.85s-2.81-36.88-1.27-55.26,5.07-37.55,10.11-55.79c5-18.08,11.52-35.74,19.51-52.71,9.37-19.92,20.26-39.1,31.94-57.74,11.74-18.73,24.29-36.94,37.05-54.98,12.8-18.09,25.81-36.03,38.48-54.21,12.65-18.15,24.95-36.56,36.3-55.55,10.8-18.09,20.58-36.73,28.78-56.15,8.15-19.3,14.83-39.23,19.57-59.65,4.62-19.94,7.41-40.38,7.64-60.87.23-20.01-2.02-40.11-7.37-59.42-5.28-19.06-13.63-37.2-24.77-53.55-10.42-15.29-22.94-29.01-36.02-42.04-13.21-13.15-27.04-25.66-40.31-38.75s-25.56-26.23-36.01-41.24c-11.01-15.82-19.32-33.3-23.67-52.12-4.68-20.21-4.77-41.26-1.56-61.7s10.02-41.89,18.49-61.62c8.78-20.46,19.48-40.06,31.15-59.01s23.98-36.31,36.21-54.31c12.35-18.18,24.44-36.56,35.39-55.62s20.29-37.9,27.56-58.1c7.04-19.56,11.78-40.02,12.83-60.82.93-18.45-1.16-36.98-6.15-54.76-4.26-15.15-10.53-29.69-18.02-43.52s-16.58-27.52-26.09-40.46-20.15-26.1-30.66-38.81-21.28-25.47-31.64-38.42-19.89-25.54-28.78-39.06c-8.63-13.13-16.43-26.87-22.55-41.36s-10.35-29.14-12.37-44.43c-2.64-20.04-1.14-40.37,3.7-59.96,5.23-21.18,14.05-41.32,24.72-60.29s23.61-37.29,37.14-54.72c13.71-17.65,28.08-34.76,41.94-52.29,13.78-17.43,27.09-35.3,38.55-54.37,10.98-18.27,20.06-37.62,26.03-58.12,5.81-19.96,8.82-40.96,7.52-61.76-1.23-19.63-6.42-38.93-16.18-56.07-.99-1.75-3.69-.17-2.7,1.58h0Z"/>
      </g>
    </g>
  </g>
</svg>