<?xml version="1.0" encoding="UTF-8"?>
<svg id="_レイヤー_2" data-name="レイヤー 2" xmlns="http://www.w3.org/2000/svg" viewBox="0 0 776.28 2347.84">
  <defs>
    <style>
      .cls-1 {
        opacity: .2;
      }
    </style>
  </defs>
  <g id="_固定" data-name="固定">
    <g class="cls-1">
      <path d="M2.54,1.22C-.19,23.38-.71,45.79.93,68.05s5.31,44,10.78,65.45,12.8,42.64,21.52,63.11c8.88,20.87,19.26,41.09,30.79,60.62s24.52,38.77,38.31,57.08,28.66,36.09,44.23,53.07,31.76,33.09,48.68,48.56c17.99,16.47,36.7,32.16,55.75,47.39s39.22,30.51,59.25,45.21,40.39,29.19,60.74,43.56,40.75,28.7,61.02,43.18c20.25,14.47,40.37,29.11,60.2,44.15,19.82,15.04,39.33,30.48,58.34,46.54,18.63,15.74,36.83,32.03,54.17,49.19,16.4,16.23,32.02,33.25,46.74,51.02,14.87,17.96,28.81,36.68,41.64,56.15s24.3,39.23,34.56,59.88c10.15,20.43,18.96,41.53,26.1,63.19,7,21.22,12.38,42.99,15.8,65.08s4.78,44.18,3.95,66.35-4.04,44.94-9.59,66.8c-5.7,22.47-13.84,44.29-23.85,65.19-10.04,20.95-21.92,40.99-35.03,60.16s-27.83,37.91-43.18,55.71-31.52,34.92-48.13,51.57c-17.44,17.46-35.35,34.44-53.31,51.37-18.1,17.06-36.25,34.07-54.05,51.43-17.74,17.3-35.15,34.97-51.75,53.38s-32.28,37.41-46.7,57.47-26.5,39.64-37.65,60.7-20.71,42.48-28.94,64.62-15.08,45.02-20.39,68.14c-5.29,23.03-9.09,46.41-11.38,69.93-2.29,23.54-3.04,47.23-2.2,70.86s3.21,46.73,7.17,69.81,8.93,43.57,15.43,64.83,14.33,42.06,23.38,62.34c9.06,20.31,19.36,40.06,30.83,59.11s24.06,37.37,37.73,54.88c13.68,17.52,28.43,34.2,44.17,49.9s31.29,29.35,48.22,42.51c1.29,1,3.12-.8,1.82-1.82-17.55-13.65-34.22-28.42-49.89-44.19-15.67-15.76-30.35-32.51-43.95-50.09-13.62-17.61-26.14-36.06-37.5-55.2-11.35-19.12-21.54-38.93-30.48-59.29s-16.63-41.3-22.98-62.62-11.36-43.01-14.94-64.94c-3.8-23.23-5.97-46.73-6.58-70.26s.36-47.32,2.86-70.84,6.57-46.93,12.12-69.95,12.57-45.64,21.05-67.72,18.36-43.52,29.66-64.25,24.28-41.1,38.43-60.31,30.59-38.79,47.28-56.99,34.27-35.85,52.08-53.1,36.05-34.29,54.13-51.36,35.61-33.78,52.86-51.24c16.54-16.74,32.58-33.98,47.79-51.93s29.47-36.47,42.49-55.96c12.89-19.29,24.5-39.47,34.22-60.55s17.5-42.9,22.85-65.42c5.18-21.82,8.04-44.18,8.62-66.6.57-22.16-1.09-44.34-4.66-66.21s-9.16-43.81-16.32-65-16.11-42.35-26.26-62.59c-10.34-20.62-22.02-40.56-34.79-59.78s-26.66-37.8-41.43-55.59c-14.74-17.75-30.37-34.76-46.79-50.96-17.38-17.15-35.61-33.44-54.26-49.19-18.96-16-38.42-31.38-58.18-46.38s-39.95-29.68-60.2-44.15c-20.28-14.49-40.67-28.8-61.02-43.18s-40.65-28.82-60.74-43.56c-20.09-14.75-39.96-29.79-59.42-45.36s-37.7-30.91-55.65-47.38c-16.9-15.5-33.15-31.71-48.64-48.62-15.59-17.03-30.41-34.78-44.26-53.25-13.7-18.29-26.47-37.29-38.05-56.99s-21.76-39.69-30.55-60.53c-8.64-20.45-15.82-41.54-21.21-63.08S4.8,87.77,3.33,65.7,2.48,22.6,5.11,1.22c.2-1.64-2.37-1.62-2.57,0h0Z"/>
    </g>
  </g>
</svg>