<?xml version="1.0" encoding="UTF-8"?>
<svg id="_レイヤー_2" data-name="レイヤー 2" xmlns="http://www.w3.org/2000/svg" viewBox="0 0 1103.18 4080.72">
  <defs>
    <style>
      .cls-1 {
        fill: #fff;
      }
    </style>
  </defs>
  <g id="_固定" data-name="固定">
    <g id="_レイヤー_5" data-name="レイヤー 5">
      <path class="cls-1" d="M1069.29,1.82c7.72,21.68,13.99,43.88,18.8,66.38,4.78,22.35,8.12,44.99,10.06,67.76,1.94,22.79,2.48,45.7,1.67,68.56-.81,22.88-2.98,45.71-6.48,68.33-3.51,22.64-8.33,45.08-14.45,67.17-6.11,22.07-13.5,43.79-22.15,65-8.64,21.18-18.55,41.85-29.67,61.84-11.14,20.03-23.51,39.38-37.05,57.88-13.55,18.51-28.3,36.14-44.15,52.72-17.29,18.08-35.86,34.94-55.32,50.66s-40.49,30.75-61.85,44.5-43.56,26.6-66.08,38.59-45.78,23.32-69.13,34.01c-23.46,10.73-47.17,20.9-71.02,30.74-23.79,9.82-47.7,19.32-71.64,28.75s-48.02,18.88-71.94,28.56-47.91,19.67-71.6,30.13-46.93,21.31-69.92,32.95-45.32,23.88-67.21,37.17c-21.77,13.21-42.97,27.38-63.31,42.7-20.36,15.33-39.87,31.79-58.21,49.49-16.88,16.29-32.53,33.78-46.82,52.39-14.27,18.57-27.16,38.21-38.51,58.7-11.36,20.52-21.17,41.9-29.18,63.95-7.85,21.62-13.95,43.89-17.93,66.54-3.92,22.29-5.82,44.95-5.28,67.58.53,22.46,3.46,44.89,8.98,66.67,5.59,22.05,13.91,43.35,24.59,63.44,10.47,19.71,23.18,38.17,37.47,55.3,14.33,17.17,30.25,32.97,47.13,47.63,17.26,15,35.53,28.83,54.32,41.86,19.11,13.25,38.78,25.69,58.69,37.71s40.07,23.64,60.23,35.25c19.9,11.47,39.88,22.83,59.4,34.95,19.85,12.33,39.26,25.39,57.99,39.37,18.76,14,36.84,28.94,53.85,45.03,16.61,15.71,32.23,32.53,46.15,50.69s25.37,36.39,34.84,56.42c9.35,19.78,16.22,40.75,19.96,62.33,3.76,21.72,4.27,44.01,1.6,65.89-2.53,20.78-8.05,41.15-15.98,60.51s-18.4,37.86-30.41,55.09c-12.43,17.83-26.59,34.41-41.8,49.92-15.74,16.05-32.6,30.97-50.16,45s-36.45,27.61-55.49,40.27c-18.88,12.55-38.2,24.42-57.8,35.8s-38.68,21.81-57.9,32.91c-19.45,11.23-38.74,22.73-57.69,34.79-18.94,12.06-37.55,24.66-55.54,38.1-17.64,13.18-34.71,27.15-50.78,42.21-15.58,14.6-30.22,30.24-43.32,47.11-12.79,16.47-24.13,34.09-33.29,52.84-9.22,18.87-16.23,38.81-20.59,59.36-4.55,21.42-6.27,43.43-4.91,65.29,1.34,21.38,5.55,42.55,12.25,62.89,6.74,20.49,15.94,40.14,26.94,58.67,11.33,19.07,24.57,36.98,39.13,53.69s31.37,33.1,48.79,47.78c17.68,14.91,36.41,28.57,55.94,40.96,19.45,12.34,39.69,23.43,60.56,33.18,22.37,10.45,45.49,19.14,68.9,26.96,25.82,8.63,52.01,16.13,78.35,22.99,26.42,6.88,52.99,13.12,79.59,19.25,26.53,6.11,53.08,12.11,79.54,18.51,26.36,6.38,52.63,13.16,78.63,20.86,25.9,7.67,51.55,16.26,76.65,26.24,23.5,9.34,46.5,19.93,68.71,32.03,20.14,10.97,39.64,23.13,58.4,36.34s36.75,27.49,53.9,42.72c17.26,15.32,33.67,31.6,49.15,48.72s29.86,34.9,43.31,53.5,25.88,37.94,37.22,57.9,21.57,40.52,30.61,61.6,16.87,42.67,23.43,64.65,12.21,45.96,16.18,69.39,6.7,48.81,7.79,73.42c1.1,24.67.7,49.41-1.15,74.04-1.85,24.64-5.17,49.17-9.91,73.43-4.73,24.19-10.86,48.1-18.37,71.58-7.51,23.47-16.38,46.5-26.61,68.92-10.22,22.4-21.79,44.19-34.64,65.2-11.88,19.41-24.86,38.15-38.91,56.05-1.18,1.5.93,3.64,2.12,2.12,15.29-19.48,29.36-39.91,42.1-61.14,12.67-21.11,24.05-43.01,34.08-65.49s18.76-45.58,26.1-69.09c7.34-23.53,13.31-47.48,17.87-71.71,4.58-24.35,7.75-48.97,9.45-73.69,1.7-24.57,1.94-49.24.7-73.84-1.24-24.59-3.97-49.11-8.21-73.37s-9.58-46.45-16.46-69.13c-6.68-22.02-14.65-43.63-23.8-64.74-9.14-21.11-19.48-41.7-30.91-61.66-11.41-19.92-23.92-39.21-37.43-57.76-13.52-18.56-28.03-36.4-43.47-53.4s-31.79-33.14-48.98-48.35c-17.28-15.28-35.41-29.61-54.28-42.87-18.77-13.19-38.28-25.32-58.44-36.26-22.23-12.07-45.26-22.63-68.77-31.97-25.11-9.98-50.75-18.57-76.65-26.24-26.08-7.72-52.42-14.52-78.85-20.91-26.53-6.42-53.16-12.43-79.76-18.56s-53.03-12.34-79.37-19.21-52.39-14.32-78.13-22.93c-23.4-7.82-46.51-16.51-68.86-26.98-20.97-9.83-41.31-21.02-60.84-33.47-19.49-12.43-38.19-26.12-55.81-41.1-17.35-14.74-33.67-30.72-48.56-47.96-14.47-16.76-27.56-34.72-38.73-53.85-10.91-18.69-19.94-38.48-26.44-59.13s-10.32-41.49-11.29-62.82,1.09-43.65,6-64.89c4.72-20.4,12.05-40.13,21.59-58.76s21.18-36.12,34.29-52.41c13.47-16.74,28.42-32.25,44.28-46.73,16.3-14.89,33.54-28.71,51.35-41.73,18.14-13.28,36.87-25.75,55.91-37.7,18.99-11.92,38.31-23.33,57.76-34.48,19.27-11.05,38.77-21.71,57.92-32.97,19.59-11.51,38.88-23.54,57.7-36.27s37.38-26.32,55.08-40.77c17.36-14.17,34.01-29.25,49.47-45.48,15.03-15.77,28.95-32.64,41.09-50.74,11.7-17.44,21.68-36.06,29.25-55.66,7.57-19.6,12.58-40.15,14.69-61.06,2.22-21.96,1.23-44.22-2.89-65.9s-11.32-42.38-20.9-62.07c-9.74-20.02-21.89-38.78-35.56-56.32-14.08-18.07-29.8-34.83-46.52-50.48-17.1-16.01-35.26-30.87-54.07-44.82-18.76-13.92-38.19-26.93-58.05-39.22s-39.75-23.56-59.76-35.09-40.31-23.25-60.21-35.3-39.41-24.45-58.43-37.71c-18.69-13.03-36.83-26.87-53.95-41.9-16.84-14.78-32.69-30.72-46.92-48.04s-26.72-35.97-36.98-55.86-18.38-41.62-23.62-63.75-7.73-44.28-7.9-66.73c-.17-22.64,2.06-45.28,6.34-67.51,4.38-22.75,10.86-45.07,19.1-66.72,8.3-21.82,18.4-42.94,30.01-63.19,11.64-20.31,24.81-39.76,39.36-58.11s30.9-35.92,48.19-52.13c18.7-17.53,38.54-33.83,59.23-48.96,20.56-15.04,41.94-28.96,63.87-41.93,22.06-13.05,44.67-25.16,67.62-36.56,23.09-11.47,46.54-22.22,70.18-32.52s47.72-20.21,71.77-29.87,47.94-18.99,71.91-28.47c23.95-9.46,47.86-19.03,71.62-28.94s47.42-20.19,70.79-31.06,46.27-22.25,68.82-34.51,44.59-25.34,65.96-39.49c21.17-14.01,41.65-29.08,61.17-45.31,19-15.81,37.1-32.73,53.89-50.87,15.54-16.79,29.97-34.6,43.24-53.23,13.33-18.73,25.47-38.3,36.37-58.53,10.86-20.15,20.49-40.95,28.88-62.25,8.4-21.31,15.55-43.12,21.4-65.26,5.86-22.15,10.43-44.64,13.68-67.33s5.21-45.66,5.78-68.63-.23-45.89-2.43-68.72c-2.2-22.76-5.78-45.39-10.8-67.7-4.64-20.63-10.51-40.97-17.59-60.89-.64-1.81-3.54-1.03-2.89.8h0Z"/>
    </g>
  </g>
</svg>