<?xml version="1.0" encoding="UTF-8"?>
<svg id="_レイヤー_2" data-name="レイヤー 2" xmlns="http://www.w3.org/2000/svg" viewBox="0 0 897.04 4125.09">
  <defs>
    <style>
      .cls-1 {
        fill: #fff;
      }
    </style>
  </defs>
  <g id="_固定" data-name="固定">
    <g id="_レイヤー_5" data-name="レイヤー 5">
      <path class="cls-1" d="M862.41,1.84c6.28,19.2,11.63,38.7,16.03,58.42,4.36,19.53,7.8,39.28,10.32,59.13,2.52,19.86,4.12,39.84,4.84,59.85.72,20.08.56,40.2-.48,60.27-1.03,20.08-2.92,40.11-5.67,60.03s-6.33,39.67-10.73,59.27c-4.41,19.67-9.65,39.15-15.68,58.38-6.03,19.23-12.86,38.22-20.46,56.89-7.57,18.59-15.93,36.87-25.03,54.76-9.1,17.89-18.94,35.39-29.52,52.44-10.63,17.13-21.99,33.81-34.07,49.95-11.99,16.03-24.7,31.52-38.08,46.4-13.39,14.89-27.45,29.18-42.15,42.78-14.77,13.66-30.18,26.63-46.19,38.8-18.89,14.36-38.6,27.62-58.76,40.11-20.97,13-42.46,25.15-64.19,36.84s-43.95,23.04-66.08,34.25c-22.15,11.22-44.33,22.38-66.34,33.88-21.91,11.44-43.65,23.22-64.97,35.73-20.66,12.11-41.01,24.85-60.53,38.75-18.02,12.83-35.32,26.67-51.74,41.49-16.4,14.81-31.93,30.6-46.3,47.38-14.19,16.57-27.28,34.12-38.85,52.62s-21.23,37.28-29.14,57.2-13.61,39.94-16.97,60.73-4.3,42.16-2.49,63.25c1.55,17.99,4.95,35.84,10.1,53.14,4.89,16.44,11.36,32.39,19.08,47.69,7.71,15.27,16.67,29.89,26.51,43.88,10.07,14.31,21.04,27.98,32.59,41.12,11.92,13.57,24.45,26.59,37.32,39.26,13.1,12.89,26.56,25.42,40.17,37.77,13.82,12.55,27.79,24.92,41.74,37.31s28.1,25.01,41.93,37.75,27.33,25.57,40.5,38.87c12.96,13.1,25.53,26.6,37.45,40.66,11.77,13.89,22.9,28.34,33.06,43.45,11.41,16.96,21.52,34.76,29.99,53.37,8.99,19.75,16.18,40.32,21.59,61.33,5.42,21.04,9.06,42.53,10.91,64.17,1.86,21.8,1.94,43.76.24,65.57-1.69,21.67-5.16,43.2-10.39,64.3-5.22,21.07-12.18,41.72-20.91,61.59-8.77,19.94-19.3,39.12-31.53,57.15s-26.94,36.15-42.31,52.62c-15.32,16.42-31.7,31.82-48.67,46.52-17.18,14.89-34.95,29.07-52.95,42.94s-36.44,27.63-54.68,41.42-36.22,27.59-53.86,41.99-34.46,28.95-50.38,44.86c-16.16,16.15-31.27,33.36-45.09,51.56-13.67,18-26.05,36.99-36.63,56.97-10.27,19.4-18.86,39.75-24.98,60.84-5.94,20.5-9.52,41.76-9.92,63.12-.4,21.4,2.44,42.88,8.68,63.36,6.05,19.88,15.24,38.73,26.95,55.88s25.58,32.36,41.01,45.98,33.05,26.13,51.17,36.82c18.32,10.81,37.51,20.09,57.19,28.12,21.35,8.71,43.32,15.77,65.5,22.05,24.9,7.04,50.06,13.09,75.21,19.12,24.98,5.99,49.97,11.97,74.71,18.9,24.64,6.91,49.04,14.78,72.73,24.51,19.6,8.05,38.63,17.48,56.9,28.22,17.37,10.21,34.08,21.58,49.97,33.97s30.88,25.69,45.08,39.87,27.76,29.41,40.34,45.23c12.66,15.92,24.41,32.55,35.28,49.74,10.92,17.26,20.93,35.09,30.06,53.36,9.17,18.37,17.43,37.19,24.78,56.36,7.42,19.35,13.91,39.06,19.47,59.03,5.53,19.85,10.14,39.96,13.81,60.23,3.66,20.2,6.38,40.56,8.13,61.02,1.95,22.76,2.66,45.61,2.4,68.45-.28,24.89-1.76,49.77-4.34,74.53-2.57,24.68-6.25,49.24-10.9,73.61s-10.34,48.8-16.87,72.87c-6.56,24.17-13.99,48.1-22.19,71.77-8.2,23.69-17.17,47.12-26.78,70.28-9.65,23.24-19.97,46.19-30.86,68.88s-22.45,45.33-34.45,67.59c-10.97,20.35-22.35,40.47-34.08,60.39-.98,1.67,1.61,3.18,2.59,1.51,12.79-21.72,25.17-43.69,37.05-65.92,11.85-22.18,23.21-44.62,34-67.33,10.81-22.76,21.04-45.79,30.61-69.09,9.55-23.26,18.44-46.79,26.56-70.58,8.06-23.63,15.35-47.51,21.77-71.63s11.98-48.56,16.53-73.15c4.51-24.37,8.03-48.92,10.47-73.58,2.44-24.71,3.78-49.52,3.93-74.35.13-22.65-.7-45.31-2.76-67.87-1.87-20.47-4.69-40.85-8.44-61.06-3.77-20.32-8.49-40.47-14.13-60.35-5.64-19.88-12.2-39.5-19.68-58.76-7.44-19.15-15.77-37.95-25.01-56.3s-19.32-36.13-30.34-53.39c-10.94-17.15-22.79-33.73-35.5-49.62-12.59-15.73-26.04-30.77-40.35-44.97-14.33-14.23-29.51-27.6-45.48-39.96-15.91-12.31-32.57-23.64-49.94-33.8-18.33-10.72-37.41-20.1-57.05-28.16-23.76-9.75-48.24-17.63-72.96-24.55-24.74-6.92-49.74-12.89-74.72-18.88-25.08-6.01-50.17-12.05-74.99-19.08-22.23-6.3-44.23-13.38-65.63-22.13-19.67-8.04-38.83-17.4-57.1-28.25s-35.39-23.05-51.1-37.13-29.07-29.06-40.44-46.14c-11.58-17.4-20.54-36.48-26.26-56.6-5.85-20.57-8.24-42-7.41-63.35s4.83-42.43,11.13-62.79,15.52-41.42,26.18-60.77c10.96-19.89,23.68-38.82,37.68-56.7s29.24-34.74,45.5-50.58c16.23-15.81,33.56-30.45,51.19-44.66,17.75-14.31,35.89-28.11,54.08-41.83s36.43-27.36,54.42-41.34,35.69-28.28,52.76-43.35c16.82-14.84,33.01-30.42,48.09-47.05s29.08-34.31,41.35-53.11c11.91-18.25,22.08-37.59,30.54-57.67,8.42-20.01,15.11-40.74,20.04-61.89,4.96-21.3,8.16-43.03,9.59-64.85,1.42-21.71,1.08-43.53-1.02-65.18-2.1-21.63-5.94-43.09-11.58-64.08-5.66-21.08-13.13-41.69-22.36-61.47-8.55-18.3-18.69-35.79-30.07-52.47-10.29-15.09-21.52-29.52-33.37-43.41-12.01-14.07-24.66-27.58-37.7-40.69-13.16-13.24-26.72-26.07-40.46-38.7-13.89-12.76-27.98-25.31-42.08-37.84-13.94-12.39-27.9-24.76-41.7-37.32s-27.01-24.9-40.07-37.81-25.31-25.73-37.16-39.33-22.31-26.8-32.25-41.12-18.63-28.81-26.21-44.19c-7.57-15.34-13.82-31.33-18.48-47.8-4.98-17.58-8.17-35.68-9.38-53.91-1.4-21.18-.07-42.51,3.78-63.38s10.05-40.87,18.16-60.26c8.26-19.74,18.52-38.65,30.15-56.6,11.97-18.46,25.44-35.93,40.02-52.41,14.65-16.56,30.42-32.12,47.04-46.7,16.55-14.52,33.96-28.05,52.07-40.57,20.08-13.88,40.93-26.66,62.09-38.83,21.44-12.32,43.25-23.97,65.21-35.34,22.12-11.45,44.38-22.61,66.59-33.89,22.05-11.2,44.03-22.53,65.74-34.37,21.65-11.81,43.03-24.14,63.86-37.36,19.58-12.43,38.68-25.64,56.97-39.91,15.82-12.33,31.04-25.43,45.61-39.22s28.54-28.28,41.79-43.37c13.27-15.09,25.85-30.79,37.72-46.99,11.85-16.17,22.99-32.85,33.39-49.98,10.48-17.25,20.22-34.95,29.2-53.03s17.13-36.38,24.55-55.05,14.07-37.66,19.93-56.89,10.98-38.92,15.24-58.68c4.24-19.64,7.65-39.46,10.24-59.39,2.59-19.95,4.34-40.01,5.22-60.11.88-20.07.89-40.19,0-60.26-.88-20.02-2.66-39.99-5.33-59.85s-6.29-39.82-10.83-59.46c-4.18-18.05-9.15-35.92-14.92-53.53-.6-1.83-3.5-1.04-2.89.8h0Z"/>
    </g>
  </g>
</svg>