<?xml version="1.0" encoding="UTF-8"?>
<svg id="_レイヤー_2" data-name="レイヤー 2" xmlns="http://www.w3.org/2000/svg" viewBox="0 0 383 56">
  <defs>
    <style>
      .cls-1 {
        fill: #05c87a;
      }

      .cls-2 {
        fill: #ffd63a;
      }

      .cls-3 {
        fill: #fc6349;
      }
    </style>
  </defs>
  <g id="_コンタクト" data-name="コンタクト">
    <g>
      <path class="cls-3" d="M43.07,39.3c-1.23,0-2.46.44-3.42,1.34-3.27,3.03-7.55,4.7-12.04,4.7v9.88c7.05,0,13.75-2.62,18.89-7.38,3.31-3.06,1.08-8.55-3.42-8.55h0Z"/>
      <path class="cls-1" d="M83.3,46.12c-2.76,0-5,2.21-5,4.94s2.24,4.94,5,4.94h0c2.76,0,5-2.21,5-4.94,0-2.73-2.24-4.94-5-4.94h0"/>
      <path class="cls-1" d="M326.75,39.3c-1.23,0-2.46.44-3.42,1.34-3.27,3.03-7.55,4.7-12.04,4.7v9.88c7.05,0,13.75-2.62,18.89-7.38,3.31-3.06,1.08-8.55-3.42-8.55h0Z"/>
      <path class="cls-1" d="M311.29,45.35c-2.76,0-5,2.21-5,4.94s2.24,4.94,5,4.94h0c2.76,0,5-2.21,5-4.94s-2.24-4.94-5-4.94h0"/>
      <g>
        <path class="cls-1" d="M27.61,10.57h0c-9.71,0-17.6,7.8-17.6,17.39H0C0,12.92,12.39.68,27.61.68v9.88Z"/>
        <path class="cls-1" d="M27.61,45.35c-9.71,0-17.6-7.8-17.6-17.39H0c0,15.04,12.39,27.27,27.61,27.27v-9.88Z"/>
        <path class="cls-1" d="M5,23.02c-2.76,0-5,2.21-5,4.94h0c0,2.73,2.24,4.94,5,4.94s5-2.21,5-4.94h0c0-2.73-2.24-4.94-5-4.94"/>
        <path class="cls-1" d="M27.61.68h0c7.18,0,13.97,2.71,19.14,7.62,1.99,1.89,2.05,5.02.14,6.99-1.92,1.97-5.08,2.03-7.07.13-3.3-3.13-7.63-4.86-12.2-4.86"/>
        <path class="cls-1" d="M27.61.68h0c-2.76,0-5,2.21-5,4.94s2.24,4.94,5,4.94h0c2.76,0,5-2.21,5-4.94S30.37.68,27.61.68"/>
        <path class="cls-1" d="M83.3,56c-2.76,0-5-2.21-5-4.94s2.24-4.94,5-4.94c10.11,0,18.34-8.13,18.34-18.12,0-2.73,2.24-4.94,5-4.94s5,2.21,5,4.94c0,15.44-12.72,28-28.35,28h0Z"/>
        <path class="cls-3" d="M59.95,32.94c-2.76,0-5-2.21-5-4.94,0-15.44,12.72-28,28.35-28,2.76,0,5,2.21,5,4.94s-2.24,4.94-5,4.94c-10.11,0-18.34,8.13-18.34,18.12,0,2.73-2.24,4.94-5,4.94Z"/>
        <path class="cls-1" d="M106.64,32.94c-2.76,0-5-2.21-5-4.94,0-9.99-8.23-18.12-18.34-18.12-2.76,0-5-2.21-5-4.94s2.24-4.94,5-4.94c15.63,0,28.35,12.56,28.35,28,0,2.73-2.24,4.94-5,4.94Z"/>
        <path class="cls-1" d="M83.3,56c-15.63,0-28.35-12.56-28.35-28,0-2.73,2.24-4.94,5-4.94s5,2.21,5,4.94c0,9.99,8.23,18.12,18.34,18.12,2.76,0,5,2.21,5,4.94s-2.24,4.94-5,4.94h0Z"/>
        <path class="cls-3" d="M64.96,26.68c0-2.73-2.24-4.94-5-4.94s-5,2.21-5,4.94c0,.23.04.44.07.66-.03.22-.07.43-.07.66,0,2.73,2.24,4.94,5,4.94s5-2.21,5-4.94c0-.23-.04-.44-.07-.66.03-.22.07-.43.07-.66Z"/>
        <path class="cls-3" d="M83.3,0c-.24,0-.46.04-.69.07-.23-.03-.45-.07-.69-.07-2.76,0-5,2.21-5,4.94s2.24,4.94,5,4.94c.24,0,.46-.04.69-.07.23.03.45.07.69.07,2.76,0,5-2.21,5-4.94,0-2.73-2.24-4.94-5-4.94Z"/>
        <path class="cls-1" d="M106.64,23.06c-2.76,0-5,2.21-5,4.94s2.24,4.94,5,4.94,5-2.21,5-4.94-2.24-4.94-5-4.94"/>
        <path class="cls-1" d="M120.99,6.58v42.74c0,2.73,2.24,4.94,5,4.94s5-2.21,5-4.94V6.32l-10.01.26Z"/>
        <path class="cls-1" d="M122.18,9.51l8.82,10.27,28.08,32.7s-.03-.04-.05-.07c.98,1.18,2.2,1.57,1.79,1.38,4.87,2.22,9.34-3.69,5.91-7.69l-8.82-10.27L129.86,3.17l-7.68,6.34Z"/>
        <path class="cls-3" d="M167.92,48.85V6.32c0-2.73-2.24-4.94-5-4.94s-5,2.21-5,4.94v43c0,3.6,3.56,4.79,2.91,4.49,3.83,1.74,7.41-1.53,7.1-4.95Z"/>
        <path class="cls-3" d="M157.91,35.85v13.47c0,3.6,3.56,4.79,2.91,4.49,4.87,2.22,9.34-3.69,5.91-7.68l-8.82-10.27"/>
        <path class="cls-1" d="M125.99,1.37c-4.23,0-6.58,4.92-3.82,8.14l8.82,10.27V6.32c0-2.73-2.24-4.94-5-4.94"/>
        <path class="cls-3" d="M216.56,11.29h-36.52c-2.76,0-5-2.21-5-4.94s2.24-4.94,5-4.94h36.52c2.76,0,5,2.21,5,4.94s-2.24,4.94-5,4.94Z"/>
        <path class="cls-1" d="M198.3,54.28c-2.76,0-5-2.21-5-4.94V6.35c0-2.73,2.24-4.94,5-4.94s5,2.21,5,4.94v43c0,2.73-2.24,4.94-5,4.94Z"/>
        <path class="cls-1" d="M198.3,1.4c-2.76,0-5,2.21-5,4.94v4.94h10.01v-4.94c0-2.73-2.24-4.94-5-4.94"/>
        <path class="cls-1" d="M229.48,54.28c-3.7,0-6.15-3.88-4.46-7.18l22.11-43c1.25-2.43,4.26-3.4,6.73-2.17,2.46,1.24,3.45,4.21,2.19,6.64l-22.11,43c-.88,1.72-2.64,2.71-4.46,2.71"/>
        <path class="cls-3" d="M269.24,51.58c1.25,2.43,4.26,3.4,6.73,2.17,2.46-1.24,3.45-4.21,2.19-6.64l-22.08-42.94c.67,1.35.72,2.98-.03,4.42l-4.46,8.68,17.65,34.32Z"/>
        <path class="cls-1" d="M251.59,1.4c-3.72,0-6.15,3.89-4.46,7.18l4.46,8.68,4.46-8.68c1.71-3.33-.79-7.18-4.46-7.18"/>
        <polyline class="cls-3" points="260.65 34.87 242.53 34.87 237.45 44.76 265.73 44.76 260.65 34.87"/>
        <path class="cls-1" d="M242.53,34.87h-8.14c-2.76,0-5,2.21-5,4.94s2.24,4.94,5,4.94h3.06l5.08-9.88"/>
        <path class="cls-3" d="M268.8,34.87h-8.15l5.08,9.88h3.07c2.76,0,5-2.21,5-4.94s-2.24-4.94-5-4.94"/>
        <path class="cls-1" d="M311.29,10.57h0c-9.71,0-17.6,7.8-17.6,17.39h-10.01c0-15.04,12.39-27.27,27.61-27.27v9.88Z"/>
        <path class="cls-1" d="M311.29,45.35c-9.71,0-17.6-7.8-17.6-17.39h-10.01c0,15.04,12.39,27.27,27.61,27.27v-9.88Z"/>
        <path class="cls-1" d="M288.68,23.02c-2.76,0-5,2.21-5,4.94h0c0,2.73,2.24,4.94,5,4.94s5-2.21,5-4.94h0c0-2.73-2.24-4.94-5-4.94"/>
        <path class="cls-3" d="M311.29.68h0c7.18,0,13.97,2.71,19.14,7.62,1.99,1.89,2.05,5.02.14,6.99-1.92,1.97-5.08,2.03-7.07.13-3.3-3.13-7.63-4.86-12.2-4.86"/>
        <path class="cls-3" d="M311.29.68h0c-2.76,0-5,2.21-5,4.94s2.24,4.94,5,4.94h0c2.76,0,5-2.21,5-4.94s-2.24-4.94-5-4.94"/>
        <path class="cls-1" d="M378,11.29h-36.52c-2.76,0-5-2.21-5-4.94s2.24-4.94,5-4.94h36.52c2.76,0,5,2.21,5,4.94s-2.24,4.94-5,4.94Z"/>
        <path class="cls-3" d="M359.74,54.28c-2.76,0-5-2.21-5-4.94V6.35c0-2.73,2.24-4.94,5-4.94s5,2.21,5,4.94v43c0,2.73-2.24,4.94-5,4.94Z"/>
        <path class="cls-3" d="M359.74,1.4c-2.76,0-5,2.21-5,4.94v4.94h10.01v-4.94c0-2.73-2.24-4.94-5-4.94"/>
        <path class="cls-2" d="M43.28,6.92c-2.76,0-5,2.21-5,4.94s2.24,4.94,5,4.94h0c2.76,0,5-2.21,5-4.94s-2.24-4.94-5-4.94h0"/>
        <path class="cls-2" d="M162.93,1.4c-2.76,0-5,2.21-5,4.94s2.24,4.94,5,4.94h0c2.76,0,5-2.21,5-4.94s-2.24-4.94-5-4.94h0"/>
      </g>
      <path class="cls-2" d="M359.74,1.4c-2.76,0-5,2.21-5,4.94s2.24,4.94,5,4.94h0c2.76,0,5-2.21,5-4.94s-2.24-4.94-5-4.94h0"/>
      <path class="cls-2" d="M229.39,44.53c-2.76,0-5,2.21-5,4.94s2.24,4.94,5,4.94h0c2.76,0,5-2.21,5-4.94s-2.24-4.94-5-4.94h0"/>
      <path class="cls-3" d="M27.61,45.35c-2.76,0-5,2.21-5,4.94s2.24,4.94,5,4.94h0c2.76,0,5-2.21,5-4.94s-2.24-4.94-5-4.94h0"/>
    </g>
  </g>
</svg>