<?xml version="1.0" encoding="UTF-8"?>
<svg id="_レイヤー_2" data-name="レイヤー 2" xmlns="http://www.w3.org/2000/svg" viewBox="0 0 203.93 56.27">
  <defs>
    <style>
      .cls-1 {
        stroke: #ffd63a;
        stroke-miterlimit: 10;
      }

      .cls-1, .cls-2 {
        fill: #ffd63a;
      }

      .cls-3 {
        fill: #fffcee;
      }
    </style>
  </defs>
  <g id="_スキル_ワーク" data-name="スキル＆ワーク">
    <g>
      <path class="cls-3" d="M31.9,39.9c0,1.1-.28,2.68-1.63,3.99-1.59,1.55-4.27,2.36-7.76,2.36-.19,0-.39,0-.59,0-.01,0-.02,0-.03,0-.04,0-.08,0-.12,0-2.69,0-4.92,2.17-4.99,4.88-.07,2.77,2.11,5.07,4.88,5.14,0,0,.01,0,.02,0,.28,0,.55.01.82.01,7.75,0,12.29-2.81,14.76-5.21,3-2.92,4.65-6.89,4.65-11.17h-10.02Z"/>
      <path class="cls-2" d="M22.52.1s-.01,0-.02,0c-.07,0-.13,0-.2,0,.04,0,.08,0,.11,0,.12,0,.23,0,.35.01-.89-.06-1.75-.1-2.6-.1C9.41,0,2.01,5.15,1.74,16.25c-.09,3.51,1.03,8.47,6.85,12.2,2.73,1.75,6.15,3.03,10.79,4.04,0,0,0,0,.01,0,.01,0,.02,0,.03,0,0,0,0,0,0,0,.35.07.69.11,1.03.11,2.31,0,4.38-1.6,4.89-3.95.59-2.7-1.13-5.37-3.83-5.96,0,0-.01,0-.02,0-9.83-2.14-9.83-5.79-9.49-8.41.37-2.89,2.85-4.57,9.36-4.23.26.04.52.06.79.06,2.75,0,5.07-2.01,5.27-4.65.21-2.76-1.98-5.16-4.9-5.36h0Z"/>
      <path class="cls-2" d="M22.07,10.09c2.63.19,6.01,1.34,10.04,3.42,2.46,1.27,5.48.31,6.75-2.15,1.27-2.46.31-5.48-2.15-6.75C31.39,1.87,26.84.39,22.78.1c0,0-.01,0-.02,0-.12,0-.23-.01-.35-.01l-.35,10.01Z"/>
      <path class="cls-3" d="M21.49,22.69s.01,0,.02,0c2.7.59,4.42,3.25,3.83,5.96-.51,2.35-2.58,3.95-4.89,3.95-.34,0-.69-.03-1.03-.11,0,0,0,0,0,0,12.48,2.6,12.48,6.09,12.48,7.4h0c0-2.77,2.24-5.01,5.01-5.01s5.01,2.24,5.01,5.01c0-3.46-1.18-8.38-6.79-12.16-3.23-2.17-7.56-3.78-13.65-5.05M19.37,32.48s.03,0,.04,0c-.01,0-.02,0-.03,0,0,0,0,0-.01,0"/>
      <path class="cls-3" d="M.82,42.76c-1.52,2.31-.87,5.42,1.44,6.94,4.76,3.12,10.78,6.34,19.4,6.56,0,0,.01,0,.02,0,0,0-.01,0-.02,0l.23-10.02c-6.07-.16-10.38-2.46-14.13-4.92-2.32-1.52-5.42-.87-6.94,1.44Z"/>
      <path class="cls-3" d="M36.91,34.89c-2.77,0-5.01,2.24-5.01,5.01h0c0,2.77,2.24,5.01,5.01,5.01s5.01-2.24,5.01-5.01h0c0-2.77-2.24-5.01-5.01-5.01"/>
      <path class="cls-3" d="M21.77,46.24c-2.69,0-4.92,2.17-4.99,4.88-.07,2.77,2.11,5.07,4.88,5.14,0,0,.01,0,.02,0,.04,0,.07,0,.11,0,2.71,0,4.94-2.16,5.01-4.88.07-2.77-2.11-5.07-4.88-5.14-.01,0-.02,0-.03,0-.04,0-.08,0-.12,0"/>
      <path class="cls-3" d="M34.36,4.05c-2.32,0-4.4,1.62-4.9,3.99-.56,2.69,1.15,5.33,3.83,5.92,0,0,0,0,.01,0,.01,0,.02,0,.03,0,0,0,0,0,0,0,.35.07.69.11,1.03.11,2.31,0,4.38-1.6,4.89-3.95.59-2.7-1.13-5.37-3.83-5.96,0,0-.01,0-.02,0,0,0-.01,0-.02,0-.35-.07-.69-.11-1.03-.11"/>
      <path class="cls-2" d="M22.42.08c-2.61,0-4.8,2.01-4.99,4.65-.21,2.89,2.08,5.37,5,5.37,2.6,0,4.8-2.01,4.99-4.65.2-2.76-1.88-5.16-4.64-5.36,0,0-.01,0-.02,0-.12,0-.23-.01-.35-.01"/>
      <path class="cls-2" d="M56.31,54.53c-2.77,0-5.01-2.24-5.01-5.01V5.94c0-2.77,2.24-5.01,5.01-5.01s5.01,2.24,5.01,5.01v43.58c0,2.77-2.24,5.01-5.01,5.01Z"/>
      <path class="cls-3" d="M56.31,42.83c-1.25,0-2.5-.47-3.48-1.4-1.99-1.92-2.05-5.09-.13-7.08L83.45,2.46c1.92-1.99,5.09-2.05,7.08-.13,1.99,1.92,2.05,5.09.13,7.08l-30.74,31.88c-.98,1.02-2.29,1.53-3.61,1.53Z"/>
      <path class="cls-2" d="M61.32,25.41l-8.62,8.93c-1.92,1.99-1.86,5.16.13,7.08.97.94,2.23,1.4,3.48,1.4,1.31,0,2.62-.51,3.61-1.53l1.4-1.46v-14.43"/>
      <path class="cls-3" d="M76.08,24.54l-7,7.26,17.15,20.9c.99,1.21,2.43,1.83,3.88,1.83,1.12,0,2.24-.37,3.17-1.14,2.14-1.76,2.45-4.91.69-7.05l-17.89-21.8"/>
      <path class="cls-3" d="M69.38,19.27c-1.12,0-2.24.37-3.18,1.14-2.14,1.76-2.45,4.91-.69,7.05l3.57,4.35,7-7.26-2.82-3.44c-.99-1.21-2.43-1.83-3.88-1.83"/>
      <path class="cls-1" d="M108.27,54.53c-2.77,0-5.01-2.24-5.01-5.01V5.94c0-2.77,2.24-5.01,5.01-5.01s5.01,2.24,5.01,5.01v43.58c0,2.77-2.24,5.01-5.01,5.01Z"/>
      <path class="cls-3" d="M130.05.93c-2.77,0-5.01,2.24-5.01,5.01v43.58c0,2.77,2.24,5.01,5.01,5.01h0c-2.77,0-5.01-2.24-5.01-5.01s2.24-5.01,5.01-5.01h5.01V5.94c0-2.77-2.24-5.01-5.01-5.01"/>
      <path class="cls-2" d="M155.85,44.51h-20.79v5.01c0,2.77-2.24,5.01-5.01,5.01h25.8c2.77,0,5.01-2.24,5.01-5.01s-2.24-5.01-5.01-5.01"/>
      <path class="cls-2" d="M135.06,44.51h-5.01c-2.77,0-5.01,2.24-5.01,5.01s2.24,5.01,5.01,5.01h0c2.77,0,5.01-2.24,5.01-5.01v-5.01"/>
      <path class="cls-3" d="M173.01.93c-2.77,0-5.01,2.24-5.01,5.01v43.58c0,2.77,2.24,5.01,5.01,5.01h0c-2.77,0-5.01-2.24-5.01-5.01s2.24-5.01,5.01-5.01h5.01V5.94c0-2.77-2.24-5.01-5.01-5.01"/>
      <path class="cls-2" d="M198.81,44.51h-20.79v5.01c0,2.77-2.24,5.01-5.01,5.01h25.8c2.77,0,5.01-2.24,5.01-5.01s-2.24-5.01-5.01-5.01"/>
      <path class="cls-2" d="M178.02,44.51h-5.01c-2.77,0-5.01,2.24-5.01,5.01s2.24,5.01,5.01,5.01h0c2.77,0,5.01-2.24,5.01-5.01v-5.01"/>
      <path class="cls-3" d="M198.92,44.51c-2.32,0-4.4,1.62-4.9,3.99-.56,2.69,1.15,5.33,3.83,5.92,0,0,0,0,.01,0,.01,0,.02,0,.03,0,0,0,0,0,0,0,.35.07.69.11,1.03.11,2.31,0,4.38-1.6,4.89-3.95.59-2.7-1.13-5.37-3.83-5.96,0,0-.01,0-.02,0,0,0-.01,0-.02,0-.35-.07-.69-.11-1.03-.11"/>
      <path class="cls-3" d="M108.26.43c-2.49,0-4.73,1.74-5.26,4.28-.6,2.89,1.24,5.72,4.11,6.36,0,0,0,0,.01,0,.01,0,.02,0,.03,0,0,0,0,0,0,0,.37.08.74.12,1.11.12,2.48,0,4.71-1.72,5.25-4.24.63-2.9-1.21-5.77-4.12-6.4,0,0-.01,0-.02,0,0,0-.01,0-.02,0-.37-.08-.74-.11-1.11-.11"/>
    </g>
  </g>
</svg>