<?xml version="1.0" encoding="UTF-8"?>
<svg id="_レイヤー_2" data-name="レイヤー 2" xmlns="http://www.w3.org/2000/svg" viewBox="0 0 300.18 77.68">
  <defs>
    <style>
      .cls-1 {
        fill: #fff;
      }
    </style>
  </defs>
  <g id="_固定" data-name="固定">
    <g id="_レイヤー_5" data-name="レイヤー 5">
      <g>
        <g>
          <path class="cls-1" d="M9.35,24.13l-2.96,14.85c-.27,1.36-.41,2.24-.41,2.64s.09.83.28,1.29c-1.45.73-2.77,1.1-3.97,1.1-.75,0-1.12-.3-1.12-.9,0-.31.14-1.2.43-2.66l3.24-16.31h-.32c-1.29,0-2.68.31-4.17.92.7-1.52,1.32-2.5,1.86-2.93.54-.44,1.39-.66,2.57-.66h.58l2.58-12.85h-.47c-3.12,0-5.61.85-7.46,2.56.56-2.26,1.53-3.77,2.9-4.53.97-.53,4-.79,9.07-.79h5.65c4.21,0,7.71-.37,10.51-1.12-.89,1.56-1.82,2.6-2.78,3.13-.97.52-2.45.78-4.46.78l-1.89-.02h-6.57l-2.56,12.85h4.64c2.88,0,5.26-.37,7.13-1.1-.69,1.62-1.48,2.65-2.37,3.09-.9.44-2.65.67-5.27.67h-4.64Z"/>
          <path class="cls-1" d="M52.21,20.06c-3.24,5.67-6.51,10.11-9.82,13.32-3.31,3.2-6.28,4.8-8.92,4.8-1.6,0-2.9-.52-3.88-1.57s-1.47-2.42-1.47-4.13c0-.64.14-1.67.43-3.07l.47-2.36c.7-3.41,1.05-5.8,1.05-7.18,0-.82-.24-1.48-.73-2,1.86-.43,3.03-.64,3.5-.64,1.06,0,1.59.74,1.59,2.23,0,1.1-.21,2.68-.62,4.74l-.84,4.19c-.42,2.02-.62,3.33-.62,3.93,0,1.77.75,2.66,2.26,2.66,1.79,0,4.17-1.51,7.15-4.52s5.87-6.83,8.66-11.45l1.78,1.05ZM33.09,9.24l.3.02c.96-.04,2.34-.53,4.14-1.45s3.21-1.87,4.22-2.83c-.63,1.98-1.75,3.63-3.35,4.96-2.43,2.03-4.08,3.05-4.94,3.05-.57,0-.86-.35-.86-1.05,0-1,.17-1.9.49-2.7Z"/>
          <path class="cls-1" d="M70.06,20.13c-2.96,5.63-5.94,10.04-8.94,13.25s-5.64,4.8-7.95,4.8c-1.68,0-3.03-.65-4.06-1.94-1.03-1.3-1.55-2.99-1.55-5.08,0-1.17.21-2.84.64-4.98l4.28-21.53c-.56.09-1.05.13-1.46.13-3.29,0-4.94-1.38-4.94-4.12V.15c1.72.97,3.66,1.46,5.82,1.46s4.05-.54,5.67-1.61l-4.98,25.85c-.44,2.32-.67,3.92-.67,4.79,0,2.42.89,3.63,2.66,3.63s3.45-.97,5.19-2.91c1.74-1.94,4.59-6.08,8.56-12.41l1.72,1.18Z"/>
          <path class="cls-1" d="M68.45,28.7c0,4.19,1.78,6.28,5.33,6.28,3.08,0,6.47-1.46,10.18-4.39,3.71-2.93,7.05-6.79,10.03-11.58l1.83,1.01c-2.81,5.24-6.46,9.58-10.95,13.01s-8.75,5.15-12.77,5.15c-2.58,0-4.62-.83-6.11-2.49-1.5-1.66-2.25-3.93-2.25-6.81,0-4.15,1.36-7.71,4.07-10.66,2.71-2.95,5.98-4.43,9.81-4.43,1.85,0,3.33.47,4.44,1.4,1.11.93,1.67,2.18,1.67,3.74,0,2.56-1.54,4.83-4.63,6.81-3.09,1.98-6.63,2.96-10.65,2.96ZM68.62,26.63c2.99-.16,5.56-1.01,7.7-2.57s3.21-3.36,3.21-5.4c0-1.83-.82-2.74-2.45-2.74-1.95,0-3.75,1.04-5.39,3.13-1.65,2.08-2.67,4.61-3.07,7.58Z"/>
          <path class="cls-1" d="M95.09,37.49c-.98.46-1.76.69-2.35.69-1.47,0-2.2-.64-2.2-1.93,0-.66.26-2.3.77-4.92l1.07-5.35c.66-3.18.99-5.54.99-7.07,0-.83-.24-1.53-.71-2.08,1.5-.52,2.73-.77,3.67-.77,1,0,1.5.64,1.5,1.91,0,.79-.36,2.86-1.07,6.21l-1.22,6.25c2.71-5.26,5.43-9.34,8.17-12.26,2.74-2.91,5.23-4.37,7.46-4.37.79,0,1.47.23,2.04.68s.86,1,.86,1.64c0,1-1.09,2.33-3.27,4-.54-1.13-1.32-1.7-2.32-1.7-1.82,0-4.13,1.93-6.95,5.8-1.75,2.41-3.26,4.89-4.55,7.44s-1.93,4.38-1.93,5.47l.02.37Z"/>
          <path class="cls-1" d="M146.67,25.07c-2.23,4.03-4.57,7.22-7.01,9.57-2.44,2.36-4.62,3.53-6.54,3.53-1.53,0-2.75-.67-3.65-2.01-.9-1.34-1.35-3.13-1.35-5.38,0-4.53,1.35-8.49,4.04-11.89,2.69-3.4,5.82-5.1,9.39-5.1,2.13,0,4.46.68,6.98,2.04l2.3-11.56c-1.26.26-2.31.39-3.14.39-1.26,0-2.18-.3-2.77-.9s-1.06-1.72-1.42-3.36c1.03.7,2.61,1.05,4.75,1.05,2.65,0,5.21-.49,7.67-1.46l-4.68,23.55c-.53,2.64-.79,4.88-.79,6.72,0,2.46.7,3.7,2.11,3.7s3.66-1.61,6.86-4.83,5.87-6.6,8-10.12l1.76,1.12c-2.55,4.67-5.73,8.84-9.55,12.53-3.82,3.68-6.86,5.52-9.14,5.52-2.89,0-4.34-2.32-4.34-6.96,0-1.92.18-3.97.54-6.14ZM147.81,19.38c-2.98-1.96-5.46-2.94-7.43-2.94-2.15,0-4.01,1.32-5.58,3.95-1.57,2.64-2.35,5.75-2.35,9.35,0,2.89.95,4.34,2.84,4.34,2.03,0,5.94-4.5,11.73-13.49.1-.16.37-.56.79-1.2Z"/>
          <path class="cls-1" d="M167.54,28.7c0,4.19,1.78,6.28,5.33,6.28,3.08,0,6.47-1.46,10.18-4.39,3.71-2.93,7.05-6.79,10.03-11.58l1.83,1.01c-2.81,5.24-6.46,9.58-10.95,13.01s-8.75,5.15-12.77,5.15c-2.58,0-4.62-.83-6.11-2.49-1.5-1.66-2.25-3.93-2.25-6.81,0-4.15,1.36-7.71,4.07-10.66,2.71-2.95,5.98-4.43,9.81-4.43,1.85,0,3.33.47,4.44,1.4,1.11.93,1.67,2.18,1.67,3.74,0,2.56-1.54,4.83-4.63,6.81-3.09,1.98-6.63,2.96-10.65,2.96ZM167.71,26.63c2.99-.16,5.56-1.01,7.7-2.57s3.21-3.36,3.21-5.4c0-1.83-.82-2.74-2.45-2.74-1.95,0-3.75,1.04-5.39,3.13-1.65,2.08-2.67,4.61-3.07,7.58Z"/>
          <path class="cls-1" d="M201.72,30.08c.49,1.09.73,2.13.73,3.12,0,2.19-.92,4.1-2.75,5.73-1.83,1.63-3.98,2.44-6.45,2.44-1.45,0-2.68-.37-3.7-1.12-1.02-.74-1.53-1.64-1.53-2.69,0-1.12.7-2.25,2.09-3.39,1.4-1.15,3.73-2.51,7.01-4.08l-1.72-2.77c-2.09-3.37-3.14-5.99-3.14-7.88,0-2.72,1.58-4.91,4.75-6.57,1.95.75,2.92,1.68,2.92,2.81,0,1.6-1.24,3.14-3.72,4.62l2.45,4.51,1.91,3.48c2.74-1.63,4.8-3.03,6.19-4.2,1.39-1.17,3.14-2.97,5.26-5.4l1.72,1.05c-3.08,4.12-7.1,7.58-12.05,10.36ZM198.06,32.01c-4.21,2.26-6.32,4.02-6.32,5.26,0,1.17.85,1.76,2.56,1.76,1.26,0,2.28-.43,3.07-1.28.79-.85,1.18-1.95,1.18-3.3,0-.8-.17-1.62-.49-2.45Z"/>
          <path class="cls-1" d="M233.3,20.06c-3.24,5.67-6.51,10.11-9.82,13.32-3.31,3.2-6.28,4.8-8.92,4.8-1.6,0-2.9-.52-3.88-1.57s-1.47-2.42-1.47-4.13c0-.64.14-1.67.43-3.07l.47-2.36c.7-3.41,1.05-5.8,1.05-7.18,0-.82-.24-1.48-.73-2,1.86-.43,3.03-.64,3.5-.64,1.06,0,1.59.74,1.59,2.23,0,1.1-.21,2.68-.62,4.74l-.84,4.19c-.42,2.02-.62,3.33-.62,3.93,0,1.77.75,2.66,2.26,2.66,1.79,0,4.17-1.51,7.15-4.52s5.87-6.83,8.66-11.45l1.78,1.05ZM214.18,9.24l.3.02c.96-.04,2.34-.53,4.14-1.45s3.21-1.87,4.22-2.83c-.63,1.98-1.75,3.63-3.35,4.96-2.43,2.03-4.08,3.05-4.94,3.05-.57,0-.86-.35-.86-1.05,0-1,.17-1.9.49-2.7Z"/>
          <path class="cls-1" d="M244.9,24.73c-1.39,2.87-3.4,5.38-6.04,7.54-2.64,2.16-5,3.24-7.09,3.24-1.56,0-2.84-.53-3.82-1.59-.99-1.06-1.48-2.43-1.48-4.12,0-3.95,1.5-7.61,4.51-10.97,3.01-3.36,6.29-5.04,9.84-5.04,1.83,0,3.81.52,5.93,1.57.29-1.38.7-2.24,1.25-2.6.54-.36,1.93-.65,4.15-.88-1.12,2.25-2.18,7.61-3.2,16.07l-.28,2.19c6.14-3.7,10.89-7.47,14.22-11.32l1.8,1.14c-3.15,4.11-8.54,8.59-16.18,13.45-.04.56-.07.97-.09,1.25-.21,3.6-.59,6.25-1.14,7.95-.54,1.71-1.53,3.32-2.94,4.86-2.78,2.99-6.16,4.49-10.14,4.49-2.13,0-3.87-.5-5.2-1.51s-2-2.32-2-3.92.58-2.93,1.73-4.1c1.15-1.17,3.32-2.61,6.5-4.3,2.11-1.1,5.08-2.75,8.92-4.94l.75-8.44ZM246,19.14c-1.86-1.98-3.91-2.96-6.14-2.96s-4.12,1.33-5.99,3.99c-1.88,2.66-2.81,5.48-2.81,8.48,0,2.12.78,3.18,2.34,3.18s3.53-1.26,6.05-3.79c2.51-2.53,4.7-5.49,6.56-8.88ZM243.93,36.03c-.83.5-2.51,1.46-5.05,2.88-4.96,2.79-7.43,5.26-7.43,7.39,0,.95.4,1.73,1.2,2.34.8.62,1.83.92,3.07.92,5.47,0,8.21-4.51,8.21-13.54Z"/>
          <path class="cls-1" d="M265.87,29.93c5.08-10.76,9.65-16.13,13.71-16.13,3.17,0,4.75,3.15,4.75,9.45l.04,2.6c0,3.01.15,5.09.46,6.24.31,1.15.87,1.73,1.69,1.73,1.23,0,2.63-.98,4.2-2.94,1.57-1.96,4.12-5.91,7.66-11.84l1.8,1.05c-3.15,5.94-5.97,10.36-8.46,13.23s-4.73,4.32-6.7,4.32c-1.82,0-3.1-.88-3.83-2.64s-1.11-4.81-1.11-9.15l-.02-1.85c0-2.35-.15-4-.45-4.95-.3-.95-.82-1.43-1.57-1.43-1.89,0-4.93,3.77-9.13,11.32-1.03,1.85-1.7,3.04-2,3.57-1.1,1.92-1.65,3.31-1.65,4.17,0,.34.09.67.28.99-.83.34-1.53.52-2.11.52-1.45,0-2.17-.8-2.17-2.41,0-.46.19-2.52.56-6.19l.47-4.66c.21-1.98.32-3.51.32-4.6,0-1.52-.34-2.71-1.03-3.59.3-.1.8-.27,1.5-.52.89-.31,1.6-.47,2.13-.47,1.12,0,1.68.82,1.68,2.45,0,.86-.11,2.33-.32,4.43-.04.46-.09.9-.13,1.31l-.56,5.99Z"/>
        </g>
        <g>
          <path class="cls-1" d="M23.26,73.38c-3.94,0-5.94-2.39-5.94-5.71,0-3.73,2.66-5.94,5.98-5.94,3.67,0,5.92,2.23,5.92,5.69,0,3.69-2.43,5.96-5.96,5.96ZM23.29,62.21c-3.04,0-5.35,2.02-5.35,5.44,0,3.24,2,5.22,5.31,5.22s5.37-2.05,5.37-5.35-2.25-5.31-5.33-5.31ZM21.47,67.45c0,2.18.67,3.21,2.07,3.21.94,0,1.66-.7,1.94-1.93h.22l-.07,2.14h-.18c-.07-.13-.11-.27-.25-.27-.2,0-.9.38-1.82.38-1.82,0-3.29-1.06-3.29-3.53,0-2.29,1.62-3.53,3.37-3.53.81,0,1.48.36,1.69.36.14,0,.18-.14.25-.27h.16l.05,2.14h-.25c-.27-1.24-.94-1.91-1.85-1.91-1.31,0-2.03.86-2.03,3.21Z"/>
          <path class="cls-1" d="M39.87,60.57l.18,3.48h-.43c-.36-2.68-1.42-2.95-3.66-2.95h-1.62v5.51h1.03c1.46,0,1.84-.43,2.12-2.3h.38v5.33h-.41c-.32-1.98-.61-2.45-2.27-2.45h-.85v5.47h2.32v.52h-5.64v-.52h1.42v-11.56h-1.42v-.52h8.84Z"/>
          <path class="cls-1" d="M44.42,64.61v8.1h1.37v.47h-4.45v-.47h1.35v-7.63h-1.35v-.47h3.08ZM43.41,60.59c.63,0,1.1.31,1.1,1.06,0,.65-.38,1.1-1.08,1.1-.83,0-1.1-.56-1.1-1.1,0-.58.38-1.06,1.08-1.06Z"/>
          <path class="cls-1" d="M49.68,59.67v13.04h1.35v.47h-4.43v-.47h1.35v-12.57h-1.35v-.47h3.08Z"/>
          <path class="cls-1" d="M56.28,64.43c2.27,0,3.4,1.39,3.29,4.11h-5.58v.25c0,2.59.59,3.96,2.56,3.96,1.46,0,2.27-.92,2.54-2.2l.52.07c-.31,1.48-1.21,2.74-3.49,2.74-2.77,0-4.01-1.75-4.01-4.38,0-3.15,1.78-4.56,4.18-4.56ZM57.78,68.05c.11-1.96-.29-3.19-1.66-3.19s-1.98,1.13-2.11,3.19h3.76Z"/>
          <path class="cls-1" d="M63.66,68.32v4.39h1.91v.47h-4.99v-.47h1.35v-7.63h-1.35v-.47h3.08v1.73c.36-1.28,1.19-1.91,2.21-1.91,1.12,0,1.82.68,1.82,1.64,0,1.04-.56,1.4-1.15,1.4s-1.01-.41-1.01-1.13c0-.16.02-.32.05-.49h.56c.04-.11.04-.22.04-.29,0-.38-.29-.45-.58-.45-1.04,0-1.94,1.58-1.94,3.2Z"/>
          <path class="cls-1" d="M78.42,71.79c-.58.92-1.4,1.57-2.83,1.57-2.12,0-3.49-1.46-3.49-4.38s1.48-4.56,3.8-4.56c1.26,0,2.04.5,2.52,1.26v-5.55h-1.69v-.47h3.42v13.04h1.46v.47h-3.04l-.14-1.39ZM78.48,70.14v-2.83c0-.99-.86-2.32-2.27-2.32-1.55,0-2.21,1.3-2.21,3.92,0,2.3.41,3.76,2,3.76,1.26,0,2.48-1.01,2.48-2.54Z"/>
          <path class="cls-1" d="M86.69,64.43c2.27,0,3.4,1.39,3.29,4.11h-5.58v.25c0,2.59.59,3.96,2.56,3.96,1.46,0,2.27-.92,2.54-2.2l.52.07c-.31,1.48-1.21,2.74-3.49,2.74-2.77,0-4.01-1.75-4.01-4.38,0-3.15,1.78-4.56,4.18-4.56ZM88.18,68.05c.11-1.96-.29-3.19-1.66-3.19s-1.98,1.13-2.11,3.19h3.76Z"/>
          <path class="cls-1" d="M91.22,70.37h.47c.11,1.62,1.48,2.4,2.92,2.4,1.51,0,2.14-.59,2.14-1.62,0-1.15-1.12-1.37-2.34-1.58-1.44-.25-3.03-.52-3.03-2.41,0-1.49,1.17-2.72,2.97-2.72.76,0,1.21.16,1.76.41.13.05.38.13.5.13.18,0,.22-.2.25-.58h.4v2.67h-.45c-.32-1.42-1.21-2.12-2.47-2.12-1.13,0-1.95.5-1.95,1.39,0,1.1,1.1,1.28,2.3,1.49,1.44.27,3.03.61,3.03,2.74,0,1.62-1.13,2.81-3.15,2.81-1.03,0-1.78-.27-2.39-.61-.11-.07-.2-.11-.27-.11-.16,0-.22.14-.31.72h-.4v-2.99Z"/>
          <path class="cls-1" d="M101.82,64.61v8.1h1.37v.47h-4.45v-.47h1.35v-7.63h-1.35v-.47h3.08ZM100.81,60.59c.63,0,1.1.31,1.1,1.06,0,.65-.38,1.1-1.08,1.1-.83,0-1.1-.56-1.1-1.1,0-.58.38-1.06,1.08-1.06Z"/>
          <path class="cls-1" d="M111.49,63.58c-.04-.25-.18-.4-.45-.4-.34,0-.83.45-.83,1.49,0,.18.02.4.05.63.49.52.79,1.12.79,2.05,0,1.85-1.22,3.06-3.19,3.06-.45,0-.9-.05-1.26-.13-.67.45-1.12.86-1.12,1.08,0,.2.14.29.65.29h2.47c2.07,0,3.6.43,3.6,2.65,0,1.95-1.22,3.37-4.9,3.37-2.48,0-3.73-.77-3.73-2.11,0-.97.72-1.31,1.33-1.44l.47.38c-.14.29-.2.65-.2.9,0,1.04.74,1.8,2.65,1.8,2.3,0,3.47-.95,3.47-2.32,0-1.15-.81-1.57-2.61-1.57h-2.32c-1.28,0-1.82-.5-1.82-1.22,0-.61.5-1.13,1.55-1.94-1.15-.45-1.58-1.42-1.58-2.67,0-1.57,1.04-3.06,3.44-3.06.72,0,1.35.18,1.89.56-.02-.13-.02-.23-.02-.36,0-1.13.63-2.05,1.76-2.05.68,0,1.19.41,1.19,1.08,0,.47-.34.85-.86.85-.41,0-.72-.27-.81-.49l.38-.43ZM107.85,69.96c.88,0,1.5-.56,1.5-2.52s-.5-2.58-1.51-2.58c-.94,0-1.57.59-1.57,2.59s.58,2.5,1.58,2.5Z"/>
          <path class="cls-1" d="M116.08,64.61v1.69c.41-.88,1.35-1.87,3.17-1.87,1.66,0,2.66.83,2.66,3.01v5.28h1.37v.47h-4.45v-.47h1.35v-5.56c0-1.33-.32-2.07-1.44-2.07-1.4,0-2.66,1.19-2.66,2.86v4.77h1.37v.47h-4.45v-.47h1.35v-7.63h-1.35v-.47h3.08Z"/>
          <path class="cls-1" d="M134.58,68.98h-4.09l-1.33,3.67h1.64v.52h-3.62v-.52h1.26l4.57-12.28h.49l4.41,12.28h1.24v.52h-4.9v-.52h1.58l-1.26-3.67ZM130.68,68.46h3.73l-1.8-5.4-1.93,5.4Z"/>
          <path class="cls-1" d="M142.68,59.67v13.04h1.35v.47h-4.43v-.47h1.35v-12.57h-1.35v-.47h3.08Z"/>
          <path class="cls-1" d="M148.01,59.67v13.04h1.35v.47h-4.43v-.47h1.35v-12.57h-1.35v-.47h3.08Z"/>
          <path class="cls-1" d="M156.92,68.32v4.39h1.91v.47h-4.99v-.47h1.35v-7.63h-1.35v-.47h3.08v1.73c.36-1.28,1.19-1.91,2.21-1.91,1.12,0,1.82.68,1.82,1.64,0,1.04-.56,1.4-1.15,1.4s-1.01-.41-1.01-1.13c0-.16.02-.32.05-.49h.56c.04-.11.04-.22.04-.29,0-.38-.29-.45-.58-.45-1.04,0-1.94,1.58-1.94,3.2Z"/>
          <path class="cls-1" d="M164.71,64.61v8.1h1.37v.47h-4.45v-.47h1.35v-7.63h-1.35v-.47h3.08ZM163.71,60.59c.63,0,1.1.31,1.1,1.06,0,.65-.38,1.1-1.08,1.1-.83,0-1.1-.56-1.1-1.1,0-.58.38-1.06,1.08-1.06Z"/>
          <path class="cls-1" d="M174.38,63.58c-.04-.25-.18-.4-.45-.4-.34,0-.83.45-.83,1.49,0,.18.02.4.05.63.49.52.79,1.12.79,2.05,0,1.85-1.22,3.06-3.19,3.06-.45,0-.9-.05-1.26-.13-.67.45-1.12.86-1.12,1.08,0,.2.14.29.65.29h2.47c2.07,0,3.6.43,3.6,2.65,0,1.95-1.22,3.37-4.9,3.37-2.49,0-3.73-.77-3.73-2.11,0-.97.72-1.31,1.33-1.44l.47.38c-.14.29-.2.65-.2.9,0,1.04.74,1.8,2.65,1.8,2.3,0,3.48-.95,3.48-2.32,0-1.15-.81-1.57-2.61-1.57h-2.32c-1.28,0-1.82-.5-1.82-1.22,0-.61.5-1.13,1.55-1.94-1.15-.45-1.58-1.42-1.58-2.67,0-1.57,1.04-3.06,3.44-3.06.72,0,1.35.18,1.89.56-.02-.13-.02-.23-.02-.36,0-1.13.63-2.05,1.76-2.05.68,0,1.19.41,1.19,1.08,0,.47-.34.85-.86.85-.41,0-.72-.27-.81-.49l.38-.43ZM170.74,69.96c.88,0,1.49-.56,1.49-2.52s-.5-2.58-1.51-2.58c-.94,0-1.57.59-1.57,2.59s.58,2.5,1.58,2.5Z"/>
          <path class="cls-1" d="M178.97,59.67v6.63c.41-.88,1.35-1.87,3.17-1.87,1.66,0,2.67.83,2.67,3.01v5.28h1.37v.47h-4.45v-.47h1.35v-5.46c0-1.5-.32-2.18-1.46-2.18-1.39,0-2.65,1.19-2.65,2.86v4.77h1.37v.47h-4.45v-.47h1.35v-12.57h-1.35v-.47h3.08Z"/>
          <path class="cls-1" d="M188.19,65.08h-1.35v-.47h1.35v-2.32l1.73-.47v2.79h2.52v.47h-2.52v5.92c0,1.06.27,1.51,1.21,1.51.99,0,1.42-.68,1.58-1.91l.41.05c-.16,1.4-.68,2.7-2.61,2.7-1.35,0-2.32-.52-2.32-2.14v-6.14Z"/>
          <path class="cls-1" d="M194.23,70.37h.47c.11,1.62,1.48,2.4,2.92,2.4,1.51,0,2.14-.59,2.14-1.62,0-1.15-1.12-1.37-2.34-1.58-1.44-.25-3.03-.52-3.03-2.41,0-1.49,1.17-2.72,2.97-2.72.76,0,1.21.16,1.76.41.13.05.38.13.5.13.18,0,.22-.2.25-.58h.4v2.67h-.45c-.32-1.42-1.21-2.12-2.47-2.12-1.13,0-1.95.5-1.95,1.39,0,1.1,1.1,1.28,2.3,1.49,1.44.27,3.03.61,3.03,2.74,0,1.62-1.13,2.81-3.15,2.81-1.03,0-1.78-.27-2.39-.61-.11-.07-.2-.11-.27-.11-.16,0-.22.14-.31.72h-.4v-2.99Z"/>
          <path class="cls-1" d="M208.36,68.32v4.39h1.91v.47h-4.99v-.47h1.35v-7.63h-1.35v-.47h3.08v1.73c.36-1.28,1.19-1.91,2.21-1.91,1.12,0,1.82.68,1.82,1.64,0,1.04-.56,1.4-1.15,1.4s-1.01-.41-1.01-1.13c0-.16.02-.32.05-.49h.56c.04-.11.04-.22.04-.29,0-.38-.29-.45-.58-.45-1.04,0-1.94,1.58-1.94,3.2Z"/>
          <path class="cls-1" d="M217.38,64.43c2.27,0,3.4,1.39,3.29,4.11h-5.58v.25c0,2.59.59,3.96,2.56,3.96,1.46,0,2.27-.92,2.54-2.2l.52.07c-.31,1.48-1.21,2.74-3.49,2.74-2.77,0-4.02-1.75-4.02-4.38,0-3.15,1.78-4.56,4.18-4.56ZM218.88,68.05c.11-1.96-.29-3.19-1.66-3.19s-1.98,1.13-2.11,3.19h3.76Z"/>
          <path class="cls-1" d="M221.92,70.37h.47c.11,1.62,1.48,2.4,2.92,2.4,1.51,0,2.14-.59,2.14-1.62,0-1.15-1.12-1.37-2.34-1.58-1.44-.25-3.02-.52-3.02-2.41,0-1.49,1.17-2.72,2.97-2.72.76,0,1.21.16,1.76.41.13.05.38.13.5.13.18,0,.22-.2.25-.58h.4v2.67h-.45c-.32-1.42-1.21-2.12-2.47-2.12-1.13,0-1.94.5-1.94,1.39,0,1.1,1.1,1.28,2.3,1.49,1.44.27,3.02.61,3.02,2.74,0,1.62-1.13,2.81-3.15,2.81-1.03,0-1.78-.27-2.39-.61-.11-.07-.2-.11-.27-.11-.16,0-.22.14-.31.72h-.4v-2.99Z"/>
          <path class="cls-1" d="M233.74,64.43c2.27,0,3.4,1.39,3.29,4.11h-5.58v.25c0,2.59.59,3.96,2.56,3.96,1.46,0,2.27-.92,2.54-2.2l.52.07c-.31,1.48-1.21,2.74-3.49,2.74-2.77,0-4.02-1.75-4.02-4.38,0-3.15,1.78-4.56,4.18-4.56ZM235.24,68.05c.11-1.96-.29-3.19-1.66-3.19s-1.98,1.13-2.11,3.19h3.76Z"/>
          <path class="cls-1" d="M241.12,68.32v4.39h1.91v.47h-4.99v-.47h1.35v-7.63h-1.35v-.47h3.08v1.73c.36-1.28,1.19-1.91,2.21-1.91,1.12,0,1.82.68,1.82,1.64,0,1.04-.56,1.4-1.15,1.4s-1.01-.41-1.01-1.13c0-.16.02-.32.05-.49h.56c.04-.11.04-.22.04-.29,0-.38-.29-.45-.58-.45-1.04,0-1.94,1.58-1.94,3.2Z"/>
          <path class="cls-1" d="M245.33,64.61h4.21v.47h-1.48l2.32,6.01,2.25-6.01h-1.42v-.47h3.04v.47h-.9l-3.26,8.28h-.47l-3.49-8.28h-.81v-.47Z"/>
          <path class="cls-1" d="M259.07,64.43c2.27,0,3.4,1.39,3.29,4.11h-5.58v.25c0,2.59.59,3.96,2.56,3.96,1.46,0,2.27-.92,2.54-2.2l.52.07c-.31,1.48-1.21,2.74-3.49,2.74-2.77,0-4.02-1.75-4.02-4.38,0-3.15,1.78-4.56,4.18-4.56ZM260.56,68.05c.11-1.96-.29-3.19-1.66-3.19s-1.98,1.13-2.11,3.19h3.76Z"/>
          <path class="cls-1" d="M269.89,71.79c-.58.92-1.4,1.57-2.83,1.57-2.12,0-3.49-1.46-3.49-4.38s1.48-4.56,3.8-4.56c1.26,0,2.04.5,2.52,1.26v-5.55h-1.69v-.47h3.42v13.04h1.46v.47h-3.04l-.14-1.39ZM269.94,70.14v-2.83c0-.99-.86-2.32-2.27-2.32-1.55,0-2.21,1.3-2.21,3.92,0,2.3.41,3.76,2,3.76,1.26,0,2.48-1.01,2.48-2.54Z"/>
        </g>
      </g>
    </g>
  </g>
</svg>