<?xml version="1.0" encoding="UTF-8"?>
<svg id="_レイヤー_2" data-name="レイヤー 2" xmlns="http://www.w3.org/2000/svg" viewBox="0 0 238.78 41.32">
  <defs>
    <style>
      .cls-1 {
        fill: #fff;
      }
    </style>
  </defs>
  <g id="_固定" data-name="固定">
    <g>
      <path class="cls-1" d="M7.43,19.19l-2.36,11.81c-.22,1.08-.33,1.78-.33,2.1s.07.66.22,1.03c-1.15.58-2.2.87-3.16.87-.59,0-.89-.24-.89-.72,0-.25.11-.96.34-2.12l2.58-12.97h-.26c-1.03,0-2.13.25-3.32.73.56-1.21,1.05-1.98,1.48-2.33.43-.35,1.11-.52,2.04-.52h.46l2.05-10.22h-.38c-2.48,0-4.46.68-5.93,2.03.44-1.8,1.21-3,2.31-3.61.78-.42,3.18-.63,7.21-.63h4.49c3.35,0,6.13-.3,8.36-.89-.71,1.24-1.44,2.07-2.21,2.49-.77.42-1.95.62-3.55.62l-1.5-.02h-5.23l-2.03,10.22h3.69c2.29,0,4.18-.29,5.67-.87-.55,1.29-1.18,2.11-1.89,2.46-.71.35-2.11.53-4.2.53h-3.69Z"/>
      <path class="cls-1" d="M41.53,15.96c-2.57,4.51-5.18,8.04-7.81,10.59s-5,3.82-7.09,3.82c-1.28,0-2.3-.42-3.08-1.25-.78-.83-1.17-1.93-1.17-3.28,0-.51.11-1.33.34-2.44l.38-1.88c.56-2.71.84-4.62.84-5.71,0-.65-.19-1.18-.58-1.59,1.48-.34,2.41-.51,2.79-.51.84,0,1.26.59,1.26,1.78,0,.88-.17,2.13-.5,3.77l-.67,3.33c-.33,1.6-.5,2.65-.5,3.12,0,1.41.6,2.12,1.79,2.12,1.42,0,3.32-1.2,5.69-3.59,2.37-2.4,4.67-5.43,6.89-9.11l1.42.84ZM26.32,7.35l.24.02c.76-.03,1.86-.42,3.29-1.15s2.55-1.49,3.36-2.25c-.5,1.57-1.39,2.89-2.67,3.95-1.94,1.62-3.25,2.43-3.93,2.43-.46,0-.68-.28-.68-.84,0-.8.13-1.51.39-2.15Z"/>
      <path class="cls-1" d="M55.73,16.01c-2.36,4.48-4.73,7.99-7.11,10.54-2.38,2.55-4.49,3.82-6.32,3.82-1.33,0-2.41-.52-3.23-1.55s-1.23-2.38-1.23-4.04c0-.93.17-2.26.51-3.96l3.4-17.12c-.44.07-.83.1-1.16.1-2.62,0-3.93-1.09-3.93-3.28V.12c1.37.77,2.91,1.16,4.63,1.16s3.22-.43,4.51-1.28l-3.96,20.56c-.35,1.85-.53,3.12-.53,3.81,0,1.93.71,2.89,2.12,2.89s2.74-.77,4.13-2.32c1.38-1.54,3.65-4.83,6.81-9.87l1.37.94Z"/>
      <path class="cls-1" d="M54.45,22.83c0,3.33,1.41,5,4.24,5,2.45,0,5.15-1.17,8.1-3.5,2.95-2.33,5.61-5.4,7.98-9.21l1.45.8c-2.23,4.17-5.14,7.62-8.71,10.35-3.57,2.73-6.96,4.1-10.16,4.1-2.05,0-3.67-.66-4.86-1.98-1.19-1.32-1.79-3.13-1.79-5.42,0-3.3,1.08-6.13,3.24-8.48,2.16-2.35,4.76-3.52,7.8-3.52,1.47,0,2.65.37,3.53,1.11.88.74,1.32,1.73,1.32,2.97,0,2.04-1.23,3.84-3.68,5.42-2.46,1.57-5.28,2.36-8.47,2.36ZM54.58,21.19c2.38-.12,4.42-.81,6.13-2.05,1.7-1.24,2.55-2.67,2.55-4.29,0-1.45-.65-2.18-1.95-2.18-1.55,0-2.98.83-4.29,2.49-1.31,1.66-2.12,3.67-2.44,6.03Z"/>
      <path class="cls-1" d="M75.64,29.82c-.78.36-1.4.55-1.87.55-1.17,0-1.75-.51-1.75-1.54,0-.52.21-1.83.62-3.91l.85-4.26c.52-2.53.79-4.4.79-5.62,0-.66-.19-1.21-.56-1.66,1.2-.41,2.17-.62,2.92-.62.8,0,1.2.51,1.2,1.52,0,.63-.28,2.27-.85,4.94l-.97,4.97c2.15-4.18,4.32-7.43,6.5-9.75,2.18-2.32,4.16-3.48,5.93-3.48.63,0,1.17.18,1.62.54.46.36.68.79.68,1.31,0,.8-.87,1.86-2.6,3.18-.43-.9-1.05-1.35-1.84-1.35-1.45,0-3.29,1.54-5.53,4.61-1.39,1.91-2.59,3.89-3.62,5.92-1.02,2.03-1.54,3.48-1.54,4.35l.02.29Z"/>
      <path class="cls-1" d="M116.67,19.94c-1.78,3.2-3.64,5.74-5.58,7.61-1.94,1.87-3.68,2.81-5.2,2.81-1.22,0-2.19-.53-2.91-1.6-.72-1.06-1.08-2.49-1.08-4.28,0-3.6,1.07-6.75,3.21-9.46,2.14-2.71,4.63-4.06,7.47-4.06,1.7,0,3.55.54,5.55,1.62l1.83-9.2c-1,.21-1.83.31-2.5.31-1,0-1.74-.24-2.2-.71-.47-.48-.84-1.37-1.13-2.67.82.56,2.08.84,3.78.84,2.11,0,4.14-.39,6.1-1.16l-3.73,18.73c-.42,2.1-.63,3.88-.63,5.35,0,1.96.56,2.94,1.67,2.94s2.91-1.28,5.46-3.85c2.55-2.56,4.67-5.25,6.37-8.05l1.4.89c-2.03,3.71-4.56,7.04-7.6,9.96-3.04,2.93-5.46,4.39-7.27,4.39-2.3,0-3.45-1.85-3.45-5.54,0-1.53.14-3.16.43-4.89ZM117.58,15.42c-2.37-1.56-4.34-2.34-5.91-2.34-1.71,0-3.19,1.05-4.43,3.14-1.25,2.1-1.87,4.57-1.87,7.43,0,2.3.75,3.45,2.26,3.45,1.62,0,4.73-3.58,9.33-10.73.08-.12.29-.44.63-.96Z"/>
      <path class="cls-1" d="M133.27,22.83c0,3.33,1.41,5,4.24,5,2.45,0,5.15-1.17,8.1-3.5,2.95-2.33,5.61-5.4,7.98-9.21l1.45.8c-2.23,4.17-5.14,7.62-8.71,10.35-3.57,2.73-6.96,4.1-10.16,4.1-2.05,0-3.67-.66-4.86-1.98-1.19-1.32-1.79-3.13-1.79-5.42,0-3.3,1.08-6.13,3.24-8.48,2.16-2.35,4.76-3.52,7.8-3.52,1.47,0,2.65.37,3.53,1.11.88.74,1.32,1.73,1.32,2.97,0,2.04-1.23,3.84-3.68,5.42-2.46,1.57-5.28,2.36-8.47,2.36ZM133.4,21.19c2.38-.12,4.42-.81,6.13-2.05,1.7-1.24,2.55-2.67,2.55-4.29,0-1.45-.65-2.18-1.95-2.18-1.55,0-2.98.83-4.29,2.49-1.31,1.66-2.12,3.67-2.44,6.03Z"/>
      <path class="cls-1" d="M160.46,23.93c.39.87.58,1.69.58,2.48,0,1.74-.73,3.26-2.19,4.55-1.46,1.29-3.17,1.94-5.13,1.94-1.15,0-2.13-.3-2.94-.89-.81-.59-1.21-1.3-1.21-2.14,0-.89.56-1.79,1.67-2.7,1.11-.91,2.97-1.99,5.58-3.25l-1.37-2.2c-1.66-2.68-2.49-4.77-2.49-6.27,0-2.16,1.26-3.91,3.78-5.23,1.55.59,2.32,1.34,2.32,2.24,0,1.28-.99,2.5-2.96,3.67l1.95,3.59,1.52,2.77c2.18-1.3,3.82-2.41,4.92-3.34,1.1-.93,2.5-2.36,4.19-4.3l1.37.84c-2.45,3.28-5.65,6.03-9.59,8.24ZM157.55,25.46c-3.35,1.8-5.02,3.2-5.02,4.19,0,.93.68,1.4,2.03,1.4,1,0,1.82-.34,2.44-1.02.63-.68.94-1.55.94-2.62,0-.64-.13-1.29-.39-1.95Z"/>
      <path class="cls-1" d="M185.58,15.96c-2.57,4.51-5.18,8.04-7.81,10.59s-5,3.82-7.09,3.82c-1.28,0-2.3-.42-3.08-1.25-.78-.83-1.17-1.93-1.17-3.28,0-.51.11-1.33.34-2.44l.38-1.88c.56-2.71.84-4.62.84-5.71,0-.65-.19-1.18-.58-1.59,1.48-.34,2.41-.51,2.79-.51.84,0,1.26.59,1.26,1.78,0,.88-.17,2.13-.5,3.77l-.67,3.33c-.33,1.6-.5,2.65-.5,3.12,0,1.41.6,2.12,1.79,2.12,1.42,0,3.32-1.2,5.69-3.59,2.37-2.4,4.67-5.43,6.89-9.11l1.42.84ZM170.37,7.35l.24.02c.76-.03,1.86-.42,3.29-1.15s2.55-1.49,3.36-2.25c-.5,1.57-1.39,2.89-2.67,3.95-1.94,1.62-3.25,2.43-3.93,2.43-.46,0-.68-.28-.68-.84,0-.8.13-1.51.39-2.15Z"/>
      <path class="cls-1" d="M194.81,19.67c-1.1,2.28-2.71,4.28-4.8,6-2.1,1.72-3.98,2.58-5.64,2.58-1.24,0-2.26-.42-3.04-1.26-.79-.84-1.18-1.94-1.18-3.28,0-3.14,1.2-6.05,3.59-8.72s5-4.01,7.83-4.01c1.46,0,3.03.42,4.72,1.25.23-1.09.56-1.78.99-2.07.43-.28,1.53-.52,3.3-.7-.89,1.79-1.74,6.05-2.55,12.78l-.22,1.74c4.89-2.94,8.66-5.94,11.31-9.01l1.44.91c-2.51,3.27-6.8,6.84-12.87,10.7-.03.44-.06.77-.07.99-.17,2.86-.47,4.97-.91,6.32-.43,1.36-1.21,2.64-2.34,3.86-2.21,2.38-4.9,3.57-8.07,3.57-1.7,0-3.08-.4-4.14-1.21-1.06-.8-1.59-1.84-1.59-3.12s.46-2.33,1.38-3.26c.92-.93,2.64-2.07,5.17-3.42,1.67-.88,4.04-2.19,7.09-3.93l.6-6.72ZM195.68,15.23c-1.48-1.57-3.11-2.36-4.89-2.36s-3.28,1.06-4.77,3.17c-1.49,2.11-2.24,4.36-2.24,6.74,0,1.69.62,2.53,1.86,2.53s2.81-1.01,4.81-3.02c2-2.01,3.74-4.37,5.22-7.07ZM194.04,28.66c-.66.4-2,1.16-4.02,2.29-3.94,2.22-5.91,4.18-5.91,5.88,0,.75.32,1.37.96,1.86.64.49,1.45.73,2.44.73,4.35,0,6.53-3.59,6.53-10.77Z"/>
      <path class="cls-1" d="M211.49,23.81c4.04-8.56,7.68-12.83,10.9-12.83,2.52,0,3.78,2.51,3.78,7.52l.03,2.07c0,2.39.12,4.05.37,4.96.25.92.69,1.38,1.34,1.38.98,0,2.09-.78,3.34-2.34,1.25-1.56,3.28-4.7,6.09-9.42l1.44.84c-2.51,4.73-4.75,8.24-6.73,10.53s-3.76,3.44-5.33,3.44c-1.45,0-2.46-.7-3.05-2.1s-.88-3.83-.88-7.28l-.02-1.47c0-1.87-.12-3.18-.36-3.94s-.66-1.14-1.25-1.14c-1.5,0-3.92,3-7.26,9.01-.82,1.47-1.35,2.42-1.59,2.84-.88,1.53-1.32,2.63-1.32,3.32,0,.27.07.54.22.79-.66.27-1.22.41-1.68.41-1.15,0-1.73-.64-1.73-1.91,0-.36.15-2,.44-4.92l.38-3.71c.17-1.57.26-2.79.26-3.66,0-1.21-.27-2.16-.82-2.85.24-.08.64-.22,1.2-.41.71-.25,1.27-.38,1.69-.38.89,0,1.33.65,1.33,1.95,0,.68-.09,1.86-.26,3.52-.04.36-.07.71-.1,1.04l-.44,4.77Z"/>
    </g>
  </g>
</svg>