<?xml version="1.0" encoding="UTF-8"?>
<svg id="_レイヤー_2" data-name="レイヤー 2" xmlns="http://www.w3.org/2000/svg" viewBox="0 0 120 120">
  <defs>
    <style>
      .cls-1 {
        fill: none;
        stroke: #fffcee;
        stroke-width: 6px;
      }

      .cls-1, .cls-2 {
        stroke-miterlimit: 10;
      }

      .cls-3 {
        fill: #05c87a;
      }

      .cls-4, .cls-2 {
        fill: #fffcee;
      }

      .cls-2 {
        stroke: #05c87a;
        stroke-width: 1.09px;
      }
    </style>
  </defs>
  <g id="ABOUTページ">
    <g>
      <circle class="cls-3" cx="60" cy="60" r="60"/>
      <path class="cls-4" d="M33.41,37.59h43.85v55.98c0,1.76-1.43,3.18-3.18,3.18h-37.49c-1.76,0-3.18-1.43-3.18-3.18v-55.98h0Z"/>
      <rect class="cls-1" x="61.32" y="51.44" width="26.82" height="23.33" rx="5.44" ry="5.44"/>
      <g>
        <circle class="cls-3" cx="44.24" cy="70.56" r="1.42"/>
        <circle class="cls-3" cx="49.65" cy="59.17" r="1.67"/>
        <circle class="cls-3" cx="57.92" cy="66.95" r="1.67"/>
        <circle class="cls-3" cx="56.92" cy="85.02" r="1.12"/>
        <circle class="cls-3" cx="48" cy="89.69" r="1.12"/>
        <circle class="cls-3" cx="52.61" cy="76.58" r="1.3"/>
      </g>
      <rect class="cls-4" x="35.91" y="37.38" width="38.85" height="12.6"/>
      <path class="cls-2" d="M82.35,33.07c0-3.72-3.28-6.83-7.64-7.52-1.65-2.27-4.7-3.79-8.19-3.79-1.01,0-1.98.13-2.89.36-1.72-1.95-4.54-3.22-7.74-3.22-3.38,0-6.35,1.43-8.03,3.58-.25-.02-.51-.02-.77-.02-3.55,0-6.64,1.57-8.27,3.9-5.24,0-9.49,3.44-9.49,7.67,0,3.06,2.21,5.7,5.42,6.93,1.74,1.57,4.27,2.56,7.08,2.56.98,0,1.92-.12,2.8-.34,1.66,2.23,4.68,3.72,8.14,3.72,2.89,0,5.49-1.05,7.23-2.7.16,0,.33.01.5.01,2.73,0,5.2-.93,6.93-2.43.89.23,1.85.35,2.83.35,2.5,0,4.78-.78,6.48-2.06,3.3-1.2,5.59-3.88,5.59-7Z"/>
    </g>
  </g>
</svg>