<?xml version="1.0" encoding="UTF-8"?>
<svg id="_レイヤー_2" data-name="レイヤー 2" xmlns="http://www.w3.org/2000/svg" viewBox="0 0 120 120">
  <defs>
    <style>
      .cls-1 {
        fill: #05c87a;
      }

      .cls-2 {
        fill: #fffcee;
      }
    </style>
  </defs>
  <g id="ABOUTページ">
    <g>
      <circle class="cls-1" cx="60" cy="60" r="60"/>
      <path class="cls-2" d="M62.13,50.45c-7.62,0-13.83,6.2-13.83,13.83s6.2,13.83,13.83,13.83,13.83-6.2,13.83-13.83-6.2-13.83-13.83-13.83ZM62.13,74.74c-5.77,0-10.47-4.7-10.47-10.47s4.7-10.47,10.47-10.47,10.47,4.7,10.47,10.47-4.7,10.47-10.47,10.47Z"/>
      <path class="cls-2" d="M90.1,39.52h-14.52l-1.26-3.68c-.74-2.18-2.79-3.64-5.09-3.64h-14.21c-2.3,0-4.35,1.46-5.09,3.64l-1.26,3.68h-3.73v-1.81c0-1.4-1.14-2.54-2.54-2.54h-6.46c-1.4,0-2.54,1.14-2.54,2.54v1.81h-3.5c-3.13,0-5.68,2.55-5.68,5.68v36.93c0,3.13,2.55,5.68,5.68,5.68h60.2c3.13,0,5.68-2.55,5.68-5.68v-36.93c0-3.13-2.55-5.68-5.68-5.68ZM62.13,81.3c-9.39,0-17.03-7.64-17.03-17.03s7.64-17.03,17.03-17.03,17.03,7.64,17.03,17.03-7.64,17.03-17.03,17.03ZM90.25,49.24c0,1.4-1.14,2.53-2.53,2.53h-6.51c-1.4,0-2.53-1.14-2.53-2.53v-1.72c0-1.4,1.14-2.53,2.53-2.53h6.51c1.4,0,2.53,1.14,2.53,2.53v1.72Z"/>
    </g>
  </g>
</svg>