<?xml version="1.0" encoding="UTF-8"?>
<svg id="_レイヤー_2" data-name="レイヤー 2" xmlns="http://www.w3.org/2000/svg" viewBox="0 0 848 285">
  <defs>
    <style>
      .cls-1 {
        fill: #76b82a;
      }

      .cls-2 {
        fill: #05c87a;
      }

      .cls-3 {
        fill: #815a2d;
      }

      .cls-4 {
        fill: #ffd63a;
      }

      .cls-5 {
        fill: #fc6349;
      }

      .cls-6 {
        fill: #584531;
      }

      .cls-7 {
        fill: #fcf7e0;
      }
    </style>
  </defs>
  <g id="_ヘッダー" data-name="ヘッダー">
    <g>
      <g>
        <path class="cls-5" d="M15.15,103.3c-7.03,0-11.69-7.45-8.47-13.79L48.69,6.95c2.38-4.67,8.1-6.54,12.78-4.16,4.68,2.37,6.55,8.08,4.17,12.76L23.63,98.1c-1.68,3.3-5.02,5.19-8.48,5.19"/>
        <path class="cls-2" d="M90.7,98.1c2.38,4.67,8.1,6.54,12.78,4.16,4.68-2.37,6.55-8.09,4.17-12.76L65.69,7.05c1.28,2.59,1.36,5.72-.05,8.5l-8.48,16.66,33.53,65.9Z"/>
        <polyline class="cls-4" points="74.37 66.03 39.96 66.03 30.3 85 84.03 85 74.37 66.03"/>
        <path class="cls-5" d="M39.96,66.03h-15.47c-5.25,0-9.51,4.25-9.51,9.49s4.26,9.49,9.51,9.49h5.82l9.66-18.98"/>
        <path class="cls-4" d="M89.86,66.03h-15.49l9.66,18.98h5.83c5.25,0,9.51-4.25,9.51-9.49s-4.26-9.49-9.51-9.49"/>
        <path class="cls-5" d="M178.78,75.57c0,2.08-.54,5.08-3.09,7.56-3.02,2.94-8.1,4.48-14.73,4.48-.37,0-.74,0-1.12-.01-.02,0-.04,0-.06,0-.07,0-.15,0-.22,0-5.11,0-9.33,4.1-9.46,9.25-.13,5.24,4.01,9.6,9.26,9.73.01,0,.03,0,.04,0,.53.01,1.05.02,1.56.02,14.71,0,23.33-5.32,28.01-9.87,5.69-5.54,8.83-13.05,8.83-21.15h-19.01Z"/>
        <path class="cls-2" d="M160.98.18s-.02,0-.03,0c-.13,0-.26,0-.38-.01.07,0,.14-.01.22-.01.22,0,.44,0,.66.02-1.68-.12-3.33-.18-4.93-.18-20.4,0-34.46,9.76-34.97,30.78-.16,6.64,1.96,16.05,13,23.11,5.18,3.31,11.68,5.74,20.47,7.65,0,0,.02,0,.02,0,.02,0,.04,0,.06.01,0,0,0,0,0,0,.66.14,1.31.2,1.96.2,4.38,0,8.32-3.04,9.28-7.48,1.11-5.12-2.15-10.17-7.28-11.28-.01,0-.02,0-.03,0-18.66-4.05-18.65-10.97-18.01-15.94.71-5.48,5.41-8.66,17.77-8.01.49.07.98.11,1.49.11,5.22,0,9.63-3.81,10.01-8.81.4-5.23-3.76-9.77-9.29-10.14h0Z"/>
        <path class="cls-5" d="M160.12,19.11c5,.36,11.4,2.54,19.04,6.49,4.66,2.41,10.4.59,12.81-4.07,2.41-4.65.59-10.38-4.08-12.79C177.81,3.53,169.17.73,161.48.18c-.01,0-.02,0-.03,0-.22-.02-.44-.02-.66-.02l-.67,18.95Z"/>
        <path class="cls-2" d="M159.02,42.98s.02,0,.03,0c5.13,1.11,8.39,6.16,7.28,11.28-.96,4.44-4.9,7.48-9.28,7.48-.65,0-1.3-.07-1.96-.2,0,0,0,0,0,0,23.69,4.93,23.69,11.54,23.69,14.02h0c0-5.24,4.26-9.49,9.51-9.49s9.51,4.25,9.51,9.49c0-6.56-2.23-15.88-12.88-23.03-6.12-4.11-14.35-7.15-25.9-9.56M155,61.53s.06.01.08.02c-.02,0-.04,0-.06-.01,0,0-.02,0-.02,0"/>
        <path class="cls-4" d="M119.8,81.01c-2.88,4.38-1.65,10.27,2.74,13.14,9.03,5.91,20.47,12.01,36.81,12.43.01,0,.03,0,.04,0-.01,0-.03,0-.04,0l.43-18.97c-11.52-.31-19.7-4.66-26.82-9.32-4.4-2.88-10.29-1.64-13.16,2.73h0Z"/>
        <path class="cls-5" d="M188.29,66.08c-5.25,0-9.51,4.25-9.51,9.49h0c0,5.24,4.26,9.49,9.51,9.49s9.51-4.25,9.51-9.49h0c0-5.24-4.26-9.49-9.51-9.49"/>
        <path class="cls-2" d="M159.56,87.6c-5.11,0-9.33,4.1-9.46,9.25-.13,5.24,4.01,9.6,9.26,9.73.01,0,.03,0,.04,0,.07,0,.14,0,.21,0,5.14,0,9.37-4.09,9.5-9.25.13-5.24-4.01-9.6-9.26-9.73-.02,0-.04,0-.06,0-.08,0-.15,0-.22,0"/>
        <path class="cls-5" d="M157.03,42.77c-4.41,0-8.36,3.08-9.29,7.55-1.07,5.1,2.18,10.1,7.27,11.21,0,0,.02,0,.02,0,.02,0,.04,0,.06.01,0,0,0,0,0,0,.66.14,1.31.2,1.96.2,4.38,0,8.32-3.04,9.28-7.48,1.11-5.12-2.15-10.17-7.28-11.28-.01,0-.02,0-.03,0-.01,0-.03,0-.04,0-.65-.14-1.31-.2-1.95-.2"/>
        <path class="cls-4" d="M160.78.16c-4.94,0-9.11,3.82-9.47,8.81-.39,5.48,3.95,10.17,9.49,10.17,4.94,0,9.11-3.81,9.47-8.81.38-5.23-3.56-9.77-8.8-10.14-.01,0-.02,0-.03,0-.22-.02-.44-.02-.66-.02"/>
        <path class="cls-5" d="M223.5,74.4c-5.25,0-9.51-4.25-9.51-9.49V11.61c0-5.24,4.26-9.49,9.51-9.49s9.51,4.25,9.51,9.49v53.3c0,5.24-4.26,9.49-9.51,9.49Z"/>
        <path class="cls-4" d="M292.88,74.4c-5.25,0-9.51-4.25-9.51-9.49V11.61c0-5.24,4.26-9.49,9.51-9.49s9.51,4.25,9.51,9.49v53.3c0,5.24-4.26,9.49-9.51,9.49Z"/>
        <path class="cls-2" d="M258.13,105.23c-23.92,0-44.13-18.46-44.13-40.32,0-5.24,4.26-9.49,9.51-9.49s9.51,4.25,9.51,9.49c0,11.37,11.74,21.34,25.12,21.34s25.24-9.64,25.24-21.34c0-5.24,4.26-9.49,9.51-9.49s9.51,4.25,9.51,9.49c0,21.86-20.27,40.32-44.26,40.32Z"/>
        <path class="cls-4" d="M223.5,55.42c-5.25,0-9.51,4.25-9.51,9.49h0c0,5.24,4.26,9.49,9.51,9.49s9.51-4.25,9.51-9.49h0c0-5.24-4.26-9.49-9.51-9.49"/>
        <path class="cls-5" d="M292.88,55.42c-5.25,0-9.51,4.25-9.51,9.49h0c0,5.24,4.26,9.49,9.51,9.49s9.51-4.25,9.51-9.49h0c0-5.24-4.26-9.49-9.51-9.49"/>
        <path class="cls-5" d="M323.19,11.69v82.06c0,5.24,4.26,9.49,9.51,9.49s9.51-4.25,9.51-9.49V11.19l-19.01.5Z"/>
        <path class="cls-4" d="M325.45,17.33l16.76,19.72,53.36,62.79s-.06-.09-.1-.13c1.87,2.27,4.18,3.01,3.4,2.65,9.26,4.26,17.75-7.09,11.24-14.76l-16.76-19.72-53.31-62.74-14.59,12.17Z"/>
        <path class="cls-2" d="M412.36,92.86V11.19c0-5.24-4.26-9.49-9.51-9.49s-9.51,4.25-9.51,9.49v82.56c0,6.91,6.77,9.19,5.52,8.62,7.28,3.35,14.07-2.94,13.49-9.51h0Z"/>
        <path class="cls-4" d="M436.07,103.3c-7.03,0-11.69-7.45-8.47-13.79L469.61,6.95c2.38-4.67,8.1-6.54,12.78-4.16,4.68,2.37,6.55,8.08,4.17,12.76l-42.01,82.56c-1.68,3.3-5.02,5.19-8.48,5.19"/>
        <path class="cls-2" d="M511.62,98.1c2.38,4.67,8.1,6.54,12.78,4.16,4.68-2.37,6.55-8.09,4.17-12.76L486.61,7.05c1.28,2.59,1.36,5.72-.05,8.5l-8.48,16.66,33.53,65.9Z"/>
        <path class="cls-2" d="M478.08,1.76c-7.06,0-11.69,7.46-8.47,13.79l8.48,16.66,8.48-16.66c3.25-6.39-1.5-13.79-8.48-13.79"/>
        <polyline class="cls-5" points="495.3 66.03 460.88 66.03 451.22 85 504.95 85 495.3 66.03"/>
        <path class="cls-4" d="M460.88,66.03h-15.47c-5.25,0-9.51,4.25-9.51,9.49s4.26,9.49,9.51,9.49h5.82l9.66-18.98"/>
        <path class="cls-5" d="M510.78,66.03h-15.49l9.66,18.98h5.83c5.25,0,9.51-4.25,9.51-9.49s-4.26-9.49-9.51-9.49"/>
        <path class="cls-5" d="M402.85,1.71c-5.25,0-9.51,4.25-9.51,9.49s4.26,9.49,9.51,9.49h0c5.25,0,9.51-4.25,9.51-9.49,0-5.24-4.26-9.49-9.51-9.49h0"/>
        <path class="cls-2" d="M332.7,84.26c-5.25,0-9.51,4.25-9.51,9.49s4.26,9.49,9.51,9.49h0c5.25,0,9.51-4.25,9.51-9.49,0-5.24-4.26-9.49-9.51-9.49h0"/>
        <path class="cls-2" d="M15.15,84.32c-5.25,0-9.51,4.25-9.51,9.49h0c0,5.24,4.26,9.49,9.51,9.49s9.51-4.25,9.51-9.49h0c0-5.24-4.26-9.49-9.51-9.49"/>
        <path class="cls-2" d="M57.16,1.76c-7.06,0-11.69,7.46-8.47,13.79l8.48,16.66,8.48-16.66c3.25-6.39-1.5-13.79-8.48-13.79"/>
        <path class="cls-2" d="M435.9,84.26c-5.25,0-9.51,4.25-9.51,9.49h0c0,5.24,4.26,9.49,9.51,9.49s9.51-4.25,9.51-9.49h0c0-5.24-4.26-9.49-9.51-9.49"/>
        <path class="cls-4" d="M57.17,1.75c-5.26,0-9.52,4.25-9.52,9.5h0c0,5.25,4.26,9.5,9.52,9.5s9.52-4.25,9.52-9.5h0c0-5.25-4.26-9.5-9.52-9.5"/>
        <path class="cls-5" d="M478.09,1.71c-5.25,0-9.51,4.25-9.51,9.49h0c0,5.24,4.26,9.49,9.51,9.49s9.51-4.25,9.51-9.49h0c0-5.24-4.26-9.49-9.51-9.49"/>
        <path class="cls-4" d="M410.1,87.61l-15.18-17.86c-.19-.25-.4-.5-.62-.73l-.96-1.13v.23c-1.63-1.31-3.7-2.1-5.96-2.1-5.25,0-9.51,4.25-9.51,9.49,0,4.68,3.4,8.56,7.86,9.34.29,3.72,3.24,6.69,6.96,7-.04.34-.06.69-.06,1.05,0,2.33.87,4.45,2.29,6.08,1.92,2.83,4.8,3.78,3.95,3.38,9.26,4.26,17.75-7.09,11.24-14.76Z"/>
        <path class="cls-5" d="M342.21,34.05v-15.07s0,0,0,0c0,0,0,0,0,0v-7.79c0-5.24-4.25-9.49-9.51-9.49h0c-7.13,0-11.43,7.41-8.67,13.4-.53,1.18-.83,2.49-.83,3.88,0,3.08,1.47,5.8,3.74,7.54-2.27,1.73-3.74,4.46-3.74,7.54,0,5.24,4.26,9.49,9.51,9.49,4.36,0,8.02-2.93,9.14-6.92l.36.43v-3s0,0,0,0c0,0,0,0,0,0Z"/>
      </g>
      <g>
        <path class="cls-7" d="M225.17,179.83h0c-5.25,0-9.51,4.25-9.51,9.49s4.26,9.49,9.51,9.49h0c5.25,0,9.51-4.25,9.51-9.49s-4.26-9.49-9.51-9.49"/>
        <path class="cls-5" d="M9.51,180.79C4.26,180.79,0,185.04,0,190.28v82.56c0,5.24,4.26,9.49,9.51,9.49s9.51-4.25,9.51-9.49v-82.56c0-5.24-4.26-9.49-9.51-9.49Z"/>
        <path class="cls-5" d="M838.49,221.75c-5.25,0-9.51,4.25-9.51,9.49s4.26,9.49,9.51,9.49,9.51-4.25,9.51-9.49-4.26-9.49-9.51-9.49"/>
        <path class="cls-2" d="M43.61,252.16c-5.25,0-9.51-4.25-9.51-9.49s4.26-9.49,9.51-9.49c9.4,0,17.05-7.63,17.05-17.02s-7.65-17.02-17.05-17.02c-5.25,0-9.51-4.25-9.51-9.49s4.26-9.49,9.51-9.49c19.88,0,36.06,16.15,36.06,36s-16.18,36-36.06,36h0Z"/>
        <path class="cls-4" d="M43.61,252.16H9.51c-5.25,0-9.51-4.25-9.51-9.49s4.26-9.49,9.51-9.49h34.1c5.25,0,9.51,4.25,9.51,9.49s-4.26,9.49-9.51,9.49h0Z"/>
        <path class="cls-5" d="M19.01,233.18h-9.51c-5.25,0-9.51,4.25-9.51,9.49s4.26,9.49,9.51,9.49h9.51v-18.98"/>
        <path class="cls-5" d="M43.61,233.18h0c-5.25,0-9.51,4.25-9.51,9.49s4.26,9.49,9.51,9.49h0c5.25,0,9.51-4.25,9.51-9.49s-4.26-9.49-9.51-9.49"/>
        <path class="cls-4" d="M43.61,180.17H9.51C4.26,180.17,0,184.42,0,189.66s4.26,9.49,9.51,9.49h34.1c5.25,0,9.51-4.25,9.51-9.49s-4.26-9.49-9.51-9.49Z"/>
        <path class="cls-5" d="M43.61,180.17c-5.25,0-9.51,4.25-9.51,9.49s4.26,9.49,9.51,9.49h0c5.25,0,9.51-4.25,9.51-9.49s-4.26-9.49-9.51-9.49h0"/>
        <path class="cls-4" d="M145.28,285c-5.25,0-9.51-4.25-9.51-9.49s4.26-9.49,9.51-9.49c19.21,0,34.85-15.6,34.85-34.78,0-5.24,4.26-9.49,9.51-9.49s9.51,4.25,9.51,9.49c0,29.64-24.16,53.76-53.86,53.76h0Z"/>
        <path class="cls-5" d="M100.93,240.73c-5.25,0-9.51-4.25-9.51-9.49,0-29.65,24.16-53.76,53.86-53.76,5.25,0,9.51,4.25,9.51,9.49s-4.26,9.49-9.51,9.49c-19.21,0-34.85,15.6-34.85,34.78,0,5.24-4.26,9.49-9.51,9.49h0Z"/>
        <path class="cls-2" d="M189.64,240.73c-5.25,0-9.51-4.25-9.51-9.49,0-19.18-15.63-34.78-34.85-34.78-5.25,0-9.51-4.25-9.51-9.49s4.26-9.49,9.51-9.49c29.7,0,53.86,24.12,53.86,53.76,0,5.24-4.26,9.49-9.51,9.49Z"/>
        <path class="cls-2" d="M145.28,285c-29.7,0-53.86-24.12-53.86-53.76,0-5.24,4.26-9.49,9.51-9.49s9.51,4.25,9.51,9.49c0,19.18,15.63,34.78,34.85,34.78,5.25,0,9.51,4.25,9.51,9.49s-4.26,9.49-9.51,9.49h0Z"/>
        <path class="cls-4" d="M100.93,221.75c-5.25,0-9.51,4.25-9.51,9.49h0c0,5.24,4.26,9.49,9.51,9.49s9.51-4.25,9.51-9.49h0c0-5.24-4.26-9.49-9.51-9.49"/>
        <path class="cls-5" d="M145.28,266.02c-5.25,0-9.51,4.25-9.51,9.49s4.26,9.49,9.51,9.49h0c5.25,0,9.51-4.25,9.51-9.49,0-5.24-4.26-9.49-9.51-9.49h0"/>
        <path class="cls-4" d="M145.28,177.47h0c-5.25,0-9.51,4.25-9.51,9.49s4.26,9.49,9.51,9.49h0c5.25,0,9.51-4.25,9.51-9.49,0-5.24-4.26-9.49-9.51-9.49"/>
        <path class="cls-5" d="M189.64,221.75c-5.25,0-9.51,4.25-9.51,9.49s4.26,9.49,9.51,9.49,9.51-4.25,9.51-9.49-4.26-9.49-9.51-9.49"/>
        <path class="cls-2" d="M266.21,199.15c8.09,0,14.67,6.57,14.67,14.64s-6.58,14.64-14.67,14.64h-2.36v18.98c19.63,1.34,36.04-14.31,36.04-33.62,0-18.54-15.11-33.62-33.68-33.62v18.98Z"/>
        <path class="cls-5" d="M226.4,281.7c-5.25,0-9.51-4.25-9.51-9.49v-82.56c0-5.24,4.26-9.49,9.51-9.49s9.51,4.25,9.51,9.49v82.56c0,5.24-4.26,9.49-9.51,9.49h0Z"/>
        <path class="cls-5" d="M290.39,281.7c-2.84,0-5.65-1.27-7.53-3.69l-26.55-34.29c-3.21-4.15-2.45-10.11,1.71-13.31,4.15-3.21,10.12-2.44,13.33,1.7l26.55,34.29c3.21,4.15,2.45,10.11-1.71,13.31-1.73,1.34-3.78,1.98-5.81,1.98Z"/>
        <path class="cls-5" d="M235.91,228.44h-9.51c-5.25,0-9.51,4.25-9.51,9.49s4.26,9.49,9.51,9.49h9.51v-18.98"/>
        <path class="cls-4" d="M226.4,180.17c-5.25,0-9.51,4.25-9.51,9.49s4.26,9.49,9.51,9.49h9.51v-9.49c0-5.24-4.26-9.49-9.51-9.49"/>
        <path class="cls-1" d="M263.82,228.44s-.07,0-.11,0c.21,0,.32,0,.11,0"/>
        <path class="cls-3" d="M263.83,228.44c-1.08,0-2.13.18-3.13.53.98-.34,2.03-.53,3.13-.53M260.7,228.96s-.03,0,0,0M257.6,230.76c-.98.84-1.74,1.85-2.29,2.94.56-1.13,1.34-2.13,2.29-2.94M254.33,237.54c-.04.94.06,1.89.31,2.81-.24-.91-.34-1.86-.31-2.81M254.64,240.37s0,.01,0,0"/>
        <path class="cls-2" d="M256.38,243.82l2.79,3.6c.16,0,4.69,0,4.67,0-3.02,0-5.71-1.41-7.45-3.6"/>
        <path class="cls-6" d="M264.43,228.45c1.21.08,2.4.38,3.5.91-1.07-.51-2.25-.83-3.5-.91M270.99,231.69c.23.27.43.53.43.53-.14-.18-.28-.36-.43-.53"/>
        <path class="cls-6" d="M260.7,228.96s0,0,0,0M260.68,228.97c-1.14.4-2.18,1.01-3.08,1.79.89-.77,1.93-1.38,3.08-1.79M255.32,233.7c-.58,1.16-.93,2.46-.98,3.84.05-1.33.39-2.64.98-3.84M254.64,240.35s0,.02,0,0M254.64,240.38c.34,1.27.94,2.44,1.73,3.44-.78-1.01-1.38-2.1-1.73-3.44"/>
        <path class="cls-2" d="M271.42,232.21l-7.59,15.2c3.4,0,9.45.26,16.84-3.26l-9.25-11.94"/>
        <path class="cls-4" d="M388.93,199.15h-69.39c-5.25,0-9.51-4.25-9.51-9.49s4.26-9.49,9.51-9.49h69.39c5.25,0,9.51,4.25,9.51,9.49s-4.26,9.49-9.51,9.49h0Z"/>
        <path class="cls-2" d="M354.23,281.7c-5.25,0-9.51-4.25-9.51-9.49v-82.56c0-5.24,4.26-9.49,9.51-9.49s9.51,4.25,9.51,9.49v82.56c0,5.24-4.26,9.49-9.51,9.49Z"/>
        <path class="cls-2" d="M354.23,180.17c-5.25,0-9.51,4.25-9.51,9.49v9.49h19.01v-9.49c0-5.24-4.26-9.49-9.51-9.49"/>
        <path class="cls-5" d="M476.68,199.15h-55.14c-5.25,0-9.51-4.25-9.51-9.49s4.26-9.49,9.51-9.49h55.14c5.25,0,9.51,4.25,9.51,9.49s-4.26,9.49-9.51,9.49Z"/>
        <path class="cls-2" d="M431.05,199.15l-19.01-9.49v82.56c0,5.24,4.26,9.49,9.51,9.49s9.51-4.25,9.51-9.49v-73.07Z"/>
        <path class="cls-5" d="M421.55,180.17c-5.25,0-9.51,4.25-9.51,9.49s4.26,9.49,9.51,9.49h9.51v-9.49c0-5.24-4.26-9.49-9.51-9.49"/>
        <path class="cls-4" d="M468.6,221.45h-37.55v18.98h37.55c5.25,0,9.51-4.25,9.51-9.49s-4.26-9.49-9.51-9.49"/>
        <path class="cls-4" d="M431.05,221.45h-9.51c-5.25,0-9.51,4.25-9.51,9.49s4.26,9.49,9.51,9.49h9.51v-18.98"/>
        <path class="cls-4" d="M550.49,285c-5.25,0-9.51-4.25-9.51-9.49s4.26-9.49,9.51-9.49c19.21,0,34.85-15.6,34.85-34.78,0-5.24,4.26-9.49,9.51-9.49s9.51,4.25,9.51,9.49c0,29.64-24.16,53.76-53.86,53.76Z"/>
        <path class="cls-5" d="M506.14,240.73c-5.25,0-9.51-4.25-9.51-9.49,0-29.65,24.16-53.76,53.86-53.76,5.25,0,9.51,4.25,9.51,9.49s-4.26,9.49-9.51,9.49c-19.21,0-34.85,15.6-34.85,34.78,0,5.24-4.26,9.49-9.51,9.49Z"/>
        <path class="cls-2" d="M594.85,240.73c-5.25,0-9.51-4.25-9.51-9.49,0-19.18-15.63-34.78-34.85-34.78-5.25,0-9.51-4.25-9.51-9.49s4.26-9.49,9.51-9.49c29.7,0,53.86,24.12,53.86,53.76,0,5.24-4.26,9.49-9.51,9.49Z"/>
        <path class="cls-2" d="M550.49,285c-29.7,0-53.86-24.12-53.86-53.76,0-5.24,4.26-9.49,9.51-9.49s9.51,4.25,9.51,9.49c0,19.18,15.63,34.78,34.85,34.78,5.25,0,9.51,4.25,9.51,9.49s-4.26,9.49-9.51,9.49Z"/>
        <path class="cls-4" d="M506.14,221.75c-5.25,0-9.51,4.25-9.51,9.49h0c0,5.24,4.26,9.49,9.51,9.49s9.51-4.25,9.51-9.49h0c0-5.24-4.26-9.49-9.51-9.49"/>
        <path class="cls-5" d="M550.49,266.02c-5.25,0-9.51,4.25-9.51,9.49s4.26,9.49,9.51,9.49h0c5.25,0,9.51-4.25,9.51-9.49,0-5.24-4.26-9.49-9.51-9.49h0"/>
        <path class="cls-4" d="M550.49,177.47h0c-5.25,0-9.51,4.25-9.51,9.49s4.26,9.49,9.51,9.49h0c5.25,0,9.51-4.25,9.51-9.49,0-5.24-4.26-9.49-9.51-9.49"/>
        <path class="cls-5" d="M594.85,221.75c-5.25,0-9.51,4.25-9.51,9.49s4.26,9.49,9.51,9.49,9.51-4.25,9.51-9.49-4.26-9.49-9.51-9.49"/>
        <path class="cls-2" d="M631.61,180.17c-5.25,0-9.51,4.25-9.51,9.49v82.56c0,5.24,4.26,9.49,9.51,9.49h0c-5.25,0-9.51-4.25-9.51-9.49s4.26-9.49,9.51-9.49h9.51v-73.07c0-5.24-4.26-9.49-9.51-9.49"/>
        <path class="cls-5" d="M680.57,262.73h-39.45v9.49c0,5.24-4.26,9.49-9.51,9.49h48.96c5.25,0,9.51-4.25,9.51-9.49s-4.26-9.49-9.51-9.49"/>
        <path class="cls-2" d="M641.12,262.73h-9.51c-5.25,0-9.51,4.25-9.51,9.49s4.26,9.49,9.51,9.49h0c5.25,0,9.51-4.25,9.51-9.49v-9.49"/>
        <path class="cls-4" d="M713.13,281.7c-5.25,0-9.51-4.25-9.51-9.49v-82.56c0-5.24,4.26-9.49,9.51-9.49s9.51,4.25,9.51,9.49v82.56c0,5.24-4.26,9.49-9.51,9.49Z"/>
        <path class="cls-4" d="M794.14,285c-5.25,0-9.51-4.25-9.51-9.49s4.26-9.49,9.51-9.49c19.21,0,34.85-15.6,34.85-34.78,0-5.24,4.26-9.49,9.51-9.49s9.51,4.25,9.51,9.49c0,29.64-24.16,53.76-53.86,53.76Z"/>
        <path class="cls-5" d="M749.79,240.73c-5.25,0-9.51-4.25-9.51-9.49,0-29.65,24.16-53.76,53.86-53.76,5.25,0,9.51,4.25,9.51,9.49s-4.26,9.49-9.51,9.49c-19.21,0-34.85,15.6-34.85,34.78,0,5.24-4.26,9.49-9.51,9.49Z"/>
        <path class="cls-2" d="M838.49,240.73c-5.25,0-9.51-4.25-9.51-9.49,0-19.18-15.63-34.78-34.85-34.78-5.25,0-9.51-4.25-9.51-9.49s4.26-9.49,9.51-9.49c29.7,0,53.86,24.12,53.86,53.76,0,5.24-4.26,9.49-9.51,9.49Z"/>
        <path class="cls-2" d="M794.14,285c-29.7,0-53.86-24.12-53.86-53.76,0-5.24,4.26-9.49,9.51-9.49s9.51,4.25,9.51,9.49c0,19.18,15.63,34.78,34.85,34.78,5.25,0,9.51,4.25,9.51,9.49s-4.26,9.49-9.51,9.49Z"/>
        <path class="cls-4" d="M749.79,221.75c-5.25,0-9.51,4.25-9.51,9.49h0c0,5.24,4.26,9.49,9.51,9.49s9.51-4.25,9.51-9.49h0c0-5.24-4.26-9.49-9.51-9.49"/>
        <path class="cls-5" d="M794.14,266.02c-5.25,0-9.51,4.25-9.51,9.49s4.26,9.49,9.51,9.49h0c5.25,0,9.51-4.25,9.51-9.49,0-5.24-4.26-9.49-9.51-9.49h0"/>
        <path class="cls-4" d="M794.14,177.47h0c-5.25,0-9.51,4.25-9.51,9.49s4.26,9.49,9.51,9.49h0c5.25,0,9.51-4.25,9.51-9.49,0-5.24-4.26-9.49-9.51-9.49"/>
        <path class="cls-2" d="M713.13,180.17c-5.25,0-9.51,4.25-9.51,9.49s4.26,9.49,9.51,9.49h0c5.25,0,9.51-4.25,9.51-9.49,0-5.24-4.26-9.49-9.51-9.49h0"/>
        <path class="cls-5" d="M354.23,262.73c-5.25,0-9.51,4.25-9.51,9.49s4.26,9.49,9.51,9.49h0c5.25,0,9.51-4.25,9.51-9.49,0-5.24-4.26-9.49-9.51-9.49h0"/>
        <path class="cls-2" d="M476.68,180.17c-5.25,0-9.51,4.25-9.51,9.49h0c0,5.24,4.26,9.49,9.51,9.49s9.51-4.25,9.51-9.49h0c0-5.24-4.26-9.49-9.51-9.49"/>
        <path class="cls-4" d="M631.61,262.73c-5.25,0-9.51,4.25-9.51,9.49h0c0,5.24,4.26,9.49,9.51,9.49s9.51-4.25,9.51-9.49h0c0-5.24-4.26-9.49-9.51-9.49"/>
        <path class="cls-5" d="M838.49,221.75c-5.25,0-9.51,4.25-9.51,9.49s4.26,9.49,9.51,9.49h0c5.25,0,9.51-4.25,9.51-9.49,0-5.24-4.26-9.49-9.51-9.49h0"/>
        <path class="cls-5" d="M421.55,221.45c-5.25,0-9.51,4.25-9.51,9.49s4.26,9.49,9.51,9.49h0c5.25,0,9.51-4.25,9.51-9.49,0-5.24-4.26-9.49-9.51-9.49h0"/>
        <path class="cls-2" d="M275.38,227.59c-2.71-.6-5.4.03-7.51,1.51-.45-.17-.91-.33-1.39-.43-.93-.21-1.87-.26-2.77-.2v-.03h-27.81v18.98h26.76s.07,0,.11,0h.98c.13,0,.26,0,.38,0,2.09.07,4.1-.57,5.74-1.72.45.17.91.33,1.39.43,3.14.69,6.25-.25,8.45-2.26.09.07.19.14.31.18.59.19,1.24-.16,1.45-.8.14-.43.03-.87-.23-1.17.62-.94,1.1-2.01,1.35-3.17,1.13-5.12-2.1-10.18-7.23-11.32Z"/>
        <path class="cls-4" d="M264.45,247.19c-5.13-1.13-8.36-6.2-7.23-11.32,1.13-5.12,6.21-8.35,11.34-7.22,5.13,1.13,8.36,6.2,7.23,11.32-1.13,5.12-6.21,8.35-11.34,7.22Z"/>
        <path class="cls-5" d="M18.09,228.24c.59-1.23.92-2.61.92-4.06,0-5.24-4.26-9.49-9.51-9.49S0,218.94,0,224.18c0,1.46.34,2.83.92,4.06C.34,229.47,0,230.85,0,232.3c0,.89.13,1.74.36,2.56C.13,235.68,0,236.54,0,237.43c0,.4.03.8.08,1.19-.05.39-.08.78-.08,1.18,0,1.01.16,1.99.46,2.91C.17,243.6,0,244.55,0,245.55c0,1.33.28,2.6.77,3.74C.28,250.45,0,251.71,0,253.04c0,5.24,4.26,9.49,9.51,9.49s9.51-4.25,9.51-9.49c0-1.33-.28-2.6-.77-3.74.5-1.15.77-2.41.77-3.74,0-1-.17-1.95-.46-2.86.3-.92.46-1.89.46-2.91,0-.4-.03-.79-.08-1.18.05-.39.08-.78.08-1.19,0-.89-.13-1.75-.36-2.57.23-.81.36-1.67.36-2.56,0-1.46-.34-2.83-.92-4.06Z"/>
        <path class="cls-4" d="M228.21,180.17c-.35-.02-.69-.02-1.03,0h-.78c.15,0,.3.02.45.02-3.86.37-7.2,3.16-8.09,7.14-1.1,4.94,2.03,9.84,6.98,10.93,4.18.92,8.31-1.16,10.16-4.8v5.67h30.3v-18.98h-37.99Z"/>
        <path class="cls-5" d="M266.21,180.17h0c-5.25,0-9.51,4.25-9.51,9.49s4.26,9.49,9.51,9.49h0c5.25,0,9.51-4.25,9.51-9.49s-4.26-9.49-9.51-9.49"/>
      </g>
    </g>
  </g>
</svg>