<?xml version="1.0" encoding="UTF-8"?>
<svg id="_レイヤー_2" data-name="レイヤー 2" xmlns="http://www.w3.org/2000/svg" viewBox="0 0 120 120">
  <defs>
    <style>
      .cls-1 {
        fill: #05c87a;
      }

      .cls-2 {
        fill: #fffcee;
      }
    </style>
  </defs>
  <g id="ABOUTページ">
    <g>
      <circle class="cls-1" cx="60" cy="60" r="60"/>
      <path class="cls-2" d="M64.62,71.32c-1.25-8.38-4.97-14.8-5.66-16.04-.56-1.01-1.18-1.62-1.77-1.98.25-2.31.48-5.4.28-7.81.51-.55.83-.94.83-.94l-.03-.03,3.78-11.28-6.76,7.82c-.89-.64-1.55-.73-1.95-.7-.12-.03-.26-.06-.4-.08l.43-10.55-5.12,10.74h-.05s-.07.64-.11,1.55c-1.78,1.54-3.71,3.78-5.11,5.52-.68-.16-1.57-.17-2.7.17-1.35.41-8.49,2.43-15.21,7.57-6.96,5.33-12.89,18.1-9.01,19.46,6.48,2.26,4.23-10.35,17.26-18.39,5.77-3.56,9.53-2.22,11.24-3.76.4-.36.63-.77.75-1.17l3.32-3.69c.06.11.13.21.21.29,1.28,1.37,3.96,1.54,3.96,1.54l-.09,4.96c-.17.35-.26.78-.23,1.27.16,2.29,3.79,3.95,5.46,10.53,3.78,14.85-6.6,22.35-.38,25.23,3.73,1.73,8.34-11.57,7.05-20.25ZM52.75,47.18c-1.15-.04-2.05-1.01-2.01-2.16.04-1.15,1.01-2.05,2.16-2.01,1.15.04,2.05,1.01,2.01,2.16-.04,1.15-1.01,2.05-2.16,2.01Z"/>
      <g>
        <path class="cls-2" d="M85.5,45.04c-.14-.11-.35-.18-.62-.21.03.07.02.15-.02.21-.06.09-.64.89-3.75,1.84-3.11.96-4.03.63-4.13.58-.06-.03-.1-.07-.12-.13-.19.17-.34.33-.42.49-.63,1.3,4.66,25.6,6.54,34.12.35,1.58,1.94,2.52,3.47,2.05l10.43-3.21c1.53-.47,2.35-2.17,1.76-3.68-3.14-8.14-12.1-31.25-13.13-32.07ZM84.11,58.67l.75-.23c1.45-.45,2.98.39,3.42,1.86l4.41,14.83c.44,1.48-.38,3.03-1.83,3.48l-.75.23c-1.45.45-2.98-.39-3.42-1.86l-4.41-14.83c-.44-1.48.38-3.03,1.83-3.48Z"/>
        <path class="cls-2" d="M82.65,39.84l-1.85-4.72-2.76.85s0,0,0,0l2,6.81c.04.13-.03.26-.16.29-.12.04-.25-.03-.29-.16l-2-6.81-.94.29s0,.01,0,.02l1.18,6.05c.03.13-.06.25-.18.28-.13.03-.25-.06-.27-.19l-1.18-6.03-1.37.42,1.04,4.97,1.04,4.97s.85.37,3.97-.59c3.12-.96,3.62-1.75,3.62-1.75l-1.85-4.72Z"/>
      </g>
    </g>
  </g>
</svg>