<?xml version="1.0" encoding="UTF-8"?>
<svg id="_レイヤー_2" data-name="レイヤー 2" xmlns="http://www.w3.org/2000/svg" viewBox="0 0 249.48 32.24">
  <defs>
    <style>
      .cls-1 {
        fill: #fffcee;
      }

      .cls-2 {
        fill: #ffd63a;
      }
    </style>
  </defs>
  <g id="_フッター" data-name="フッター">
    <g>
      <path class="cls-1" d="M2.38,31.49c-1,0-1.69-.28-2.08-.83-.39-.55-.4-1.31-.02-2.28L10.48,2.98c.56-1.43,1.67-2.15,3.32-2.15h.42c1.65,0,2.76.72,3.32,2.15l10.2,25.4c.37.96.37,1.72-.02,2.28-.39.56-1.1.83-2.13.83h-.98c-1.65,0-2.75-.74-3.28-2.23l-1.4-3.85H7.9l-1.4,3.85c-.5,1.49-1.59,2.23-3.28,2.23h-.84ZM9.87,20.15h8.14l-4.02-11.13-4.12,11.13Z"/>
      <path class="cls-1" d="M41.64,32.15c-2.34,0-4.52-.39-6.55-1.16-2.03-.77-3.76-2.08-5.19-3.92-.59-.79-.79-1.52-.59-2.19.2-.67.73-1.23,1.57-1.66.81-.44,1.55-.56,2.22-.37.67.19,1.33.62,1.99,1.29.78.82,1.72,1.45,2.81,1.91,1.09.45,2.42.68,3.98.68,2.15,0,3.59-.34,4.3-1.03.72-.69,1.08-1.6,1.08-2.74,0-.73-.18-1.36-.54-1.88-.36-.53-1.14-1.03-2.34-1.51-1.2-.48-3.05-1-5.54-1.55-3.03-.67-5.26-1.75-6.69-3.24-1.44-1.49-2.15-3.34-2.15-5.56,0-1.84.47-3.45,1.4-4.82.94-1.37,2.25-2.45,3.95-3.22,1.7-.77,3.7-1.16,6.01-1.16,2.43,0,4.55.41,6.34,1.23,1.79.82,3.27,1.84,4.42,3.07.62.7.86,1.39.7,2.08-.16.69-.62,1.31-1.4,1.86-.78.55-1.51.77-2.2.64-.69-.13-1.37-.52-2.06-1.16-.69-.64-1.5-1.18-2.43-1.62-.94-.44-2.09-.66-3.46-.66-1.47,0-2.66.28-3.58.85-.92.57-1.38,1.45-1.38,2.65,0,.47.13.94.4,1.42.26.48.89.96,1.87,1.42.98.47,2.55.95,4.7,1.45,3.65.82,6.29,2.04,7.93,3.66,1.64,1.62,2.46,3.61,2.46,5.98,0,3.01-1.08,5.31-3.25,6.9-2.17,1.59-5.09,2.39-8.77,2.39Z"/>
      <path class="cls-1" d="M70.04,32.06c-4.18,0-7.35-1-9.52-3-2.17-2-3.25-5.03-3.25-9.09v-7.25c0-1.93,1.03-2.89,3.09-2.89s3.04.96,3.04,2.89v6.94c0,2.48.6,4.25,1.8,5.3s2.82,1.58,4.84,1.58,3.63-.53,4.82-1.58c1.19-1.05,1.78-2.82,1.78-5.3v-6.94c0-.93.27-1.65.82-2.15.55-.5,1.3-.74,2.27-.74,2.03,0,3.04.96,3.04,2.89v7.25c0,4.06-1.08,7.09-3.23,9.09-2.15,2-5.32,3-9.5,3Z"/>
      <path class="cls-1" d="M99.71,31.49c-2.06,0-3.09-.96-3.09-2.89V3.72c0-1.93,1.03-2.89,3.09-2.89h7.72c3.18,0,5.97.54,8.38,1.62,2.4,1.08,4.27,2.74,5.61,4.99,1.34,2.25,2.01,5.15,2.01,8.72s-.67,6.39-2.01,8.65c-1.34,2.26-3.21,3.94-5.61,5.04-2.4,1.09-5.19,1.64-8.38,1.64h-7.72ZM102.7,26.24h4.26c3.06,0,5.51-.82,7.35-2.45,1.84-1.64,2.76-4.18,2.76-7.62s-.92-6.02-2.76-7.64-4.29-2.43-7.35-2.43h-4.26v20.15Z"/>
      <path class="cls-1" d="M130.03,31.49c-2.06,0-3.09-.96-3.09-2.89V3.72c0-1.93,1.03-2.89,3.09-2.89h16.14c2.06,0,3.09.88,3.09,2.63s-1.03,2.63-3.09,2.63h-13.15v7.14h11.75c2.06,0,3.09.88,3.09,2.63s-1.03,2.63-3.09,2.63h-11.75v7.75h13.66c2.06,0,3.09.88,3.09,2.63s-1.03,2.63-3.09,2.63h-16.66Z"/>
      <path class="cls-1" d="M165.45,32.15c-2.34,0-4.52-.39-6.55-1.16-2.03-.77-3.76-2.08-5.19-3.92-.59-.79-.79-1.52-.59-2.19.2-.67.73-1.23,1.57-1.66.81-.44,1.55-.56,2.22-.37.67.19,1.33.62,1.99,1.29.78.82,1.72,1.45,2.81,1.91,1.09.45,2.42.68,3.98.68,2.15,0,3.59-.34,4.3-1.03.72-.69,1.08-1.6,1.08-2.74,0-.73-.18-1.36-.54-1.88-.36-.53-1.14-1.03-2.34-1.51-1.2-.48-3.05-1-5.54-1.55-3.03-.67-5.26-1.75-6.69-3.24-1.44-1.49-2.15-3.34-2.15-5.56,0-1.84.47-3.45,1.4-4.82.94-1.37,2.25-2.45,3.95-3.22,1.7-.77,3.7-1.16,6.01-1.16,2.43,0,4.55.41,6.34,1.23,1.79.82,3.27,1.84,4.42,3.07.62.7.86,1.39.7,2.08-.16.69-.62,1.31-1.4,1.86-.78.55-1.51.77-2.2.64-.69-.13-1.37-.52-2.06-1.16-.69-.64-1.5-1.18-2.43-1.62-.94-.44-2.09-.66-3.46-.66-1.47,0-2.66.28-3.58.85-.92.57-1.38,1.45-1.38,2.65,0,.47.13.94.4,1.42.26.48.89.96,1.87,1.42.98.47,2.55.95,4.7,1.45,3.65.82,6.29,2.04,7.93,3.66,1.64,1.62,2.46,3.61,2.46,5.98,0,3.01-1.08,5.31-3.25,6.9-2.17,1.59-5.09,2.39-8.77,2.39Z"/>
      <path class="cls-1" d="M184.54,31.8c-2.03,0-3.04-1.27-3.04-3.2V3.72c0-1.93,1.01-3.23,3.04-3.23s3.04,1.3,3.04,3.23v24.88c0,1.93-1.01,3.2-3.04,3.2Z"/>
      <path class="cls-1" d="M206.29,32.24c-2.96,0-5.59-.66-7.88-1.97s-4.09-3.18-5.38-5.58c-1.29-2.41-1.94-5.25-1.94-8.52s.65-6.15,1.94-8.56c1.29-2.41,3.09-4.28,5.38-5.61,2.29-1.33,4.92-1.99,7.88-1.99,1.84,0,3.58.23,5.22.7,1.64.47,3.1,1.08,4.38,1.84.84.5,1.29,1.1,1.36,1.82.06.72-.22,1.44-.84,2.17-.59.73-1.24,1.11-1.94,1.14-.7.03-1.47-.19-2.32-.66-.84-.44-1.76-.79-2.76-1.05s-2.03-.39-3.09-.39c-1.84,0-3.42.45-4.75,1.34-1.33.89-2.34,2.12-3.04,3.7-.7,1.58-1.05,3.43-1.05,5.56s.35,3.94,1.05,5.52c.7,1.58,1.72,2.81,3.04,3.7,1.33.89,2.91,1.34,4.75,1.34,1.43,0,2.6-.12,3.51-.37.9-.25,1.67-.56,2.29-.94v-5.91h-1.87c-2.06,0-3.09-.88-3.09-2.63s1.03-2.63,3.09-2.63h4.96c2.06,0,3.09.96,3.09,2.89v9.77c0,.79-.14,1.45-.42,1.99-.28.54-.78.97-1.5,1.29-1.44.67-3.03,1.18-4.77,1.53-1.75.35-3.51.53-5.29.53Z"/>
      <path class="cls-1" d="M225.67,31.49c-2.03,0-3.04-.96-3.04-2.89V3.72c0-1.93,1.01-2.89,3.04-2.89h.65c1.56,0,2.79.63,3.7,1.88l13.34,18.83V3.72c0-1.93,1.03-2.89,3.09-2.89s3.04.96,3.04,2.89v24.88c0,1.93-.97,2.89-2.9,2.89h-.51c-1.62,0-2.85-.63-3.7-1.88l-13.66-19.53v18.53c0,1.93-1.01,2.89-3.04,2.89Z"/>
      <ellipse class="cls-1" cx="184.54" cy="3.25" rx="2.54" ry="2.38"/>
      <ellipse class="cls-1" cx="59.81" cy="3.87" rx="2.54" ry="2.38"/>
      <ellipse class="cls-1" cx="79.49" cy="3.87" rx="2.54" ry="2.38"/>
      <ellipse class="cls-2" cx="184.54" cy="3.87" rx="2.54" ry="2.38"/>
    </g>
  </g>
</svg>