<?xml version="1.0" encoding="UTF-8"?>
<svg id="_レイヤー_2" data-name="レイヤー 2" xmlns="http://www.w3.org/2000/svg" viewBox="0 0 249 32">
  <defs>
    <style>
      .cls-1 {
        fill: #05c87a;
      }

      .cls-2 {
        fill: #ffd63a;
      }

      .cls-3 {
        fill: #fc6349;
      }

      .cls-4 {
        fill: #93d1b6;
      }
    </style>
  </defs>
  <g id="_ヘッダー" data-name="ヘッダー">
    <g>
      <path class="cls-1" d="M2.38,31.26c-1,0-1.69-.28-2.08-.83-.39-.55-.4-1.3-.02-2.26L10.46,2.96c.56-1.42,1.67-2.13,3.32-2.13h.42c1.65,0,2.76.71,3.32,2.13l10.18,25.22c.37.96.36,1.71-.02,2.26-.39.55-1.1.83-2.12.83h-.98c-1.65,0-2.74-.74-3.27-2.22l-1.4-3.83H7.89l-1.4,3.83c-.5,1.48-1.59,2.22-3.27,2.22h-.84ZM9.85,20h8.13l-4.02-11.04-4.11,11.04Z"/>
      <path class="cls-4" d="M41.56,31.91c-2.33,0-4.52-.38-6.54-1.15-2.02-.77-3.75-2.06-5.18-3.89-.59-.78-.79-1.51-.58-2.17.2-.67.72-1.22,1.56-1.65.81-.44,1.55-.56,2.22-.37.67.19,1.33.62,1.98,1.28.78.81,1.71,1.44,2.8,1.89,1.09.45,2.41.67,3.97.67,2.15,0,3.58-.34,4.3-1.02.72-.68,1.07-1.59,1.07-2.72,0-.72-.18-1.35-.54-1.87-.36-.52-1.14-1.02-2.33-1.5-1.2-.48-3.04-.99-5.53-1.54-3.02-.67-5.25-1.74-6.68-3.22-1.43-1.48-2.15-3.32-2.15-5.52,0-1.83.47-3.42,1.4-4.78.93-1.36,2.25-2.43,3.95-3.2,1.7-.77,3.7-1.15,6-1.15,2.43,0,4.54.41,6.33,1.22,1.79.81,3.26,1.83,4.41,3.04.62.7.86,1.38.7,2.07-.16.68-.62,1.3-1.4,1.85-.78.55-1.51.76-2.2.63-.69-.13-1.37-.51-2.06-1.15-.69-.64-1.49-1.17-2.43-1.61-.93-.43-2.09-.65-3.46-.65-1.46,0-2.65.28-3.57.85-.92.57-1.38,1.44-1.38,2.63,0,.46.13.93.4,1.41.26.48.89.95,1.87,1.41.98.46,2.55.94,4.69,1.43,3.64.81,6.28,2.02,7.92,3.63,1.63,1.61,2.45,3.59,2.45,5.93,0,2.99-1.08,5.27-3.25,6.85-2.16,1.58-5.08,2.37-8.76,2.37Z"/>
      <path class="cls-1" d="M69.9,31.83c-4.17,0-7.34-.99-9.5-2.98-2.16-1.99-3.25-4.99-3.25-9.02v-7.2c0-1.91,1.03-2.87,3.08-2.87s3.04.96,3.04,2.87v6.89c0,2.46.6,4.22,1.8,5.26s2.81,1.56,4.83,1.56,3.63-.52,4.81-1.56c1.18-1.04,1.77-2.8,1.77-5.26v-6.89c0-.93.27-1.64.82-2.13.54-.49,1.3-.74,2.27-.74,2.02,0,3.04.96,3.04,2.87v7.2c0,4.03-1.07,7.04-3.22,9.02-2.15,1.99-5.31,2.98-9.48,2.98Z"/>
      <path class="cls-4" d="M99.51,31.26c-2.06,0-3.08-.96-3.08-2.87V3.7c0-1.91,1.03-2.87,3.08-2.87h7.71c3.18,0,5.96.54,8.36,1.61,2.4,1.07,4.27,2.72,5.6,4.96,1.34,2.23,2.01,5.12,2.01,8.65s-.67,6.34-2.01,8.59c-1.34,2.25-3.21,3.91-5.6,5-2.4,1.09-5.18,1.63-8.36,1.63h-7.71ZM102.5,26.04h4.25c3.05,0,5.49-.81,7.33-2.43,1.84-1.62,2.76-4.14,2.76-7.57s-.92-5.98-2.76-7.59-4.28-2.41-7.33-2.41h-4.25v20Z"/>
      <path class="cls-1" d="M129.77,31.26c-2.06,0-3.08-.96-3.08-2.87V3.7c0-1.91,1.03-2.87,3.08-2.87h16.11c2.05,0,3.08.87,3.08,2.61s-1.03,2.61-3.08,2.61h-13.12v7.09h11.72c2.05,0,3.08.87,3.08,2.61s-1.03,2.61-3.08,2.61h-11.72v7.7h13.64c2.05,0,3.08.87,3.08,2.61s-1.03,2.61-3.08,2.61h-16.63Z"/>
      <path class="cls-4" d="M165.13,31.91c-2.33,0-4.52-.38-6.54-1.15-2.02-.77-3.75-2.06-5.18-3.89-.59-.78-.79-1.51-.58-2.17.2-.67.72-1.22,1.56-1.65.81-.44,1.55-.56,2.22-.37.67.19,1.33.62,1.98,1.28.78.81,1.71,1.44,2.8,1.89,1.09.45,2.41.67,3.97.67,2.15,0,3.58-.34,4.3-1.02.72-.68,1.07-1.59,1.07-2.72,0-.72-.18-1.35-.54-1.87-.36-.52-1.14-1.02-2.33-1.5-1.2-.48-3.04-.99-5.53-1.54-3.02-.67-5.25-1.74-6.68-3.22-1.43-1.48-2.15-3.32-2.15-5.52,0-1.83.47-3.42,1.4-4.78.93-1.36,2.25-2.43,3.95-3.2,1.7-.77,3.7-1.15,6-1.15,2.43,0,4.54.41,6.33,1.22,1.79.81,3.26,1.83,4.41,3.04.62.7.86,1.38.7,2.07-.16.68-.62,1.3-1.4,1.85-.78.55-1.51.76-2.2.63-.69-.13-1.37-.51-2.06-1.15-.69-.64-1.49-1.17-2.43-1.61-.93-.43-2.09-.65-3.46-.65-1.46,0-2.65.28-3.57.85-.92.57-1.38,1.44-1.38,2.63,0,.46.13.93.4,1.41.26.48.89.95,1.87,1.41.98.46,2.55.94,4.69,1.43,3.64.81,6.28,2.02,7.92,3.63,1.63,1.61,2.45,3.59,2.45,5.93,0,2.99-1.08,5.27-3.25,6.85-2.16,1.58-5.08,2.37-8.76,2.37Z"/>
      <path class="cls-1" d="M184.18,31.57c-2.02,0-3.04-1.27-3.04-3.18V3.7c0-1.91,1.01-3.2,3.04-3.2s3.04,1.29,3.04,3.2v24.7c0,1.91-1.01,3.18-3.04,3.18Z"/>
      <path class="cls-4" d="M205.9,32c-2.96,0-5.58-.65-7.87-1.96s-4.08-3.15-5.37-5.54c-1.29-2.39-1.94-5.21-1.94-8.46s.65-6.11,1.94-8.5c1.29-2.39,3.08-4.25,5.37-5.57,2.29-1.32,4.91-1.98,7.87-1.98,1.84,0,3.57.23,5.21.7,1.63.46,3.09,1.07,4.37,1.83.84.49,1.29,1.09,1.35,1.8.06.71-.22,1.43-.84,2.15-.59.72-1.24,1.1-1.94,1.13-.7.03-1.47-.19-2.31-.65-.84-.43-1.76-.78-2.76-1.04s-2.02-.39-3.08-.39c-1.84,0-3.42.44-4.74,1.33-1.32.88-2.33,2.11-3.04,3.67-.7,1.56-1.05,3.41-1.05,5.52s.35,3.91,1.05,5.48c.7,1.56,1.71,2.79,3.04,3.67,1.32.88,2.9,1.33,4.74,1.33,1.43,0,2.6-.12,3.5-.37.9-.25,1.67-.56,2.29-.93v-5.87h-1.87c-2.06,0-3.08-.87-3.08-2.61s1.03-2.61,3.08-2.61h4.95c2.06,0,3.08.96,3.08,2.87v9.7c0,.78-.14,1.44-.42,1.98-.28.54-.78.96-1.49,1.28-1.43.67-3.02,1.17-4.76,1.52-1.74.35-3.5.52-5.28.52Z"/>
      <path class="cls-1" d="M225.23,31.26c-2.02,0-3.04-.96-3.04-2.87V3.7c0-1.91,1.01-2.87,3.04-2.87h.65c1.56,0,2.79.62,3.69,1.87l13.31,18.7V3.7c0-1.91,1.03-2.87,3.08-2.87s3.04.96,3.04,2.87v24.7c0,1.91-.97,2.87-2.9,2.87h-.51c-1.62,0-2.85-.62-3.69-1.87l-13.64-19.39v18.39c0,1.91-1.01,2.87-3.03,2.87Z"/>
      <ellipse class="cls-3" cx="184.18" cy="3.23" rx="2.54" ry="2.36"/>
      <ellipse class="cls-2" cx="59.69" cy="3.84" rx="2.54" ry="2.36"/>
      <ellipse class="cls-2" cx="79.33" cy="3.84" rx="2.54" ry="2.36"/>
    </g>
  </g>
</svg>