<?xml version="1.0" encoding="UTF-8"?>
<svg id="_レイヤー_2" data-name="レイヤー 2" xmlns="http://www.w3.org/2000/svg" viewBox="0 0 274.61 35.02">
  <defs>
    <style>
      .cls-1 {
        fill: #05c87a;
      }

      .cls-2 {
        fill: #ffd63a;
      }

      .cls-3 {
        fill: #fc6349;
      }
    </style>
  </defs>
  <g id="_アバウト" data-name="アバウト">
    <g>
      <g>
        <path class="cls-3" d="M49.49,6.35h0c-6.16,0-11.16,5.01-11.16,11.16h-6.35C31.98,7.85,39.83,0,49.49,0v6.35Z"/>
        <path class="cls-3" d="M38.33,17.51h0c0,1.75-1.42,3.17-3.17,3.17s-3.17-1.42-3.17-3.17c0,9.65,7.85,17.51,17.51,17.51h0c-1.75,0-3.17-1.42-3.17-3.17s1.42-3.17,3.17-3.17c-6.16,0-11.16-5.01-11.16-11.16"/>
        <path class="cls-3" d="M35.15,14.34c-1.75,0-3.17,1.42-3.17,3.17h0c0,1.75,1.42,3.17,3.17,3.17s3.17-1.42,3.17-3.17h0c0-1.75-1.42-3.17-3.17-3.17"/>
        <path class="cls-3" d="M59.3,24.79c-.78,0-1.56.28-2.17.86-2.08,1.95-4.79,3.02-7.64,3.02v6.35c4.47,0,8.72-1.68,11.98-4.74,2.1-1.97.69-5.49-2.17-5.49h0Z"/>
        <path class="cls-3" d="M49.49,28.67c-1.75,0-3.17,1.42-3.17,3.17s1.42,3.17,3.17,3.17h0c1.75,0,3.17-1.42,3.17-3.17s-1.42-3.17-3.17-3.17h0"/>
        <path class="cls-3" d="M49.49,0h0c4.55,0,8.86,1.74,12.14,4.89,1.26,1.21,1.3,3.22.09,4.49-1.22,1.26-3.22,1.3-4.49.09-2.09-2.01-4.84-3.12-7.74-3.12"/>
        <path class="cls-3" d="M49.49,0h0c-1.75,0-3.17,1.42-3.17,3.17s1.42,3.17,3.17,3.17h0c1.75,0,3.17-1.42,3.17-3.17s-1.42-3.17-3.17-3.17"/>
      </g>
      <g>
        <path class="cls-2" d="M71.56.39c-1.75,0-3.17,1.42-3.17,3.17v27.6c0,1.75,1.42,3.17,3.17,3.17h0c-1.75,0-3.17-1.42-3.17-3.17s1.42-3.17,3.17-3.17h3.17V3.56c0-1.75-1.42-3.17-3.17-3.17"/>
        <path class="cls-2" d="M87.9,27.99h-13.17v3.17c0,1.75-1.42,3.17-3.17,3.17h16.34c1.75,0,3.17-1.42,3.17-3.17s-1.42-3.17-3.17-3.17"/>
        <path class="cls-2" d="M74.73,27.99h-3.17c-1.75,0-3.17,1.42-3.17,3.17s1.42,3.17,3.17,3.17h0c1.75,0,3.17-1.42,3.17-3.17v-3.17"/>
      </g>
      <path class="cls-1" d="M98.76,34.33c-1.75,0-3.17-1.42-3.17-3.17V3.56c0-1.75,1.42-3.17,3.17-3.17s3.17,1.42,3.17,3.17v27.6c0,1.75-1.42,3.17-3.17,3.17Z"/>
      <g>
        <path class="cls-3" d="M125.3,6.35h0c-6.16,0-11.16,5.01-11.16,11.16h-6.35c0-9.65,7.85-17.51,17.51-17.51v6.35Z"/>
        <path class="cls-3" d="M114.14,17.51h0c0,1.75-1.42,3.17-3.17,3.17s-3.17-1.42-3.17-3.17c0,9.65,7.85,17.51,17.51,17.51h0c-1.75,0-3.17-1.42-3.17-3.17s1.42-3.17,3.17-3.17c-6.16,0-11.16-5.01-11.16-11.16"/>
        <path class="cls-3" d="M110.96,14.34c-1.75,0-3.17,1.42-3.17,3.17h0c0,1.75,1.42,3.17,3.17,3.17s3.17-1.42,3.17-3.17h0c0-1.75-1.42-3.17-3.17-3.17"/>
        <path class="cls-3" d="M135.11,24.79c-.78,0-1.56.28-2.17.86-2.08,1.95-4.79,3.02-7.64,3.02v6.35c4.47,0,8.72-1.68,11.98-4.74,2.1-1.97.69-5.49-2.17-5.49Z"/>
        <path class="cls-3" d="M125.3,28.67c-1.75,0-3.17,1.42-3.17,3.17s1.42,3.17,3.17,3.17h0c1.75,0,3.17-1.42,3.17-3.17s-1.42-3.17-3.17-3.17h0"/>
        <path class="cls-3" d="M125.3,0h0c4.55,0,8.86,1.74,12.14,4.89,1.26,1.21,1.3,3.22.09,4.49-1.22,1.26-3.22,1.3-4.49.09-2.09-2.01-4.84-3.12-7.74-3.12"/>
        <path class="cls-3" d="M125.3,0h0c-1.75,0-3.17,1.42-3.17,3.17s1.42,3.17,3.17,3.17h0c1.75,0,3.17-1.42,3.17-3.17s-1.42-3.17-3.17-3.17"/>
      </g>
      <g>
        <path class="cls-2" d="M147.37,34.33c-1.75,0-3.17-1.42-3.17-3.17V3.56c0-1.75,1.42-3.17,3.17-3.17s3.17,1.42,3.17,3.17v27.6c0,1.75-1.42,3.17-3.17,3.17Z"/>
        <path class="cls-2" d="M147.37,26.92c-.79,0-1.59-.29-2.2-.89-1.26-1.22-1.3-3.22-.08-4.49L164.55,1.36c1.22-1.26,3.22-1.3,4.49-.08,1.26,1.22,1.3,3.22.08,4.49l-19.47,20.19c-.62.65-1.45.97-2.28.97h0Z"/>
        <path class="cls-2" d="M150.54,15.89l-5.46,5.66c-1.22,1.26-1.18,3.27.08,4.49.62.59,1.41.89,2.2.89.83,0,1.66-.32,2.28-.97l.89-.92v-9.14"/>
        <path class="cls-2" d="M159.89,15.34l-4.43,4.6,10.86,13.23c.63.76,1.54,1.16,2.45,1.16.71,0,1.42-.24,2.01-.72,1.35-1.11,1.55-3.11.44-4.47l-11.33-13.81"/>
        <path class="cls-2" d="M155.64,12c-.71,0-1.42.24-2.01.72-1.35,1.11-1.55,3.11-.44,4.46l2.26,2.75,4.43-4.6-1.79-2.18c-.63-.76-1.54-1.16-2.45-1.16"/>
      </g>
      <g>
        <path class="cls-3" d="M213.3,24.91c-.97,0-1.94-.45-2.56-1.29l-13.37-18.18c-1.04-1.41-.74-3.4.68-4.44,1.41-1.04,3.4-.74,4.44.68l13.37,18.18c1.04,1.41.74,3.4-.68,4.44-.57.42-1.22.62-1.88.62Z"/>
        <path class="cls-3" d="M213.3,24.91c-.67,0-1.35-.21-1.92-.65-1.39-1.06-1.66-3.05-.6-4.45l13.85-18.18c1.06-1.39,3.05-1.66,4.45-.6,1.39,1.06,1.66,3.05.6,4.45l-13.85,18.18c-.62.82-1.57,1.25-2.53,1.25Z"/>
        <path class="cls-3" d="M227.14,34.33c-1.75,0-3.17-1.42-3.17-3.17V3.56c0-1.75,1.42-3.17,3.17-3.17s3.17,1.42,3.17,3.17v27.6c0,1.75-1.42,3.17-3.17,3.17Z"/>
        <path class="cls-3" d="M199.92,34.33c-1.75,0-3.17-1.42-3.17-3.17V3.56c0-1.75,1.42-3.17,3.17-3.17s3.17,1.42,3.17,3.17v27.6c0,1.75-1.42,3.17-3.17,3.17Z"/>
        <path class="cls-3" d="M213.34,16.44l-2.57,3.37c-2.49,3.26,2.44,7.27,5.05,3.84.85-1.11.87-2.66.03-3.8l-2.51-3.41"/>
        <path class="cls-3" d="M227.14.39c-1.75,0-3.17,1.42-3.17,3.17v9.4l5.7-7.48c1.58-2.07.1-5.1-2.52-5.1"/>
        <path class="cls-3" d="M199.92.39c-2.61,0-4.08,2.98-2.56,5.05l5.73,7.79V3.56c0-1.76-1.43-3.17-3.17-3.17"/>
      </g>
      <g>
        <path class="cls-1" d="M259.36,6.73h-18.4c-1.75,0-3.17-1.42-3.17-3.17s1.42-3.17,3.17-3.17h18.4c1.75,0,3.17,1.42,3.17,3.17s-1.42,3.17-3.17,3.17Z"/>
        <path class="cls-1" d="M259.36,34.33h-18.4c-1.75,0-3.17-1.42-3.17-3.17s1.42-3.17,3.17-3.17h18.4c1.75,0,3.17,1.42,3.17,3.17s-1.42,3.17-3.17,3.17Z"/>
        <path class="cls-1" d="M240.96,34.33c-1.75,0-3.17-1.42-3.17-3.17V3.56c0-1.75,1.42-3.17,3.17-3.17s3.17,1.42,3.17,3.17v27.6c0,1.75-1.42,3.17-3.17,3.17"/>
        <path class="cls-1" d="M240.96.39c-1.75,0-3.17,1.42-3.17,3.17s1.42,3.17,3.17,3.17h3.17v-3.17c0-1.75-1.42-3.17-3.17-3.17"/>
        <path class="cls-1" d="M244.13,27.99h-3.17c-1.75,0-3.17,1.42-3.17,3.17s1.42,3.17,3.17,3.17,3.17-1.42,3.17-3.17v-3.17"/>
        <path class="cls-1" d="M256.66,14.19h-12.53v6.35h12.53c1.75,0,3.17-1.42,3.17-3.17s-1.42-3.17-3.17-3.17"/>
        <path class="cls-1" d="M244.13,14.19h-3.17c-1.75,0-3.17,1.42-3.17,3.17s1.42,3.17,3.17,3.17h3.17v-6.35"/>
      </g>
      <g>
        <path class="cls-2" d="M271.44,23.85c-1.75,0-3.17-1.42-3.17-3.17V3.5c0-1.75,1.42-3.17,3.17-3.17s3.17,1.42,3.17,3.17v17.18c0,1.75-1.42,3.17-3.17,3.17Z"/>
        <path class="cls-2" d="M271.44,34.33c-1.75,0-3.17-1.42-3.17-3.17v-.62c0-1.75,1.42-3.17,3.17-3.17s3.17,1.42,3.17,3.17v.62c0,1.75-1.42,3.17-3.17,3.17Z"/>
      </g>
      <polygon class="cls-2" points="23.38 19.94 0 33.44 0 6.44 23.38 19.94"/>
    </g>
  </g>
</svg>