<?xml version="1.0" encoding="UTF-8"?>
<svg id="_レイヤー_2" data-name="レイヤー 2" xmlns="http://www.w3.org/2000/svg" viewBox="0 0 293.44 56.76">
  <defs>
    <style>
      .cls-1 {
        fill: #76b82a;
      }

      .cls-2 {
        fill: #815a2d;
      }

      .cls-3 {
        fill: #fffcee;
      }

      .cls-4 {
        fill: #ffd63a;
      }

      .cls-5 {
        fill: #584531;
      }
    </style>
  </defs>
  <g id="_スキル_ワーク" data-name="スキル＆ワーク">
    <g>
      <path class="cls-4" d="M16,51.69L.3,8.11C-.64,5.5.71,2.63,3.31,1.69c2.6-.94,5.47.41,6.41,3.01l15.71,43.58c.94,2.6-.41,5.47-3.01,6.41-2.6.94-5.47-.41-6.41-3.01Z"/>
      <path class="cls-3" d="M18.72,54.58c-2.54-1.1-3.7-4.06-2.59-6.59L35.09,4.41c1.1-2.54,4.06-3.7,6.59-2.59,2.54,1.1,3.7,4.06,2.59,6.59l-18.97,43.58c-1.1,2.54-4.06,3.7-6.59,2.59Z"/>
      <path class="cls-3" d="M50.68,51.69l-15.71-43.58c-.94-2.6.41-5.47,3.01-6.41,2.6-.94,5.47.41,6.41,3.01l15.71,43.58c.94,2.6-.41,5.47-3.01,6.41-2.61.94-5.48-.42-6.41-3.01Z"/>
      <path class="cls-3" d="M53.62,54.68c-2.59-.98-3.89-3.87-2.92-6.46L67.16,4.64c.98-2.59,3.87-3.89,6.46-2.92,2.59.98,3.89,3.87,2.92,6.46l-16.46,43.58c-.98,2.58-3.86,3.9-6.46,2.92Z"/>
      <path class="cls-4" d="M21.15,36.43l-5.03,11.56c-.94,2.16.03,4.07-.07,3.82,1.38,3.4,5.57,4.2,8.11,1.82,1.37-1.28,1.98-3.37,1.27-5.34l-4.27-11.86"/>
      <path class="cls-3" d="M39.68,1.4c-3.48,0-5.89,3.46-4.72,6.71l4.28,11.86,5.03-11.56c1.44-3.31-1-7.01-4.59-7.01"/>
      <path class="cls-3" d="M55.5,35.52l-4.8,12.7c-1.84,4.87,4.29,9.12,8.16,5.38,1.38-1.33,1.93-3.39,1.23-5.31l-4.6-12.77"/>
      <path class="cls-3" d="M110.58,56.76c-2.77,0-5.01-2.24-5.01-5.01s2.24-5.01,5.01-5.01c10.13,0,18.36-8.24,18.36-18.36,0-2.77,2.24-5.01,5.01-5.01s5.01,2.24,5.01,5.01c0,15.65-12.73,28.38-28.38,28.38h0Z"/>
      <path class="cls-4" d="M87.21,33.39c-2.77,0-5.01-2.24-5.01-5.01,0-15.65,12.73-28.38,28.38-28.38,2.77,0,5.01,2.24,5.01,5.01s-2.24,5.01-5.01,5.01c-10.13,0-18.36,8.24-18.36,18.36,0,2.77-2.24,5.01-5.01,5.01Z"/>
      <path class="cls-3" d="M133.96,33.39c-2.77,0-5.01-2.24-5.01-5.01,0-10.13-8.24-18.36-18.36-18.36-2.77,0-5.01-2.24-5.01-5.01S107.82,0,110.58,0C126.23,0,138.97,12.73,138.97,28.38c0,2.77-2.24,5.01-5.01,5.01Z"/>
      <path class="cls-3" d="M110.58,56.76c-15.65,0-28.38-12.73-28.38-28.38,0-2.77,2.24-5.01,5.01-5.01s5.01,2.24,5.01,5.01c0,10.13,8.24,18.36,18.36,18.36,2.77,0,5.01,2.24,5.01,5.01s-2.24,5.01-5.01,5.01h0Z"/>
      <path class="cls-4" d="M87.21,23.37c-2.77,0-5.01,2.24-5.01,5.01h0c0,2.77,2.24,5.01,5.01,5.01s5.01-2.24,5.01-5.01h0c0-2.77-2.24-5.01-5.01-5.01"/>
      <path class="cls-3" d="M110.58,46.75c-2.77,0-5.01,2.24-5.01,5.01s2.24,5.01,5.01,5.01h0c2.77,0,5.01-2.24,5.01-5.01,0-2.77-2.24-5.01-5.01-5.01h0"/>
      <path class="cls-4" d="M110.58,0h0c-2.77,0-5.01,2.24-5.01,5.01s2.24,5.01,5.01,5.01h0c2.77,0,5.01-2.24,5.01-5.01,0-2.77-2.24-5.01-5.01-5.01"/>
      <path class="cls-3" d="M133.96,23.37c-2.77,0-5.01,2.24-5.01,5.01s2.24,5.01,5.01,5.01,5.01-2.24,5.01-5.01-2.24-5.01-5.01-5.01"/>
      <path class="cls-4" d="M153.33,55.02c-2.77,0-5.01-2.24-5.01-5.01V6.43c0-2.77,2.24-5.01,5.01-5.01s5.01,2.24,5.01,5.01v43.58c0,2.77-2.24,5.01-5.01,5.01Z"/>
      <path class="cls-3" d="M187.05,55.02c-1.5,0-2.98-.67-3.97-1.95l-13.99-18.1c-1.69-2.19-1.29-5.34.9-7.03,2.19-1.69,5.33-1.29,7.03.9l13.99,18.1c1.69,2.19,1.29,5.33-.9,7.03-.91.71-1.99,1.05-3.06,1.05h0Z"/>
      <path class="cls-4" d="M158.34,26.9h-5.01c-2.77,0-5.01,2.24-5.01,5.01s2.24,5.01,5.01,5.01h5.01v-10.02"/>
      <path class="cls-3" d="M174.31,11.44h-15.97v-5.01c0-2.77-2.24-5.01-5.01-5.01s-4.01,2.24-4.01,5.01h-1c0-2.77,2.24-5.01,5.01-5.01h20.98v10.02Z"/>
      <path class="cls-4" d="M153.33,1.42c-2.77,0-5.01,2.24-5.01,5.01s2.24,5.01,5.01,5.01h5.01v-5.01c0-2.77-2.24-5.01-5.01-5.01"/>
      <path class="cls-1" d="M173.05,26.9s-.04,0-.06,0c.11,0,.17,0,.06,0"/>
      <path class="cls-2" d="M173.05,26.9c-.57,0-1.12.09-1.65.28.52-.18,1.07-.28,1.65-.28M171.4,27.18s-.01,0,0,0M169.77,28.13c-.51.45-.92.98-1.2,1.55.3-.6.71-1.12,1.2-1.55M168.05,31.71c-.02.5.03,1,.16,1.48-.13-.48-.18-.98-.16-1.48M168.21,33.2s0,0,0,0"/>
      <path class="cls-3" d="M169.13,35.02l1.47,1.9c.08,0,2.47,0,2.46,0-1.59,0-3.01-.74-3.93-1.9"/>
      <path class="cls-5" d="M173.37,26.91c.64.04,1.26.2,1.84.48-.56-.27-1.19-.44-1.84-.48M176.83,28.62c.12.14.23.28.23.28-.07-.1-.15-.19-.23-.28"/>
      <path class="cls-3" d="M174.31,1.42h0c-2.77,0-5.01,2.24-5.01,5.01s2.24,5.01,5.01,5.01h0c2.77,0,5.01-2.24,5.01-5.01s-2.24-5.01-5.01-5.01"/>
      <path class="cls-5" d="M171.4,27.18s0,0,0,0M171.39,27.19c-.6.21-1.15.53-1.62.94.47-.41,1.02-.73,1.62-.94M168.57,29.68c-.31.61-.49,1.3-.52,2.03.03-.7.2-1.39.52-2.03M168.21,33.19s0,.01,0,0M168.21,33.21c.18.67.49,1.29.91,1.82-.41-.53-.72-1.11-.91-1.82"/>
      <path class="cls-3" d="M177.05,28.9l-4,8.02c1.79,0,4.98.14,8.87-1.72l-4.87-6.3"/>
      <path class="cls-4" d="M207.03,55.02c-2.77,0-5.01-2.24-5.01-5.01V6.43c0-2.77,2.24-5.01,5.01-5.01s5.01,2.24,5.01,5.01v43.58c0,2.77-2.24,5.01-5.01,5.01Z"/>
      <path class="cls-3" d="M207.03,43.32c-1.25,0-2.5-.47-3.48-1.4-1.99-1.92-2.05-5.09-.13-7.08l30.74-31.88c1.92-1.99,5.09-2.05,7.08-.13,1.99,1.92,2.05,5.09.13,7.08l-30.74,31.88c-.98,1.02-2.29,1.53-3.61,1.53Z"/>
      <path class="cls-4" d="M212.04,25.9l-8.62,8.94c-1.92,1.99-1.86,5.16.13,7.08.97.94,2.23,1.4,3.48,1.4,1.31,0,2.62-.51,3.61-1.53l1.4-1.46v-14.43"/>
      <path class="cls-3" d="M226.79,25.03l-7,7.26,17.15,20.9c.99,1.21,2.43,1.83,3.88,1.83,1.12,0,2.24-.37,3.17-1.14,2.14-1.76,2.45-4.91.69-7.05l-17.89-21.8"/>
      <path class="cls-3" d="M220.1,19.76c-1.12,0-2.24.37-3.18,1.14-2.14,1.76-2.45,4.91-.69,7.05l3.57,4.35,7-7.26-2.82-3.44c-.99-1.21-2.43-1.83-3.88-1.83"/>
      <path class="cls-3" d="M283.42,40.39c0,1.1-.28,2.68-1.63,3.99-1.59,1.55-4.27,2.36-7.76,2.36-.19,0-.39,0-.59,0-.01,0-.02,0-.03,0-.04,0-.08,0-.12,0-2.69,0-4.92,2.17-4.99,4.88-.07,2.77,2.11,5.07,4.88,5.14,0,0,.01,0,.02,0,.28,0,.55.01.82.01,7.75,0,12.29-2.81,14.76-5.21,3-2.92,4.65-6.89,4.65-11.17h-10.02Z"/>
      <path class="cls-4" d="M274.04.59s-.01,0-.02,0c-.07,0-.13,0-.2,0,.04,0,.08,0,.11,0,.12,0,.23,0,.35.01-.89-.06-1.75-.1-2.6-.1-10.75,0-18.16,5.15-18.43,16.25-.09,3.51,1.03,8.47,6.85,12.2,2.73,1.75,6.15,3.03,10.79,4.04,0,0,0,0,.01,0,.01,0,.02,0,.03,0,0,0,0,0,0,0,.35.07.69.11,1.03.11,2.31,0,4.38-1.6,4.89-3.95.59-2.7-1.13-5.37-3.83-5.96,0,0-.01,0-.02,0-9.83-2.14-9.83-5.79-9.49-8.41.37-2.89,2.85-4.57,9.36-4.23.26.04.52.06.79.06,2.75,0,5.07-2.01,5.27-4.65.21-2.76-1.98-5.16-4.9-5.36h0Z"/>
      <path class="cls-4" d="M273.58,10.58c2.63.19,6.01,1.34,10.04,3.42,2.46,1.27,5.48.31,6.75-2.15,1.27-2.46.31-5.48-2.15-6.75-5.31-2.75-9.87-4.23-13.92-4.52,0,0-.01,0-.02,0-.12,0-.23-.01-.35-.01l-.35,10.01Z"/>
      <path class="cls-3" d="M273.01,23.18s.01,0,.02,0c2.7.59,4.42,3.25,3.83,5.96-.51,2.35-2.58,3.95-4.89,3.95-.34,0-.69-.03-1.03-.11,0,0,0,0,0,0,12.48,2.6,12.48,6.09,12.48,7.4h0c0-2.77,2.24-5.01,5.01-5.01s5.01,2.24,5.01,5.01c0-3.46-1.18-8.38-6.79-12.16-3.23-2.17-7.56-3.78-13.65-5.05M270.89,32.98s.03,0,.04,0c-.01,0-.02,0-.03,0,0,0,0,0-.01,0"/>
      <path class="cls-3" d="M254.5,42.96c-1.52,2.31-.87,5.42,1.44,6.94,4.76,3.12,10.78,6.34,19.4,6.56,0,0,.01,0,.02,0,0,0-.01,0-.02,0l.23-10.02c-6.07-.16-10.38-2.46-14.13-4.92-2.32-1.52-5.42-.87-6.94,1.44Z"/>
      <path class="cls-3" d="M288.43,35.38c-2.77,0-5.01,2.24-5.01,5.01h0c0,2.77,2.24,5.01,5.01,5.01s5.01-2.24,5.01-5.01h0c0-2.77-2.24-5.01-5.01-5.01"/>
      <path class="cls-3" d="M273.29,46.74c-2.69,0-4.92,2.17-4.99,4.88-.07,2.77,2.11,5.07,4.88,5.14,0,0,.01,0,.02,0,.04,0,.07,0,.11,0,2.71,0,4.94-2.16,5.01-4.88.07-2.77-2.11-5.07-4.88-5.14-.01,0-.02,0-.03,0-.04,0-.08,0-.12,0"/>
      <path class="cls-4" d="M271.96,23.07c-2.32,0-4.4,1.62-4.9,3.99-.56,2.69,1.15,5.33,3.83,5.92,0,0,0,0,.01,0,.01,0,.02,0,.03,0,0,0,0,0,0,0,.35.07.69.11,1.03.11,2.31,0,4.38-1.6,4.89-3.95.59-2.7-1.13-5.37-3.83-5.96,0,0-.01,0-.02,0,0,0-.01,0-.02,0-.35-.07-.69-.11-1.03-.11"/>
      <path class="cls-4" d="M273.94.57c-2.61,0-4.8,2.01-4.99,4.65-.21,2.89,2.08,5.37,5,5.37,2.6,0,4.8-2.01,4.99-4.65.2-2.76-1.88-5.16-4.64-5.36,0,0-.01,0-.02,0-.12,0-.23-.01-.35-.01"/>
      <path class="cls-3" d="M5.01,1.42h0C2.24,1.42,0,3.67,0,6.43s2.24,5.01,5.01,5.01h0c2.77,0,5.01-2.24,5.01-5.01,0-2.77-2.24-5.01-5.01-5.01"/>
      <path class="cls-3" d="M285.92,4.55h0c-2.77,0-5.01,2.24-5.01,5.01s2.24,5.01,5.01,5.01h0c2.77,0,5.01-2.24,5.01-5.01,0-2.77-2.24-5.01-5.01-5.01"/>
      <path class="cls-3" d="M153.33,45h0c-2.77,0-5.01,2.24-5.01,5.01s2.24,5.01,5.01,5.01h0c2.77,0,5.01-2.24,5.01-5.01,0-2.77-2.24-5.01-5.01-5.01"/>
      <path class="cls-3" d="M175.67,31.43c0-1.79-1.11-3.32-2.67-3.96v-.57h-14.66v10.02h14.72v-1.56c1.53-.65,2.6-2.17,2.6-3.94Z"/>
      <path class="cls-3" d="M174.31,1.42v10.02c4.26,0,7.73,3.47,7.73,7.73s-3.47,7.73-7.73,7.73h-.42s0,0,0,0c0,0,0,0,0,0h-.81v.04c-2.3,0-4.37,1.55-4.89,3.88-.6,2.7,1.11,5.38,3.81,5.97.36.08.72.11,1.08.11h0c10.35.71,18.99-7.55,18.99-17.75,0-9.79-7.96-17.75-17.75-17.75Z"/>
    </g>
  </g>
</svg>