<?xml version="1.0" encoding="UTF-8"?>
<svg id="_レイヤー_2" data-name="レイヤー 2" xmlns="http://www.w3.org/2000/svg" viewBox="0 0 279.27 56.76">
  <defs>
    <style>
      .cls-1 {
        fill: #05c87a;
      }

      .cls-2 {
        fill: #ffd63a;
      }

      .cls-3 {
        fill: #fc6349;
      }
    </style>
  </defs>
  <g id="_アバウト" data-name="アバウト">
    <g>
      <path class="cls-3" d="M5.01,55.02c-3.71,0-6.16-3.93-4.46-7.28L22.69,4.16c1.25-2.47,4.27-3.45,6.74-2.2,2.47,1.25,3.45,4.27,2.2,6.74L9.48,52.28c-.88,1.74-2.64,2.74-4.47,2.74"/>
      <path class="cls-3" d="M44.82,52.28c1.25,2.47,4.27,3.45,6.74,2.2,2.47-1.25,3.45-4.27,2.2-6.74L31.65,4.21c.67,1.37.72,3.02-.03,4.49l-4.47,8.79,17.67,34.79Z"/>
      <path class="cls-3" d="M27.15,1.42c-3.72,0-6.16,3.94-4.46,7.28l4.47,8.79,4.47-8.79c1.71-3.37-.79-7.28-4.47-7.28"/>
      <polyline class="cls-1" points="36.22 35.35 18.08 35.35 12.99 45.37 41.31 45.37 36.22 35.35"/>
      <path class="cls-1" d="M18.08,35.35h-8.16c-2.77,0-5.01,2.24-5.01,5.01s2.24,5.01,5.01,5.01h3.07l5.09-10.02"/>
      <path class="cls-1" d="M44.38,35.35h-8.16l5.09,10.02h3.07c2.77,0,5.01-2.24,5.01-5.01s-2.24-5.01-5.01-5.01"/>
      <path class="cls-3" d="M88.55,1.36c-.26,0-.52.02-.77.06-2.4.37-4.24,2.45-4.24,4.95,0,2.77,2.24,5.01,5.01,5.01.19,0,.37,0,.55.03,2.67.28,4.76,2.54,4.76,5.28,0,2.93-2.38,5.31-5.31,5.31-2.77,0-5.01,2.25-5.01,5.01,0,2.77,2.24,5.01,5.01,5.01h.01c5.2,0,9.79-2.6,12.57-6.57,1.73-2.48,2.75-5.5,2.75-8.76,0-8.45-6.88-15.33-15.33-15.33h0Z"/>
      <path class="cls-3" d="M88.55,11.38c-2.77,0-5.01-2.24-5.01-5.01,0-2.51,1.84-4.58,4.24-4.95h-20.97c-2.77,0-5.01,2.24-5.01,5.01s2.24,5.01,5.01,5.01h21.74c.19,0,.37-.01.55-.03-.18-.02-.37-.03-.55-.03h0Z"/>
      <path class="cls-3" d="M88.51,22.01h-16.69v10.02h16.69c2.77,0,5.01-2.24,5.01-5.01s-2.24-5.01-5.01-5.01Z"/>
      <path class="cls-1" d="M66.81,55.02c-2.77,0-5.01-2.24-5.01-5.01V6.43c0-2.77,2.24-5.01,5.01-5.01s5.01,2.24,5.01,5.01v43.58c0,2.77-2.24,5.01-5.01,5.01"/>
      <path class="cls-1" d="M66.81,1.42c-2.77,0-5.01,2.24-5.01,5.01s2.24,5.01,5.01,5.01h5.01v-5.01c0-2.77-2.24-5.01-5.01-5.01"/>
      <path class="cls-3" d="M91.04,45.01h-19.22v5.01c0,2.77-2.24,5.01-5.01,5.01h24.23v-10.02Z"/>
      <path class="cls-1" d="M71.82,45.01h-5.01c-2.77,0-5.01,2.24-5.01,5.01s2.24,5.01,5.01,5.01,5.01-2.24,5.01-5.01v-5.01"/>
      <path class="cls-3" d="M88.55,1.42h-.77c-2.4.37-4.24,2.45-4.24,4.95,0,2.77,2.24,5.01,5.01,5.01.19,0,.37,0,.55.03,2.51-.28,4.46-2.4,4.46-4.98,0-2.77-2.24-5.01-5.01-5.01"/>
      <path class="cls-3" d="M88.56,32.03h2.49c3.58,0,6.49,2.91,6.49,6.49s-2.91,6.49-6.49,6.49c2.77,0,5.01,2.24,5.01,5.01s-2.24,5.01-5.01,5.01c9.1,0,16.51-7.41,16.51-16.51,0-5.31-2.52-10.04-6.42-13.06l-12.57,6.57Z"/>
      <path class="cls-3" d="M91.04,45.01h0c-2.77,0-5.01,2.24-5.01,5.01s2.24,5.01,5.01,5.01,5.01-2.24,5.01-5.01-2.24-5.01-5.01-5.01"/>
      <path class="cls-3" d="M88.56,32.03c5.2,0,9.79-2.6,12.57-6.57-2.79-2.16-6.29-3.45-10.09-3.45h-2.49s.01,10.02.01,10.02Z"/>
      <path class="cls-1" d="M71.82,22.01h-5.01c-2.77,0-5.01,2.24-5.01,5.01s2.24,5.01,5.01,5.01h5.01v-10.02"/>
      <path class="cls-3" d="M88.55,22.01h0c-2.77,0-5.01,2.24-5.01,5.01,0,2.77,2.24,5.01,5.01,5.01h.01c2.76,0,5-2.25,5-5.01s-2.24-5.01-5.01-5.01"/>
      <path class="cls-3" d="M142.86,56.76c-2.77,0-5.01-2.24-5.01-5.01s2.24-5.01,5.01-5.01c10.13,0,18.36-8.24,18.36-18.36,0-2.77,2.24-5.01,5.01-5.01s5.01,2.24,5.01,5.01c0,15.65-12.73,28.38-28.38,28.38h0Z"/>
      <path class="cls-3" d="M166.23,33.39c-2.77,0-5.01-2.24-5.01-5.01,0-10.13-8.24-18.36-18.36-18.36-2.77,0-5.01-2.24-5.01-5.01S140.09,0,142.86,0C158.51,0,171.24,12.73,171.24,28.38c0,2.77-2.24,5.01-5.01,5.01Z"/>
      <path class="cls-3" d="M142.86,56.76c-15.65,0-28.38-12.73-28.38-28.38,0-2.77,2.24-5.01,5.01-5.01s5.01,2.24,5.01,5.01c0,10.13,8.24,18.36,18.36,18.36,2.77,0,5.01,2.24,5.01,5.01s-2.24,5.01-5.01,5.01h0Z"/>
      <path class="cls-2" d="M119.49,23.37c-2.77,0-5.01,2.24-5.01,5.01h0c0,2.77,2.24,5.01,5.01,5.01s5.01-2.24,5.01-5.01h0c0-2.77-2.24-5.01-5.01-5.01"/>
      <path class="cls-1" d="M142.86,0c-14.84,0-27.05,11.45-28.27,25.98-.07.33-.11.68-.11,1.03,0,.09.02.18.03.27-.01.36-.03.73-.03,1.09,0,2.77,2.24,5.01,5.01,5.01s5.01-2.24,5.01-5.01c0-10.13,8.24-18.36,18.36-18.36,2.77,0,5.01-2.24,5.01-5.01s-2.24-5.01-5.01-5.01Z"/>
      <path class="cls-2" d="M142.86,46.75c-2.77,0-5.01,2.24-5.01,5.01s2.24,5.01,5.01,5.01h0c2.77,0,5.01-2.24,5.01-5.01,0-2.77-2.24-5.01-5.01-5.01h0"/>
      <path class="cls-1" d="M142.86,0h0c-2.77,0-5.01,2.24-5.01,5.01s2.24,5.01,5.01,5.01h0c2.77,0,5.01-2.24,5.01-5.01,0-2.77-2.24-5.01-5.01-5.01"/>
      <path class="cls-3" d="M166.23,23.37c-2.77,0-5.01,2.24-5.01,5.01s2.24,5.01,5.01,5.01,5.01-2.24,5.01-5.01-2.24-5.01-5.01-5.01"/>
      <path class="cls-1" d="M184.77,39.77c-2.77,0-5.01-2.24-5.01-5.01V6.62c0-2.77,2.24-5.01,5.01-5.01s5.01,2.24,5.01,5.01v28.14c0,2.77-2.24,5.01-5.01,5.01Z"/>
      <path class="cls-3" d="M221.33,39.77c-2.77,0-5.01-2.24-5.01-5.01V6.62c0-2.77,2.24-5.01,5.01-5.01s5.01,2.24,5.01,5.01v28.14c0,2.77-2.24,5.01-5.01,5.01Z"/>
      <path class="cls-3" d="M203.01,56.04c-12.61,0-23.26-9.75-23.26-21.29,0-2.77,2.24-5.01,5.01-5.01s5.01,2.24,5.01,5.01c0,6,6.19,11.27,13.24,11.27s13.3-5.09,13.3-11.27c0-2.77,2.24-5.01,5.01-5.01s5.01,2.24,5.01,5.01c0,11.54-10.68,21.29-23.32,21.29h0Z"/>
      <path class="cls-3" d="M184.77,29.75c-2.77,0-5.01,2.24-5.01,5.01h0c0,2.77,2.24,5.01,5.01,5.01s5.01-2.24,5.01-5.01h0c0-2.77-2.24-5.01-5.01-5.01"/>
      <path class="cls-3" d="M221.33,29.75c-2.77,0-5.01,2.24-5.01,5.01h0c0,2.77,2.24,5.01,5.01,5.01s5.01-2.24,5.01-5.01h0c0-2.77-2.24-5.01-5.01-5.01"/>
      <path class="cls-1" d="M274.26,11.44h-36.57c-2.77,0-5.01-2.24-5.01-5.01s2.24-5.01,5.01-5.01h36.57c2.77,0,5.01,2.24,5.01,5.01s-2.24,5.01-5.01,5.01Z"/>
      <path class="cls-3" d="M255.97,55.02c-2.77,0-5.01-2.24-5.01-5.01V6.43c0-2.77,2.24-5.01,5.01-5.01s5.01,2.24,5.01,5.01v43.58c0,2.77-2.24,5.01-5.01,5.01Z"/>
      <path class="cls-3" d="M255.97,1.42c-2.77,0-5.01,2.24-5.01,5.01v5.01h10.02v-5.01c0-2.77-2.24-5.01-5.01-5.01"/>
      <path class="cls-2" d="M255.97,1.42h0c-2.77,0-5.01,2.24-5.01,5.01s2.24,5.01,5.01,5.01h0c2.77,0,5.01-2.24,5.01-5.01,0-2.77-2.24-5.01-5.01-5.01"/>
      <path class="cls-3" d="M161.22,37.89h0c-2.77,0-5.01,2.24-5.01,5.01s2.24,5.01,5.01,5.01h0c2.77,0,5.01-2.24,5.01-5.01,0-2.77-2.24-5.01-5.01-5.01"/>
      <path class="cls-2" d="M27.15,1.42h0c-2.77,0-5.01,2.24-5.01,5.01s2.24,5.01,5.01,5.01h0c2.77,0,5.01-2.24,5.01-5.01,0-2.77-2.24-5.01-5.01-5.01"/>
      <path class="cls-1" d="M184.77,1.61c-2.77,0-5.01,2.24-5.01,5.01h0c0,2.77,2.24,5.01,5.01,5.01s5.01-2.24,5.01-5.01h0c0-2.77-2.24-5.01-5.01-5.01"/>
    </g>
  </g>
</svg>