<?xml version="1.0" encoding="UTF-8"?>
<svg id="_レイヤー_2" data-name="レイヤー 2" xmlns="http://www.w3.org/2000/svg" viewBox="0 0 722.79 75.69">
  <defs>
    <style>
      .cls-1 {
        fill: #853135;
      }

      .cls-2 {
        fill: #05c87a;
      }

      .cls-3 {
        fill: #107c47;
      }

      .cls-4 {
        fill: #ffd63a;
      }

      .cls-5 {
        fill: #fc6349;
      }
    </style>
  </defs>
  <g id="_サンクスページ" data-name="サンクスページ">
    <g>
      <path class="cls-4" d="M55.44,15.33H6.68c-3.69,0-6.68-2.99-6.68-6.68S2.99,1.98,6.68,1.98h48.76c3.69,0,6.68,2.99,6.68,6.68s-2.99,6.68-6.68,6.68Z"/>
      <path class="cls-2" d="M31.06,73.45c-3.69,0-6.68-2.99-6.68-6.68V8.66c0-3.69,2.99-6.68,6.68-6.68s6.68,2.99,6.68,6.68v58.11c0,3.69-2.99,6.68-6.68,6.68Z"/>
      <path class="cls-2" d="M31.06,1.98c-3.69,0-6.68,2.99-6.68,6.68v6.68h13.36v-6.68c0-3.69-2.99-6.68-6.68-6.68"/>
      <path class="cls-4" d="M125.21,73.45c-3.69,0-6.68-2.99-6.68-6.68V8.66c0-3.69,2.99-6.68,6.68-6.68s6.68,2.99,6.68,6.68v58.11c0,3.69-2.99,6.68-6.68,6.68Z"/>
      <path class="cls-2" d="M125.21,44.39h-46.85c-3.69,0-6.68-2.99-6.68-6.68s2.99-6.68,6.68-6.68h46.85c3.69,0,6.68,2.99,6.68,6.68s-2.99,6.68-6.68,6.68Z"/>
      <path class="cls-5" d="M85.04,31.03h-6.68c-3.69,0-6.68,2.99-6.68,6.68s2.99,6.68,6.68,6.68h6.68v-13.36"/>
      <path class="cls-5" d="M78.36,1.98c-3.69,0-6.68,2.99-6.68,6.68v58.11c0,3.69,2.99,6.68,6.68,6.68s6.68-2.99,6.68-6.68V8.66c0-3.69-2.99-6.68-6.68-6.68Z"/>
      <path class="cls-2" d="M125.21,31.03h-6.68v13.36h6.68c3.69,0,6.68-2.99,6.68-6.68h0c0-3.69-2.99-6.68-6.68-6.68"/>
      <path class="cls-5" d="M148.6,73.45c-4.94,0-8.22-5.25-5.95-9.71l29.52-58.11c1.67-3.29,5.69-4.6,8.98-2.93,3.29,1.67,4.6,5.69,2.93,8.98l-29.52,58.11c-1.18,2.32-3.53,3.66-5.96,3.66"/>
      <path class="cls-2" d="M201.68,69.79c1.67,3.29,5.69,4.6,8.98,2.93,3.29-1.67,4.6-5.69,2.93-8.98l-29.48-58.04c.9,1.82.96,4.03-.04,5.98l-5.96,11.72,23.56,46.39Z"/>
      <path class="cls-2" d="M178.12,1.97c-4.96,0-8.21,5.25-5.95,9.71l5.96,11.72,5.96-11.72c2.28-4.5-1.06-9.71-5.96-9.71"/>
      <polyline class="cls-4" points="190.21 47.21 166.03 47.21 159.24 60.57 197 60.57 190.21 47.21"/>
      <path class="cls-5" d="M166.03,47.21h-10.87c-3.69,0-6.68,2.99-6.68,6.68s2.99,6.68,6.68,6.68h4.09l6.79-13.36"/>
      <path class="cls-4" d="M201.09,47.21h-10.88l6.79,13.36h4.1c3.69,0,6.68-2.99,6.68-6.68s-2.99-6.68-6.68-6.68"/>
      <path class="cls-4" d="M224.32,8.97v57.76c0,3.69,2.99,6.68,6.68,6.68s6.68-2.99,6.68-6.68V8.62l-13.36.35Z"/>
      <path class="cls-5" d="M225.91,12.94l11.77,13.88,37.49,44.2s-.04-.06-.07-.09c1.31,1.6,2.94,2.12,2.39,1.87,6.51,3,12.47-4.99,7.89-10.39l-11.77-13.88L236.16,4.37l-10.25,8.57Z"/>
      <path class="cls-2" d="M286.98,66.1V8.62c0-3.69-2.99-6.68-6.68-6.68s-6.68,2.99-6.68,6.68v58.11c0,4.86,4.76,6.47,3.88,6.07,5.11,2.36,9.89-2.07,9.48-6.69Z"/>
      <path class="cls-5" d="M273.62,48.53v18.2c0,4.86,4.76,6.47,3.88,6.07,6.51,3,12.47-4.99,7.89-10.39l-11.77-13.88"/>
      <path class="cls-4" d="M231,1.94c-5.65,0-8.78,6.65-5.09,11l11.77,13.88V8.62c0-3.69-2.99-6.68-6.68-6.68"/>
      <path class="cls-4" d="M309.32,73.44c-3.69,0-6.68-2.99-6.68-6.68V8.66c0-3.69,2.99-6.68,6.68-6.68s6.68,2.99,6.68,6.68v58.11c0,3.69-2.99,6.68-6.68,6.68Z"/>
      <path class="cls-2" d="M309.31,57.85c-1.67,0-3.34-.62-4.64-1.87-2.66-2.56-2.73-6.79-.17-9.44l40.99-42.51c2.56-2.66,6.79-2.73,9.44-.17,2.66,2.56,2.73,6.79.17,9.44l-40.99,42.51c-1.31,1.36-3.06,2.04-4.81,2.04Z"/>
      <path class="cls-2" d="M315.99,34.62l-11.49,11.91c-2.56,2.66-2.48,6.88.17,9.44,1.3,1.25,2.97,1.87,4.64,1.87,1.75,0,3.5-.68,4.81-2.04l1.87-1.94v-19.25"/>
      <path class="cls-5" d="M335.67,33.46l-9.34,9.68,22.87,27.86c1.32,1.61,3.24,2.44,5.17,2.44,1.49,0,2.99-.5,4.23-1.52,2.85-2.34,3.27-6.55.93-9.4l-23.86-29.07"/>
      <path class="cls-2" d="M326.74,26.43c-1.49,0-2.99.5-4.23,1.52-2.85,2.34-3.27,6.55-.93,9.4l4.75,5.79,9.34-9.68-3.76-4.59c-1.32-1.61-3.24-2.44-5.17-2.44"/>
      <path class="cls-4" d="M411.17,53.85c0,1.46-.38,3.57-2.17,5.32-2.12,2.07-5.69,3.15-10.35,3.15-.26,0-.52,0-.79,0-.01,0-.03,0-.04,0-.05,0-.1,0-.16,0-3.59,0-6.56,2.89-6.65,6.51-.09,3.69,2.82,6.75,6.51,6.85,0,0,.02,0,.03,0,.37,0,.74.01,1.1.01,10.34,0,16.39-3.74,19.68-6.95,4-3.9,6.2-9.19,6.2-14.89h-13.36Z"/>
      <path class="cls-2" d="M398.67.78s-.02,0-.02,0c-.09,0-.18,0-.27,0,.05,0,.1,0,.15,0,.15,0,.31,0,.47.02-1.18-.08-2.34-.13-3.47-.13-14.34,0-24.21,6.87-24.57,21.67-.11,4.68,1.38,11.29,9.13,16.27,3.64,2.33,8.21,4.04,14.38,5.38,0,0,.01,0,.02,0,.01,0,.03,0,.04,0,0,0,0,0,0,0,.46.1.92.14,1.38.14,3.08,0,5.84-2.14,6.52-5.27.78-3.61-1.51-7.16-5.11-7.94,0,0-.01,0-.02,0-13.11-2.85-13.1-7.72-12.65-11.22.5-3.86,3.8-6.09,12.48-5.64.34.05.69.07,1.05.07,3.67,0,6.76-2.68,7.03-6.2.28-3.68-2.65-6.88-6.53-7.14Z"/>
      <path class="cls-5" d="M398.06,14.11c3.51.25,8.01,1.79,13.38,4.57,3.28,1.69,7.31.41,9-2.86,1.69-3.28.41-7.31-2.86-9-7.09-3.67-13.16-5.64-18.56-6.02,0,0-.02,0-.02,0-.16-.01-.31-.02-.47-.02l-.47,13.34Z"/>
      <path class="cls-4" d="M397.29,30.91s.02,0,.02,0c3.61.78,5.89,4.34,5.11,7.94-.68,3.13-3.45,5.27-6.52,5.27-.45,0-.91-.05-1.38-.14,0,0,0,0,0,0,16.64,3.47,16.64,8.12,16.64,9.87h0c0-3.69,2.99-6.68,6.68-6.68s6.68,2.99,6.68,6.68c0-4.62-1.57-11.17-9.05-16.21-4.3-2.9-10.08-5.03-18.2-6.73M394.46,43.97s.04,0,.06.01c-.01,0-.03,0-.04,0,0,0-.01,0-.02,0"/>
      <path class="cls-5" d="M369.73,57.68c-2.02,3.08-1.16,7.23,1.92,9.25,6.34,4.16,14.38,8.45,25.87,8.75,0,0,.02,0,.03,0,0,0-.02,0-.03,0l.3-13.35c-8.09-.22-13.84-3.28-18.84-6.56-3.09-2.03-7.23-1.16-9.25,1.92Z"/>
      <path class="cls-5" d="M417.85,47.17c-3.69,0-6.68,2.99-6.68,6.68h0c0,3.69,2.99,6.68,6.68,6.68s6.68-2.99,6.68-6.68h0c0-3.69-2.99-6.68-6.68-6.68"/>
      <path class="cls-2" d="M397.66,62.31c-3.59,0-6.56,2.89-6.65,6.51-.09,3.69,2.82,6.75,6.51,6.85,0,0,.02,0,.03,0,.05,0,.1,0,.15,0,3.61,0,6.58-2.88,6.67-6.51.09-3.69-2.82-6.75-6.51-6.85-.01,0-.03,0-.04,0-.05,0-.1,0-.16,0"/>
      <path class="cls-2" d="M395.89,30.76c-3.1,0-5.87,2.17-6.53,5.32-.75,3.59,1.53,7.11,5.11,7.89,0,0,.01,0,.02,0,.01,0,.03,0,.04,0,0,0,0,0,0,0,.46.1.92.14,1.38.14,3.08,0,5.84-2.14,6.52-5.27.78-3.61-1.51-7.16-5.11-7.94,0,0-.01,0-.02,0,0,0-.02,0-.03,0-.46-.1-.92-.14-1.37-.14"/>
      <path class="cls-4" d="M398.53.77c-3.47,0-6.4,2.69-6.65,6.2-.28,3.86,2.77,7.16,6.67,7.16,3.47,0,6.4-2.68,6.66-6.2.26-3.68-2.5-6.88-6.18-7.14,0,0-.02,0-.02,0-.16-.01-.31-.02-.47-.02"/>
      <path class="cls-4" d="M506.03,52.41c-2.06,0-4.1-.95-5.41-2.75l-26.95-37.07c-2.17-2.98-1.51-7.16,1.47-9.33,2.98-2.17,7.16-1.51,9.33,1.47l26.95,37.07c2.17,2.98,1.51,7.16-1.47,9.33-1.19.86-2.56,1.28-3.92,1.28Z"/>
      <path class="cls-2" d="M506.02,52.41c-1.36,0-2.74-.42-3.92-1.28-2.98-2.17-3.64-6.35-1.47-9.33l26.95-37.07c2.17-2.98,6.35-3.64,9.33-1.47,2.98,2.17,3.64,6.35,1.47,9.33l-26.95,37.07c-1.31,1.8-3.34,2.75-5.41,2.75Z"/>
      <path class="cls-5" d="M506.03,73.45c-3.69,0-6.68-2.99-6.68-6.68v-21.04c0-3.69,2.99-6.68,6.68-6.68s6.68,2.99,6.68,6.68v21.04c0,3.69-2.99,6.68-6.68,6.68Z"/>
      <path class="cls-4" d="M506.03,34.37l-5.36,7.37c1.22-1.63,3.16-2.69,5.36-2.69s4.14,1.06,5.36,2.69l-5.36-7.37"/>
      <path class="cls-5" d="M499.35,45.8v2.09l1.19,1.63c-.76-1.1-1.17-2.41-1.19-3.72"/>
      <path class="cls-5" d="M512.71,45.8c-.02,1.32-.42,2.63-1.19,3.73l1.19-1.63v-2.1"/>
      <path class="cls-5" d="M506.03,39.05c-3.69,0-6.68,2.99-6.68,6.68,0,6.38,8.25,9.2,12.08,3.93.83-1.15,1.26-2.5,1.28-3.86v-.07c0-1.39-.43-2.76-1.28-3.93l-.05-.06c-1.22-1.63-3.16-2.69-5.36-2.69"/>
      <path class="cls-5" d="M583.92,75.69c-3.69,0-6.68-2.99-6.68-6.68s2.99-6.68,6.68-6.68c13.5,0,24.48-10.98,24.48-24.48,0-3.69,2.99-6.68,6.68-6.68s6.68,2.99,6.68,6.68c0,20.87-16.98,37.84-37.84,37.84Z"/>
      <path class="cls-4" d="M552.75,44.52c-3.69,0-6.68-2.99-6.68-6.68,0-20.87,16.98-37.84,37.84-37.84,3.69,0,6.68,2.99,6.68,6.68s-2.99,6.68-6.68,6.68c-13.5,0-24.48,10.98-24.48,24.48,0,3.69-2.99,6.68-6.68,6.68Z"/>
      <path class="cls-2" d="M615.08,44.52c-3.69,0-6.68-2.99-6.68-6.68,0-13.5-10.98-24.48-24.48-24.48-3.69,0-6.68-2.99-6.68-6.68s2.99-6.68,6.68-6.68c20.87,0,37.84,16.98,37.84,37.84,0,3.69-2.99,6.68-6.68,6.68Z"/>
      <path class="cls-2" d="M583.92,75.69c-20.87,0-37.84-16.98-37.84-37.84,0-3.69,2.99-6.68,6.68-6.68s6.68,2.99,6.68,6.68c0,13.5,10.98,24.48,24.48,24.48,3.69,0,6.68,2.99,6.68,6.68s-2.99,6.68-6.68,6.68Z"/>
      <path class="cls-5" d="M552.75,31.16c-3.69,0-6.68,2.99-6.68,6.68h0c0,3.69,2.99,6.68,6.68,6.68s6.68-2.99,6.68-6.68h0c0-3.69-2.99-6.68-6.68-6.68"/>
      <path class="cls-4" d="M583.92,62.33c-3.69,0-6.68,2.99-6.68,6.68s2.99,6.68,6.68,6.68h0c3.69,0,6.68-2.99,6.68-6.68,0-3.69-2.99-6.68-6.68-6.68h0"/>
      <path class="cls-5" d="M583.92,0h0c-3.69,0-6.68,2.99-6.68,6.68s2.99,6.68,6.68,6.68h0c3.69,0,6.68-2.99,6.68-6.68,0-3.69-2.99-6.68-6.68-6.68"/>
      <path class="cls-4" d="M615.08,31.16c-3.69,0-6.68,2.99-6.68,6.68s2.99,6.68,6.68,6.68,6.68-2.99,6.68-6.68-2.99-6.68-6.68-6.68"/>
      <path class="cls-5" d="M639.79,1.99c-3.69,0-6.68,2.99-6.68,6.68v37.52h13.36V8.67c0-3.69-2.99-6.68-6.68-6.68Z"/>
      <path class="cls-4" d="M688.54,1.99c-3.69,0-6.68,2.99-6.68,6.68v37.52c0-3.69,2.99-6.68,6.68-6.68s6.68,2.99,6.68,6.68V8.67c0-3.69-2.99-6.68-6.68-6.68"/>
      <path class="cls-2" d="M633.11,46.18c0,15.38,14.2,28.38,31.01,28.38s31.1-13,31.1-28.38h-13.36c0,8.23-8.74,15.02-17.74,15.02s-17.65-7.02-17.65-15.02h-13.36Z"/>
      <path class="cls-1" d="M639.79,39.5c-3.69,0-6.68,2.99-6.68,6.68h0c0,3.69,2.99,6.68,6.68,6.68s6.68-2.99,6.68-6.68h0c0-3.69-2.99-6.68-6.68-6.68"/>
      <path class="cls-3" d="M688.54,39.5c-3.69,0-6.68,2.99-6.68,6.68h0c0,3.69,2.99,6.68,6.68,6.68s6.68-2.99,6.68-6.68h0c0-3.69-2.99-6.68-6.68-6.68"/>
      <path class="cls-4" d="M639.79,39.5c-3.69,0-6.68,2.99-6.68,6.68s2.99,6.68,6.68,6.68,6.68-2.99,6.68-6.68-2.99-6.68-6.68-6.68"/>
      <path class="cls-5" d="M688.54,39.5c-3.69,0-6.68,2.99-6.68,6.68s2.99,6.68,6.68,6.68,6.68-2.99,6.68-6.68-2.99-6.68-6.68-6.68"/>
      <path class="cls-2" d="M716.11,51.38c-3.69,0-6.68-2.99-6.68-6.68V8.53c0-3.69,2.99-6.68,6.68-6.68s6.68,2.99,6.68,6.68v36.18c0,3.69-2.99,6.68-6.68,6.68Z"/>
      <path class="cls-4" d="M716.11,73.45c-3.69,0-6.68-2.99-6.68-6.68v-1.3c0-3.69,2.99-6.68,6.68-6.68s6.68,2.99,6.68,6.68v1.3c0,3.69-2.99,6.68-6.68,6.68Z"/>
      <path class="cls-5" d="M6.68,1.94C2.99,1.94,0,4.93,0,8.62h0c0,3.69,2.99,6.68,6.68,6.68s6.68-2.99,6.68-6.68h0c0-3.69-2.99-6.68-6.68-6.68"/>
      <path class="cls-2" d="M55.58,1.98c-3.59,0-6.56,2.89-6.65,6.51-.09,3.69,2.82,6.75,6.51,6.85,0,0,.02,0,.03,0,.05,0,.1,0,.15,0,3.61,0,6.58-2.88,6.67-6.51.09-3.69-2.82-6.75-6.51-6.85-.01,0-.03,0-.04,0-.05,0-.1,0-.16,0"/>
      <path class="cls-4" d="M31.04,60.09c-3.47,0-6.4,2.69-6.65,6.2-.28,3.86,2.77,7.16,6.67,7.16,3.47,0,6.4-2.68,6.66-6.2.26-3.68-2.5-6.88-6.18-7.14,0,0-.02,0-.02,0-.16-.01-.31-.02-.47-.02"/>
      <path class="cls-4" d="M178.09,1.98c-3.47,0-6.4,2.69-6.65,6.2-.28,3.86,2.77,7.16,6.67,7.16,3.47,0,6.4-2.68,6.66-6.2.26-3.68-2.5-6.88-6.18-7.14,0,0-.02,0-.02,0-.16-.01-.31-.02-.47-.02"/>
      <path class="cls-2" d="M148.48,60.05c-3.69,0-6.68,2.99-6.68,6.68h0c0,3.69,2.99,6.68,6.68,6.68s6.68-2.99,6.68-6.68h0c0-3.69-2.99-6.68-6.68-6.68"/>
      <path class="cls-2" d="M231,60.05c-3.69,0-6.68,2.99-6.68,6.68h0c0,3.69,2.99,6.68,6.68,6.68s6.68-2.99,6.68-6.68h0c0-3.69-2.99-6.68-6.68-6.68"/>
      <path class="cls-4" d="M280.3,60.05c-3.47,0-6.4,2.69-6.65,6.2-.28,3.86,2.77,7.16,6.67,7.16,3.47,0,6.4-2.68,6.66-6.2.26-3.68-2.5-6.88-6.18-7.14,0,0-.02,0-.02,0-.16-.01-.31-.02-.47-.02"/>
      <path class="cls-5" d="M280.31,1.94c-3.69,0-6.68,2.99-6.68,6.68h0c0,3.69,2.99,6.68,6.68,6.68s6.68-2.99,6.68-6.68h0c0-3.69-2.99-6.68-6.68-6.68"/>
      <path class="cls-2" d="M78.36,1.98c-3.69,0-6.68,2.99-6.68,6.68h0c0,3.69,2.99,6.68,6.68,6.68s6.68-2.99,6.68-6.68h0c0-3.69-2.99-6.68-6.68-6.68"/>
      <path class="cls-5" d="M125.21,60.09c-3.69,0-6.68,2.99-6.68,6.68h0c0,3.69,2.99,6.68,6.68,6.68s6.68-2.99,6.68-6.68h0c0-3.69-2.99-6.68-6.68-6.68"/>
      <path class="cls-4" d="M350.36,1.94c-3.47,0-6.4,2.69-6.65,6.2-.28,3.86,2.77,7.16,6.67,7.16,3.47,0,6.4-2.68,6.66-6.2.26-3.68-2.5-6.88-6.18-7.14,0,0-.02,0-.02,0-.16-.01-.31-.02-.47-.02"/>
      <path class="cls-2" d="M309.32,1.94c-3.69,0-6.68,2.99-6.68,6.68h0c0,3.69,2.99,6.68,6.68,6.68s6.68-2.99,6.68-6.68h0c0-3.69-2.99-6.68-6.68-6.68"/>
      <path class="cls-5" d="M479.08,1.94c-3.69,0-6.68,2.99-6.68,6.68h0c0,3.69,2.99,6.68,6.68,6.68s6.68-2.99,6.68-6.68h0c0-3.69-2.99-6.68-6.68-6.68"/>
      <path class="cls-4" d="M532.97,1.94c-3.47,0-6.4,2.69-6.65,6.2-.28,3.86,2.77,7.16,6.67,7.16,3.47,0,6.4-2.68,6.66-6.2.26-3.68-2.5-6.88-6.18-7.14,0,0-.02,0-.02,0-.16-.01-.31-.02-.47-.02"/>
    </g>
  </g>
</svg>