<?xml version="1.0" encoding="UTF-8"?>
<svg id="_レイヤー_2" data-name="レイヤー 2" xmlns="http://www.w3.org/2000/svg" viewBox="0 0 154 154">
  <defs>
    <style>
      .cls-1 {
        fill: #fffcee;
      }

      .cls-2 {
        fill: #ffd63a;
      }
    </style>
  </defs>
  <g id="_スキル_ワーク" data-name="スキル＆ワーク">
    <g>
      <circle class="cls-2" cx="77" cy="77" r="77"/>
      <g>
        <path class="cls-1" d="M114.7,44.67H39.3c-.88,0-1.6.7-1.6,1.58v61.5c0,.87.71,1.59,1.6,1.59h75.4c.88,0,1.6-.71,1.6-1.59v-61.5c0-.87-.71-1.58-1.6-1.58ZM76.47,54.68c0-2.16,1.78-3.91,3.97-3.91s3.98,1.76,3.98,3.91-1.78,3.93-3.98,3.93-3.97-1.76-3.97-3.93ZM87.83,54.68c0-2.16,1.77-3.91,3.97-3.91s3.98,1.76,3.98,3.91-1.78,3.93-3.98,3.93-3.97-1.76-3.97-3.93ZM99.18,54.68c0-2.16,1.78-3.91,3.98-3.91s3.97,1.76,3.97,3.91-1.78,3.93-3.97,3.93-3.98-1.76-3.98-3.93ZM107.7,63.68v37.17h-61.4v-37.17h61.4Z"/>
        <path class="cls-1" d="M57.96,84.77l10.57,5.19c.2.09.38.15.53.16h.09c.28,0,.52-.12.69-.36.12-.17.2-.38.24-.68.03-.21.05-.5.05-.87,0-.4-.01-.72-.03-.95-.02-.28-.07-.5-.13-.68-.09-.25-.23-.44-.42-.58-.11-.08-.26-.17-.44-.25l-4.03-1.84-2.53-1.17,6.73-3.11c.15-.08.28-.16.39-.25.16-.13.27-.32.34-.56.05-.17.08-.38.1-.64.01-.23.02-.53.02-.92,0-.68-.08-1.11-.26-1.4-.18-.28-.46-.44-.79-.44-.18,0-.36.05-.57.14l-10.57,5.18c-.14.08-.26.19-.36.32-.1.13-.17.3-.22.49-.03.13-.06.3-.08.51-.02.19-.03.42-.03.68,0,.52.04.9.11,1.19.1.4.3.68.6.85Z"/>
        <path class="cls-1" d="M70.92,95c.19.11.44.19.76.24.26.04.6.06,1.02.06.33,0,.61-.01.82-.04.24-.03.45-.07.62-.13.22-.08.4-.18.54-.32.13-.13.24-.3.32-.51l8.22-22.84c.07-.24.09-.47.06-.67-.03-.2-.15-.49-.49-.7-.19-.12-.44-.2-.76-.25-.26-.04-.6-.06-1.02-.06-.32,0-.59.01-.82.04-.26.03-.47.07-.64.13-.22.08-.4.19-.54.34-.14.14-.24.32-.3.5l-8.23,22.8c-.09.25-.12.49-.08.7.05.29.23.54.51.71Z"/>
        <path class="cls-1" d="M84.74,85.87c-.18.07-.33.16-.44.27-.15.13-.26.32-.33.56-.05.17-.08.38-.1.64-.01.23-.02.53-.02.92,0,.3.01.55.04.75.03.27.11.48.22.66.16.25.4.39.68.42h.1c.18,0,.37-.04.57-.14l10.52-5.14c.17-.07.31-.19.43-.34.1-.13.17-.29.22-.48.04-.14.07-.32.09-.53.02-.19.03-.41.03-.67,0-.52-.04-.92-.13-1.21-.12-.41-.33-.69-.6-.81l-10.57-5.2c-.2-.1-.37-.15-.63-.17-.28,0-.53.13-.7.36-.12.17-.2.39-.24.69-.02.21-.04.49-.04.86,0,.4,0,.71.02.94.02.28.06.51.12.69.09.25.23.45.42.58.13.09.28.18.46.25l4.02,1.84,2.54,1.18-6.69,3.1Z"/>
      </g>
    </g>
  </g>
</svg>