<?xml version="1.0" encoding="UTF-8"?>
<svg id="_レイヤー_2" data-name="レイヤー 2" xmlns="http://www.w3.org/2000/svg" viewBox="0 0 154 154">
  <defs>
    <style>
      .cls-1 {
        fill: #fffcee;
      }

      .cls-2 {
        fill: #ffd63a;
      }
    </style>
  </defs>
  <g id="_スキル_ワーク" data-name="スキル＆ワーク">
    <g>
      <circle class="cls-2" cx="77" cy="77" r="77"/>
      <g>
        <path class="cls-1" d="M79.54,49.04c-11.31,11.36-18.55,16.81-25.88,21.79-1.24.84-2.14,2.09-2.55,3.53-4.44,15.55-9.02,27.63-12.27,35.38-1.07-.07-2.17.3-2.99,1.12-1.45,1.45-1.49,3.77-.15,5.29.05.05.08.11.13.16h0s.01.01.02.02l.19-.19,5.26-5.28,26.93-27.04c-.79-1.66-.34-3.76,1.37-4.9,1.25-.84,2.93-.85,4.18-.02,2.13,1.4,2.34,4.29.65,5.99-1.04,1.04-2.51,1.36-3.82.97-.01,0-.02,0-.03-.01-.18-.06-.35-.12-.52-.2l-26.93,27.04-5.25,5.28-.17.17h0s-.02.02-.02.02c1.5,1.51,3.94,1.51,5.44,0,.82-.82,1.19-1.92,1.11-3,7.72-3.26,19.75-7.87,35.23-12.33,1.44-.41,2.68-1.32,3.52-2.57,4.96-7.36,10.39-14.63,21.7-25.99-5.35-5.37-12.56-12.62-12.56-12.62,0,0-7.22-7.25-12.57-12.62Z"/>
        <path class="cls-1" d="M93.97,34.72c-4.09,2.93-7.69,6.54-10.6,10.65,8.22,8.69,16.65,17.15,25.31,25.41,4.09-2.93,7.69-6.54,10.6-10.65-8.22-8.69-16.65-17.16-25.31-25.41Z"/>
      </g>
    </g>
  </g>
</svg>