<?xml version="1.0" encoding="UTF-8"?>
<svg id="_レイヤー_2" data-name="レイヤー 2" xmlns="http://www.w3.org/2000/svg" viewBox="0 0 120 120">
  <defs>
    <style>
      .cls-1 {
        fill: #05c87a;
      }

      .cls-2 {
        fill: #fffcee;
      }
    </style>
  </defs>
  <g id="ABOUTページ">
    <g>
      <circle class="cls-1" cx="60" cy="60" r="60"/>
      <g>
        <path class="cls-2" d="M83.32,51.72c-.94-.48-2.13-.13-2.67.82-.52.93-.22,2.12.7,2.69,4.88,3.03,7.56,6.87,7.56,10.8,0,8.81-13.4,16.26-29.26,16.26s-29.24-7.45-29.24-16.26c0-3.96,2.66-7.03,4.91-8.91.82-.69.97-1.9.33-2.76-.64-.87-1.84-1.06-2.75-.47-6.06,4.07-9.4,9.37-9.4,14.91,0,12.44,16.03,22.19,36.5,22.19s36.5-9.75,36.5-22.19c0-6.66-4.8-12.9-13.18-17.09Z"/>
        <path class="cls-2" d="M44.97,57.25c0,1.98-1.11,3.94-3.08,5.54-.85.67-1.01,1.87-.38,2.74.38.55,1.01.84,1.65.84.35,0,.73-.1,1.06-.3,5.82-3.64,6.61-8.1,6.61-11.98,0-2.56-1.05-5.89-2.75-8.88-1.59-2.83-2.47-5.35-2.47-7.08,0-2.01,1.06-3.92,3.07-5.54.83-.67,1-1.87.38-2.75-.63-.88-1.83-1.09-2.72-.53-5.91,3.75-6.59,8.59-6.59,11.91,0,2.6,1.03,5.96,2.76,8.96,1.53,2.69,2.47,5.33,2.47,7.07Z"/>
        <path class="cls-2" d="M58.94,58.88c0,2.07-1.14,4.14-3.23,5.81-.88.7-1.06,1.97-.4,2.88.41.58,1.07.89,1.73.89.38,0,.78-.1,1.13-.32,6.1-3.83,6.92-8.51,6.92-12.57,0-2.69-1.09-6.2-2.89-9.33-1.66-2.98-2.59-5.63-2.59-7.45,0-2.1,1.11-4.11,3.23-5.8.87-.7,1.05-1.97.38-2.89-.66-.91-1.91-1.15-2.86-.55-6.18,3.94-6.9,9.02-6.9,12.5,0,2.74,1.09,6.26,2.88,9.41,1.63,2.83,2.59,5.6,2.59,7.43Z"/>
        <path class="cls-2" d="M72.96,57.25c0,1.98-1.1,3.94-3.08,5.54-.84.67-1.01,1.87-.38,2.74.39.55,1.01.84,1.65.84.36,0,.73-.1,1.07-.3,5.81-3.64,6.6-8.1,6.6-11.98,0-2.56-1.03-5.89-2.76-8.88-1.59-2.83-2.47-5.35-2.47-7.08,0-2.01,1.06-3.92,3.07-5.54.84-.67,1-1.87.38-2.75-.63-.88-1.83-1.09-2.72-.53-5.9,3.75-6.59,8.59-6.59,11.91,0,2.6,1.04,5.96,2.77,8.96,1.54,2.69,2.47,5.33,2.47,7.07Z"/>
      </g>
    </g>
  </g>
</svg>